{
.appVersion = "3251";
.formatVersion = 3;
customParameters = (
{
name = fsType;
value = (
);
},
{
name = unicodeRanges;
value = (
0,
1,
2,
3,
5,
13,
31,
33,
35,
45,
60,
63,
67
);
}
);
date = "2024-03-05 07:21:34 +0000";
familyName = Gharbi;
featurePrefixes = (
{
automatic = 1;
code = "languagesystem DFLT dflt;

languagesystem arab dflt;

languagesystem latn dflt;
";
name = Languagesystems;
}
);
features = (
{
automatic = 1;
code = "feature init;
feature medi;
feature fina;
feature ss01;
feature ss02;
feature ordn;
";
tag = aalt;
},
{
automatic = 1;
code = "lookup ccmp_arab_1 {
	lookupflag 0;
	sub hamzaabove-ar damma-ar by hamzaaboveDamma-ar;
	sub damma-ar hamzaabove-ar by hamzaaboveDamma-ar;
	sub hamzaabove-ar dammatan-ar by hamzaaboveDammatan-ar;
	sub dammatan-ar hamzaabove-ar by hamzaaboveDammatan-ar;
	sub hamzaabove-ar fatha-ar by hamzaaboveFatha-ar;
	sub fatha-ar hamzaabove-ar by hamzaaboveFatha-ar;
	sub hamzaabove-ar fathatan-ar by hamzaaboveFathatan-ar;
	sub fathatan-ar hamzaabove-ar by hamzaaboveFathatan-ar;
	sub hamzaabove-ar sukun-ar by hamzaaboveSukun-ar;
	sub sukun-ar hamzaabove-ar by hamzaaboveSukun-ar;
	sub hamzabelow-ar kasra-ar by hamzabelowKasra-ar;
	sub kasra-ar hamzabelow-ar by hamzabelowKasra-ar;
	sub hamzabelow-ar kasratan-ar by hamzabelowKasratan-ar;
	sub kasratan-ar hamzabelow-ar by hamzabelowKasratan-ar;
	sub shadda-ar alefabove-ar by shaddaAlefabove-ar;
	sub alefabove-ar shadda-ar by shaddaAlefabove-ar;
	sub shadda-ar damma-ar by shaddaDamma-ar;
	sub damma-ar shadda-ar by shaddaDamma-ar;
	sub shadda-ar dammatan-ar by shaddaDammatan-ar;
	sub dammatan-ar shadda-ar by shaddaDammatan-ar;
	sub shadda-ar fatha-ar by shaddaFatha-ar;
	sub fatha-ar shadda-ar by shaddaFatha-ar;
	sub shadda-ar fathatan-ar by shaddaFathatan-ar;
	sub fathatan-ar shadda-ar by shaddaFathatan-ar;
	sub shadda-ar kasra-ar by shaddaKasra-ar;
	sub kasra-ar shadda-ar by shaddaKasra-ar;
	sub shadda-ar kasratan-ar by shaddaKasratan-ar;

glyphs = (
{
glyphname = A;
kernLeft = A;
kernRight = A;
lastChange = "2024-03-30 11:28:57 +0000";
layers = (
{
layerId = m01;
shapes = (
{
closed = 1;
nodes = (
(1389,0,l),
(871,1404,l),
(553,1404,l),
(40,0,l),
(400,0,l),
(481,262,l),
(943,262,l),
(1026,0,l)
);
},
{
closed = 1;
nodes = (
(864,523,l),
(562,523,l),
(713,1010,l)
);
}
);
userData = {
assembly = "SVTCA[0]	/* SetFreedomAndProjectionVectorToAxis */
PUSHB[ ]	/* 1 value pushed */
0
RCVT[ ]	/* ReadCVT */
IF[ ]	/* If */
PUSHB[ ]	/* 1 value pushed */
4
MDAP[1]	/* MoveDirectAbsPt */
ELSE[ ]	/* Else */
PUSHB[ ]	/* 2 values pushed */
4 31
MIAP[0]	/* MoveIndirectAbsPt */
EIF[ ]	/* EndIf */
PUSHB[ ]	/* 1 value pushed */
0
RCVT[ ]	/* ReadCVT */
IF[ ]	/* If */
PUSHB[ ]	/* 1 value pushed */
2
MDAP[1]	/* MoveDirectAbsPt */
ELSE[ ]	/* Else */
PUSHB[ ]	/* 2 values pushed */
2 15
MIAP[0]	/* MoveIndirectAbsPt */
EIF[ ]	/* EndIf */
PUSHB[ ]	/* 1 value pushed */
0
RCVT[ ]	/* ReadCVT */
IF[ ]	/* If */
PUSHB[ ]	/* 1 value pushed */
6
MDAP[1]	/* MoveDirectAbsPt */
ELSE[ ]	/* Else */
PUSHB[ ]	/* 2 values pushed */
6 15
MIAP[0]	/* MoveIndirectAbsPt */
EIF[ ]	/* EndIf */
PUSHB[ ]	/* 3 values pushed */
9 4 2
SRP1[ ]	/* SetRefPoint1 */
SRP2[ ]	/* SetRefPoint2 */
IP[ ]	/* InterpolatePts */
PUSHB[ ]	/* 1 value pushed */
9
MDAP[1]	/* MoveDirectAbsPt */
PUSHB[ ]	/* 3 values pushed */
79 9 1
DELTAP1[ ]	/* DeltaExceptionP1 */
PUSHB[ ]	/* 2 values pushed */
0 1
PUSHB[ ]	/* 1 value pushed */
10
CALL[ ]	/* CallFunction */
IF[ ]	/* If */
POP[ ]	/* PopTopStack */
MDRP[11000]	/* MoveDirectRelPt */
ELSE[ ]	/* Else */
MIRP[10100]	/* MoveIndirectRelPt */
EIF[ ]	/* EndIf */
PUSHB[ ]	/* 3 values pushed */
10 4 2
SRP1[ ]	/* SetRefPoint1 */
SRP2[ ]	/* SetRefPoint2 */
IP[ ]	/* InterpolatePts */
IUP[0]	/* InterpolateUntPts */
IUP[1]	/* InterpolateUntPts */";
};
width = 1429;
}
);
note = uni0041;
unicode = 65;
},
{
glyphname = Aacute;
kernLeft = A;
kernRight = A;
lastChange = "2024-03-30 11:28:57 +0000";
layers = (
{
layerId = m01;
shapes = (
{
closed = 1;
nodes = (
(1389,0,l),
(871,1404,l),
(553,1404,l),
(40,0,l),
(400,0,l),
(481,262,l),
(943,262,l),
(1026,0,l)
);
},
{
closed = 1;
nodes = (
(864,523,l),
(562,523,l),
(713,1010,l)
);
},
{
closed = 1;
nodes = (
(833,1475,l),
(1101,1778,l),
(756,1778,l),
(567,1475,l)
);
}
);
width = 1429;
}
);
note = uni00C1;
unicode = 193;
},
{
glyphname = Acircumflex;
kernLeft = A;
kernRight = A;
lastChange = "2024-03-30 11:28:57 +0000";
layers = (
{
layerId = m01;
shapes = (
{
closed = 1;
nodes = (
(1389,0,l),
(871,1404,l),
(553,1404,l),
(40,0,l),
(400,0,l),
(481,262,l),
(943,262,l),
(1026,0,l)
);
},
{
closed = 1;
nodes = (
(864,523,l),
(562,523,l),
(713,1010,l)
);
},
{
closed = 1;
nodes = (
(623,1778,l),
(312,1511,l),
(312,1494,l),
(562,1494,l),
(715,1625,l),
(869,1494,l),
(1125,1494,l),
(1125,1507,l),
(810,1778,l)
);
}
);
width = 1429;
}
);
note = uni00C2;
unicode = 194;
},
{
glyphname = Adieresis;
kernLeft = A;
kernRight = A;
lastChange = "2024-03-30 11:28:57 +0000";
layers = (
{
layerId = m01;
shapes = (
{
closed = 1;
nodes = (
(1389,0,l),
(871,1404,l),
(553,1404,l),
(40,0,l),
(400,0,l),
(481,262,l),
(943,262,l),
(1026,0,l)
);
},
{
closed = 1;
nodes = (
(864,523,l),
(562,523,l),
(713,1010,l)
);
},
{
closed = 1;
nodes = (
(319,1544,o),
(382,1485,o),
(464,1485,cs),
(547,1485,o),
(609,1543,o),
(609,1614,cs),
(609,1685,o),
(547,1739,o),
(464,1739,cs),
(382,1739,o),
(319,1685,o),
(319,1613,cs)
);
},
{
closed = 1;
nodes = (
(820,1544,o),
(882,1485,o),
(965,1485,cs),
(1047,1485,o),
(1110,1543,o),
(1110,1614,cs),
(1110,1685,o),
(1047,1739,o),
(965,1739,cs),
(882,1739,o),
(820,1685,o),
(820,1613,cs)
);
}
);
width = 1429;
}
);
note = uni00C4;
unicode = 196;
},
{
glyphname = Agrave;
kernLeft = A;
kernRight = A;
lastChange = "2024-03-30 11:28:57 +0000";
layers = (
{
layerId = m01;
shapes = (
{
closed = 1;
nodes = (
(1389,0,l),
(871,1404,l),
(553,1404,l),
(40,0,l),
(400,0,l),
(481,262,l),
(943,262,l),
(1026,0,l)
);
},
{
closed = 1;
nodes = (
(864,523,l),
(562,523,l),
(713,1010,l)
);
},
{
closed = 1;
nodes = (
(334,1778,l),
(605,1475,l),
(869,1475,l),
(680,1778,l)
);
}
);
width = 1429;
}
);
note = uni00C0;
unicode = 192;
},
{
glyphname = Aring;
kernLeft = A;
kernRight = A;
lastChange = "2024-03-30 11:28:57 +0000";
layers = (
{
layerId = m01;
shapes = (
{
closed = 1;
nodes = (
(1389,0,l),
(871,1404,l),
(553,1404,l),
(40,0,l),
(400,0,l),
(481,262,l),
(943,262,l),
(1026,0,l)
);
},
{
closed = 1;
nodes = (
(864,523,l),
(562,523,l),
(713,1010,l)
);
},
{
closed = 1;
nodes = (
(502,1553,o),
(594,1473,o),
(719,1473,cs),
(840,1473,o),
(934,1553,o),
(934,1664,cs),
(934,1777,o),
(837,1859,o),
(719,1859,cs),
(596,1859,o),
(502,1777,o),
(502,1664,cs)
);
},
{
closed = 1;
nodes = (
(584,1563,o),
(583,1769,o),
(719,1769,cs),
(848,1769,o),
(850,1563,o),
(719,1563,cs)
);
}
);
width = 1429;
}
);
note = uni00C5;
unicode = 197;
},
{
glyphname = Atilde;
kernLeft = A;
kernRight = A;
lastChange = "2024-03-30 11:28:57 +0000";
layers = (
{
layerId = m01;
shapes = (
{
closed = 1;
nodes = (
(1389,0,l),
(871,1404,l),
(553,1404,l),
(40,0,l),
(400,0,l),
(481,262,l),
(943,262,l),
(1026,0,l)
);
},
{
closed = 1;
nodes = (
(864,523,l),
(562,523,l),
(713,1010,l)
);
},
{
closed = 1;
nodes = (
(909,1719,o),
(875,1694,o),
(833,1694,cs),
(732,1694,o),
(667,1773,o),
(564,1773,cs),
(441,1773,o),
(341,1653,o),
(341,1509,c),
(521,1500,l),
(521,1561,o),
(557,1586,o),
(596,1586,cs),
(629,1586,o),
(671,1573,o),
(723,1546,cs),
(776,1518,o),
(823,1505,o),
(867,1505,cs),
(989,1505,o),
(1087,1620,o),
(1087,1771,c),
(909,1780,l)
);
}
);
width = 1429;
}
);
note = uni00C3;
unicode = 195;
},
{
glyphname = AE;
lastChange = "2024-03-30 11:28:57 +0000";
layers = (
{
layerId = m01;
shapes = (
{
closed = 1;
nodes = (
(1256,254,l),
(1243,591,l),
(1671,591,l),
(1671,845,l),
(1231,845,l),
(1220,1148,l),
(1749,1148,l),
(1749,1404,l),
(747,1404,l),
(40,0,l),
(414,0,l),
(560,316,l),
(930,316,l),
(943,0,l),
(1808,0,l),
(1808,254,l)
);
},
{
closed = 1;
nodes = (
(919,576,l),
(682,576,l),
(898,1045,l)
);
}
);
userData = {
assembly = "SVTCA[0]	/* SetFreedomAndProjectionVectorToAxis */
PUSHB[ ]	/* 1 value pushed */
0
RCVT[ ]	/* ReadCVT */
IF[ ]	/* If */
PUSHB[ ]	/* 1 value pushed */
6
MDAP[1]	/* MoveDirectAbsPt */
ELSE[ ]	/* Else */
PUSHB[ ]	/* 2 values pushed */
6 31
MIAP[0]	/* MoveIndirectAbsPt */
EIF[ ]	/* EndIf */
PUSHB[ ]	/* 1 value pushed */
0
RCVT[ ]	/* ReadCVT */
IF[ ]	/* If */
PUSHB[ ]	/* 1 value pushed */
0
MDAP[1]	/* MoveDirectAbsPt */
ELSE[ ]	/* Else */
PUSHB[ ]	/* 2 values pushed */
0 15
MIAP[0]	/* MoveIndirectAbsPt */
EIF[ ]	/* EndIf */
PUSHB[ ]	/* 1 value pushed */
0
RCVT[ ]	/* ReadCVT */
IF[ ]	/* If */
PUSHB[ ]	/* 1 value pushed */
4
MDAP[1]	/* MoveDirectAbsPt */
ELSE[ ]	/* Else */
PUSHB[ ]	/* 2 values pushed */
4 15
MIAP[0]	/* MoveIndirectAbsPt */
EIF[ ]	/* EndIf */
PUSHB[ ]	/* 3 values pushed */
17 6 0
SRP1[ ]	/* SetRefPoint1 */
SRP2[ ]	/* SetRefPoint2 */
IP[ ]	/* InterpolatePts */
PUSHB[ ]	/* 1 value pushed */
17
MDAP[1]	/* MoveDirectAbsPt */
PUSHB[ ]	/* 2 values pushed */
2 1
PUSHB[ ]	/* 1 value pushed */
10
CALL[ ]	/* CallFunction */
IF[ ]	/* If */
POP[ ]	/* PopTopStack */
MDRP[11000]	/* MoveDirectRelPt */
ELSE[ ]	/* Else */
MIRP[10100]	/* MoveIndirectRelPt */
EIF[ ]	/* EndIf */
PUSHB[ ]	/* 1 value pushed */
6
SRP0[ ]	/* SetRefPoint0 */
PUSHB[ ]	/* 2 values pushed */
8 1
PUSHB[ ]	/* 1 value pushed */
10
CALL[ ]	/* CallFunction */
IF[ ]	/* If */
POP[ ]	/* PopTopStack */
MDRP[11000]	/* MoveDirectRelPt */
ELSE[ ]	/* Else */
MIRP[10100]	/* MoveIndirectRelPt */
EIF[ ]	/* EndIf */
PUSHB[ ]	/* 3 values pushed */
11 0 6
SRP1[ ]	/* SetRefPoint1 */
SRP2[ ]	/* SetRefPoint2 */
IP[ ]	/* InterpolatePts */
PUSHB[ ]	/* 1 value pushed */
11
MDAP[1]	/* MoveDirectAbsPt */
PUSHB[ ]	/* 3 values pushed */
191 11 1
DELTAP1[ ]	/* DeltaExceptionP1 */
PUSHB[ ]	/* 2 values pushed */
12 1
PUSHB[ ]	/* 1 value pushed */
10
CALL[ ]	/* CallFunction */
IF[ ]	/* If */
POP[ ]	/* PopTopStack */
MDRP[11000]	/* MoveDirectRelPt */
ELSE[ ]	/* Else */
MIRP[10100]	/* MoveIndirectRelPt */
EIF[ ]	/* EndIf */
PUSHB[ ]	/* 1 value pushed */
0
SRP0[ ]	/* SetRefPoint0 */
PUSHB[ ]	/* 2 values pushed */
14 1
PUSHB[ ]	/* 1 value pushed */
10
CALL[ ]	/* CallFunction */
IF[ ]	/* If */
POP[ ]	/* PopTopStack */
MDRP[11000]	/* MoveDirectRelPt */
ELSE[ ]	/* Else */
MIRP[10100]	/* MoveIndirectRelPt */
EIF[ ]	/* EndIf */
PUSHB[ ]	/* 3 values pushed */
18 6 0
SRP1[ ]	/* SetRefPoint1 */
SRP2[ ]	/* SetRefPoint2 */
IP[ ]	/* InterpolatePts */
IUP[0]	/* InterpolateUntPts */
IUP[1]	/* InterpolateUntPts */";
};
width = 1848;
}
);
note = uni00C6;
unicode = 198;
},
{
glyphname = B;
kernRight = B;
lastChange = "2024-03-30 11:28:57 +0000";
layers = (
{
layerId = m01;
shapes = (
{
closed = 1;
nodes = (
(953,3,o),
(1125,141,o),
(1125,415,cs),
(1125,568,o),
(1045,678,o),
(898,714,c),
(1030,766,o),
(1096,869,o),
(1096,1016,cs),
(1096,1265,o),
(902,1404,o),
(545,1404,cs),
(40,1404,l),
(40,0,l),
(607,0,l)
);
},
{
closed = 1;
nodes = (
(732,595,o),
(790,536,o),
(790,419,cs),
(790,320,o),
(722,260,o),
(598,260,cs),
(377,260,l),
(377,595,l),
(614,595,l)
);
},
{
closed = 1;
nodes = (
(545,1140,ls),
(694,1140,o),
(758,1092,o),
(758,976,cs),
(758,870,o),
(701,817,o),
(553,817,cs),
(377,817,l),
(377,1140,l)
);
}
);
userData = {
assembly = "PUSHB[ ]	/* 3 values pushed */
24 32 33
SRP1[ ]	/* SetRefPoint1 */
SRP2[ ]	/* SetRefPoint2 */
IP[ ]	/* InterpolatePts */
PUSHB[ ]	/* 1 value pushed */
24
SRP0[ ]	/* SetRefPoint0 */
PUSHB[ ]	/* 1 value pushed */
2
MDRP[10000]	/* MoveDirectRelPt */
PUSHB[ ]	/* 1 value pushed */
24
SRP0[ ]	/* SetRefPoint0 */
PUSHB[ ]	/* 1 value pushed */
17
MDRP[10000]	/* MoveDirectRelPt */
SVTCA[0]	/* SetFreedomAndProjectionVectorToAxis */
PUSHB[ ]	/* 1 value pushed */
0
RCVT[ ]	/* ReadCVT */
IF[ ]	/* If */
PUSHB[ ]	/* 1 value pushed */
1
MDAP[1]	/* MoveDirectAbsPt */
ELSE[ ]	/* Else */
PUSHB[ ]	/* 2 values pushed */
1 31
MIAP[0]	/* MoveIndirectAbsPt */
EIF[ ]	/* EndIf */
PUSHB[ ]	/* 1 value pushed */
0
RCVT[ ]	/* ReadCVT */
IF[ ]	/* If */
PUSHB[ ]	/* 1 value pushed */
0
MDAP[1]	/* MoveDirectAbsPt */
ELSE[ ]	/* Else */
PUSHB[ ]	/* 2 values pushed */
0 15
MIAP[0]	/* MoveIndirectAbsPt */
EIF[ ]	/* EndIf */
PUSHB[ ]	/* 3 values pushed */
23 0 1
SRP1[ ]	/* SetRefPoint1 */
SRP2[ ]	/* SetRefPoint2 */
IP[ ]	/* InterpolatePts */
PUSHB[ ]	/* 1 value pushed */
23
MDAP[1]	/* MoveDirectAbsPt */
PUSHB[ ]	/* 5 values pushed */
111 23 127 23 2
DELTAP1[ ]	/* DeltaExceptionP1 */
PUSHB[ ]	/* 5 values pushed */
79 23 95 23 2
DELTAP2[ ]	/* DeltaExceptionP2 */
PUSHB[ ]	/* 5 values pushed */
127 23 143 23 2
DELTAP2[ ]	/* DeltaExceptionP2 */
PUSHB[ ]	/* 5 values pushed */
223 23 239 23 2
DELTAP1[ ]	/* DeltaExceptionP1 */
PUSHB[ ]	/* 3 values pushed */
143 23 1
DELTAP3[ ]	/* DeltaExceptionP3 */
PUSHB[ ]	/* 3 values pushed */
188 23 1
DELTAP1[ ]	/* DeltaExceptionP1 */
PUSHB[ ]	/* 2 values pushed */
15 9
PUSHB[ ]	/* 1 value pushed */
10
CALL[ ]	/* CallFunction */
IF[ ]	/* If */
POP[ ]	/* PopTopStack */
MDRP[11000]	/* MoveDirectRelPt */
ELSE[ ]	/* Else */
MIRP[10100]	/* MoveIndirectRelPt */
EIF[ ]	/* EndIf */
PUSHB[ ]	/* 3 values pushed */
8 15 23
SRP1[ ]	/* SetRefPoint1 */
SRP2[ ]	/* SetRefPoint2 */
IP[ ]	/* InterpolatePts */
PUSHB[ ]	/* 1 value pushed */
0
SRP0[ ]	/* SetRefPoint0 */
PUSHB[ ]	/* 2 values pushed */
16 11
PUSHB[ ]	/* 1 value pushed */
10
CALL[ ]	/* CallFunction */
IF[ ]	/* If */
POP[ ]	/* PopTopStack */
MDRP[11000]	/* MoveDirectRelPt */
ELSE[ ]	/* Else */
MIRP[10100]	/* MoveIndirectRelPt */
EIF[ ]	/* EndIf */
PUSHB[ ]	/* 1 value pushed */
1
SRP0[ ]	/* SetRefPoint0 */
PUSHB[ ]	/* 2 values pushed */
30 11
PUSHB[ ]	/* 1 value pushed */
10
CALL[ ]	/* CallFunction */
IF[ ]	/* If */
POP[ ]	/* PopTopStack */
MDRP[11000]	/* MoveDirectRelPt */
ELSE[ ]	/* Else */
MIRP[10100]	/* MoveIndirectRelPt */
EIF[ ]	/* EndIf */
IUP[0]	/* InterpolateUntPts */
IUP[1]	/* InterpolateUntPts */";
};
width = 1165;
}
);
note = uni0042;
unicode = 66;
},
{
glyphname = C;
kernLeft = C;
kernRight = C;
lastChange = "2024-03-30 11:28:57 +0000";
layers = (
{
layerId = m01;
shapes = (
{
closed = 1;
nodes = (
(871,289,o),
(791,221,o),
(635,221,cs),
(451,221,o),
(384,338,o),
(384,638,cs),
(384,737,ls),
(384,1013,o),
(462,1131,o),
(629,1131,cs),
(795,1131,o),
(873,1064,o),
(880,892,c),
(1215,892,l),
(1188,1205,o),
(969,1397,o),
(629,1397,cs),
(267,1397,o),
(40,1131,o),
(40,712,cs),
(40,642,ls),
(40,207,o),
(265,-45,o),
(635,-45,cs),
(965,-45,o),
(1199,143,o),
(1213,449,c),
(878,449,l)
);
}
);
userData = {
assembly = "PUSHB[ ]	/* 3 values pushed */
12 30 31
SRP1[ ]	/* SetRefPoint1 */
SRP2[ ]	/* SetRefPoint2 */
IP[ ]	/* InterpolatePts */
SVTCA[0]	/* SetFreedomAndProjectionVectorToAxis */
PUSHB[ ]	/* 1 value pushed */
0
RCVT[ ]	/* ReadCVT */
IF[ ]	/* If */
PUSHB[ ]	/* 1 value pushed */
12
MDAP[1]	/* MoveDirectAbsPt */
ELSE[ ]	/* Else */
PUSHB[ ]	/* 2 values pushed */
12 31
MIAP[0]	/* MoveIndirectAbsPt */
EIF[ ]	/* EndIf */
PUSHB[ ]	/* 1 value pushed */
0
RCVT[ ]	/* ReadCVT */
IF[ ]	/* If */
PUSHB[ ]	/* 1 value pushed */
4
MDAP[1]	/* MoveDirectAbsPt */
ELSE[ ]	/* Else */
PUSHB[ ]	/* 2 values pushed */
4 15
MIAP[0]	/* MoveIndirectAbsPt */
EIF[ ]	/* EndIf */
PUSHB[ ]	/* 3 values pushed */
16 12 4
SRP1[ ]	/* SetRefPoint1 */
SRP2[ ]	/* SetRefPoint2 */
IP[ ]	/* InterpolatePts */
PUSHB[ ]	/* 1 value pushed */
12
SRP0[ ]	/* SetRefPoint0 */
PUSHB[ ]	/* 2 values pushed */
19 11
PUSHB[ ]	/* 1 value pushed */
10
CALL[ ]	/* CallFunction */
IF[ ]	/* If */
POP[ ]	/* PopTopStack */
MDRP[11000]	/* MoveDirectRelPt */
ELSE[ ]	/* Else */
MIRP[10100]	/* MoveIndirectRelPt */
EIF[ ]	/* EndIf */
PUSHB[ ]	/* 1 value pushed */
4
SRP0[ ]	/* SetRefPoint0 */
PUSHB[ ]	/* 2 values pushed */
26 11
PUSHB[ ]	/* 1 value pushed */
10
CALL[ ]	/* CallFunction */
IF[ ]	/* If */
POP[ ]	/* PopTopStack */
MDRP[11000]	/* MoveDirectRelPt */
ELSE[ ]	/* Else */
MIRP[10100]	/* MoveIndirectRelPt */
EIF[ ]	/* EndIf */
PUSHB[ ]	/* 3 values pushed */
29 4 12
SRP1[ ]	/* SetRefPoint1 */
SRP2[ ]	/* SetRefPoint2 */
IP[ ]	/* InterpolatePts */
IUP[0]	/* InterpolateUntPts */
IUP[1]	/* InterpolateUntPts */";
};
width = 1255;
}
);
note = uni0043;
unicode = 67;
},
{
glyphname = Ccedilla;
kernLeft = C;
kernRight = C;
lastChange = "2024-03-30 11:28:57 +0000";
layers = (
{
layerId = m01;
shapes = (
{
closed = 1;
nodes = (
(871,314,o),
(790,241,o),
(635,241,cs),
(452,241,o),
(384,361,o),
(384,660,cs),
(384,759,ls),
(384,1036,o),
(461,1154,o),
(629,1154,cs),
(794,1154,o),
(873,1086,o),
(880,917,c),
(1215,917,l),
(1188,1230,o),
(970,1419,o),
(629,1419,cs),
(265,1419,o),
(40,1154,o),
(40,737,cs),
(40,667,ls),
(40,228,o),
(265,-22,o),
(635,-22,cs),
(977,-22,o),
(1200,176,o),
(1213,473,c),
(878,473,l)
);
},
{
closed = 1;
nodes = (
(485,-133,l),
(530,-137,o),
(564,-144,o),
(585,-153,cs),
(605,-165,o),
(614,-180,o),
(614,-202,cs),
(614,-252,o),
(585,-277,o),
(528,-277,c),
(535,-458,l),
(762,-458,o),
(895,-370,o),
(895,-219,cs),
(895,-126,o),
(848,-69,o),
(751,-52,c),
(760,7,l),
(515,7,l)
);
}
);
width = 1255;
}
);
note = uni00C7;
unicode = 199;
},
{
glyphname = D;
kernRight = D;
lastChange = "2024-03-30 11:28:57 +0000";
layers = (
{
layerId = m01;
shapes = (
{
closed = 1;
nodes = (
(742,0,o),
(952,123,o),
(1061,326,cs),
(1115,427,o),
(1141,542,o),
(1141,671,cs),
(1141,737,ls),
(1137,1115,o),
(881,1404,o),
(491,1404,cs),
(40,1404,l),
(40,0,l),
(502,0,l)
);
},
{
closed = 1;
nodes = (
(691,1140,o),
(797,1002,o),
(797,733,cs),
(797,671,ls),
(797,398,o),
(690,260,o),
(495,260,cs),
(378,260,l),
(378,1140,l),
(491,1140,l)
);
}
);
userData = {
assembly = "SVTCA[0]	/* SetFreedomAndProjectionVectorToAxis */
PUSHB[ ]	/* 1 value pushed */
0
RCVT[ ]	/* ReadCVT */
IF[ ]	/* If */
PUSHB[ ]	/* 1 value pushed */
1
MDAP[1]	/* MoveDirectAbsPt */
ELSE[ ]	/* Else */
PUSHB[ ]	/* 2 values pushed */
1 31
MIAP[0]	/* MoveIndirectAbsPt */
EIF[ ]	/* EndIf */
PUSHB[ ]	/* 1 value pushed */
0
RCVT[ ]	/* ReadCVT */
IF[ ]	/* If */
PUSHB[ ]	/* 1 value pushed */
0
MDAP[1]	/* MoveDirectAbsPt */
ELSE[ ]	/* Else */
PUSHB[ ]	/* 2 values pushed */
0 15
MIAP[0]	/* MoveIndirectAbsPt */
EIF[ ]	/* EndIf */
PUSHB[ ]	/* 1 value pushed */
1
SRP0[ ]	/* SetRefPoint0 */
PUSHB[ ]	/* 2 values pushed */
12 1
PUSHB[ ]	/* 1 value pushed */
10
CALL[ ]	/* CallFunction */
IF[ ]	/* If */
POP[ ]	/* PopTopStack */
MDRP[11000]	/* MoveDirectRelPt */
ELSE[ ]	/* Else */
MIRP[10100]	/* MoveIndirectRelPt */
EIF[ ]	/* EndIf */
PUSHB[ ]	/* 1 value pushed */
0
SRP0[ ]	/* SetRefPoint0 */
PUSHB[ ]	/* 2 values pushed */
13 1
PUSHB[ ]	/* 1 value pushed */
10
CALL[ ]	/* CallFunction */
IF[ ]	/* If */
POP[ ]	/* PopTopStack */
MDRP[11000]	/* MoveDirectRelPt */
ELSE[ ]	/* Else */
MIRP[10100]	/* MoveIndirectRelPt */
EIF[ ]	/* EndIf */
IUP[0]	/* InterpolateUntPts */
IUP[1]	/* InterpolateUntPts */";
};
width = 1181;
}
);
note = uni0044;
unicode = 68;
},
{
glyphname = Eth;
kernRight = D;
lastChange = "2024-03-30 11:28:57 +0000";
layers = (
{
layerId = m01;
shapes = (
{
closed = 1;
nodes = (
(907,0,o),
(1114,123,o),
(1224,326,cs),
(1279,427,o),
(1307,542,o),
(1307,671,cs),
(1307,737,ls),
(1302,1128,o),
(1034,1404,o),
(655,1404,cs),
(204,1404,l),
(204,795,l),
(40,795,l),
(40,611,l),
(204,611,l),
(204,0,l),
(664,0,l)
);
},
{
closed = 1;
nodes = (
(543,795,l),
(543,1140,l),
(655,1140,ls),
(853,1140,o),
(960,1002,o),
(960,733,cs),
(960,671,ls),
(960,398,o),
(852,260,o),
(660,260,cs),
(543,260,l),
(543,611,l),
(743,611,l),
(743,795,l)
);
}
);
userData = {
assembly = "SVTCA[0]	/* SetFreedomAndProjectionVectorToAxis */
PUSHB[ ]	/* 1 value pushed */
0
RCVT[ ]	/* ReadCVT */
IF[ ]	/* If */
PUSHB[ ]	/* 1 value pushed */
5
MDAP[1]	/* MoveDirectAbsPt */
ELSE[ ]	/* Else */
PUSHB[ ]	/* 2 values pushed */
5 31
MIAP[0]	/* MoveIndirectAbsPt */
EIF[ ]	/* EndIf */
PUSHB[ ]	/* 1 value pushed */
0
RCVT[ ]	/* ReadCVT */
IF[ ]	/* If */
PUSHB[ ]	/* 1 value pushed */
0
MDAP[1]	/* MoveDirectAbsPt */
ELSE[ ]	/* Else */
PUSHB[ ]	/* 2 values pushed */
0 15
MIAP[0]	/* MoveIndirectAbsPt */
EIF[ ]	/* EndIf */
PUSHB[ ]	/* 3 values pushed */
4 0 5
SRP1[ ]	/* SetRefPoint1 */
SRP2[ ]	/* SetRefPoint2 */
IP[ ]	/* InterpolatePts */
PUSHB[ ]	/* 1 value pushed */
4
MDAP[1]	/* MoveDirectAbsPt */
PUSHB[ ]	/* 5 values pushed */
15 4 31 4 2
DELTAP2[ ]	/* DeltaExceptionP2 */
PUSHB[ ]	/* 3 values pushed */
111 4 1
DELTAP2[ ]	/* DeltaExceptionP2 */
PUSHB[ ]	/* 3 values pushed */
15 4 1
DELTAP3[ ]	/* DeltaExceptionP3 */
PUSHB[ ]	/* 3 values pushed */
63 4 1
DELTAP2[ ]	/* DeltaExceptionP2 */
PUSHB[ ]	/* 3 values pushed */
159 4 1
DELTAP1[ ]	/* DeltaExceptionP1 */
PUSHB[ ]	/* 3 values pushed */
127 4 1
DELTAP3[ ]	/* DeltaExceptionP3 */
PUSHB[ ]	/* 2 values pushed */
1 12
PUSHB[ ]	/* 1 value pushed */
10
CALL[ ]	/* CallFunction */
IF[ ]	/* If */
POP[ ]	/* PopTopStack */
MDRP[11000]	/* MoveDirectRelPt */
ELSE[ ]	/* Else */
MIRP[10100]	/* MoveIndirectRelPt */
EIF[ ]	/* EndIf */
PUSHB[ ]	/* 1 value pushed */
17
MDRP[10000]	/* MoveDirectRelPt */
PUSHB[ ]	/* 1 value pushed */
0
SRP0[ ]	/* SetRefPoint0 */
PUSHB[ ]	/* 2 values pushed */
18 1
PUSHB[ ]	/* 1 value pushed */
10
CALL[ ]	/* CallFunction */
IF[ ]	/* If */
POP[ ]	/* PopTopStack */
MDRP[11000]	/* MoveDirectRelPt */
ELSE[ ]	/* Else */
MIRP[10100]	/* MoveIndirectRelPt */
EIF[ ]	/* EndIf */
PUSHB[ ]	/* 1 value pushed */
5
SRP0[ ]	/* SetRefPoint0 */
PUSHB[ ]	/* 2 values pushed */
27 1
PUSHB[ ]	/* 1 value pushed */
10
CALL[ ]	/* CallFunction */
IF[ ]	/* If */
POP[ ]	/* PopTopStack */
MDRP[11000]	/* MoveDirectRelPt */
ELSE[ ]	/* Else */
MIRP[10100]	/* MoveIndirectRelPt */
EIF[ ]	/* EndIf */
PUSHB[ ]	/* 1 value pushed */
4
SRP0[ ]	/* SetRefPoint0 */
PUSHB[ ]	/* 1 value pushed */
28
MDRP[10000]	/* MoveDirectRelPt */
IUP[0]	/* InterpolateUntPts */
IUP[1]	/* InterpolateUntPts */";
};
width = 1347;
}
);
note = uni00D0;
unicode = 208;
},
{
glyphname = E;
kernRight = E;
lastChange = "2024-03-30 11:28:57 +0000";
layers = (
{
layerId = m01;
shapes = (
{
closed = 1;
nodes = (
(378,845,l),
(378,1140,l),
(1007,1140,l),
(1007,1404,l),
(40,1404,l),
(40,0,l),
(1004,0,l),
(1004,260,l),
(378,260,l),
(378,595,l),
(909,595,l),
(909,845,l)
);
}
);
userData = {
assembly = "SVTCA[0]	/* SetFreedomAndProjectionVectorToAxis */
PUSHB[ ]	/* 1 value pushed */
0
RCVT[ ]	/* ReadCVT */
IF[ ]	/* If */
PUSHB[ ]	/* 1 value pushed */
6
MDAP[1]	/* MoveDirectAbsPt */
ELSE[ ]	/* Else */
PUSHB[ ]	/* 2 values pushed */
6 31
MIAP[0]	/* MoveIndirectAbsPt */
EIF[ ]	/* EndIf */
PUSHB[ ]	/* 1 value pushed */
0
RCVT[ ]	/* ReadCVT */
IF[ ]	/* If */
PUSHB[ ]	/* 1 value pushed */
4
MDAP[1]	/* MoveDirectAbsPt */
ELSE[ ]	/* Else */
PUSHB[ ]	/* 2 values pushed */
4 15
MIAP[0]	/* MoveIndirectAbsPt */
EIF[ ]	/* EndIf */
PUSHB[ ]	/* 3 values pushed */
11 4 6
SRP1[ ]	/* SetRefPoint1 */
SRP2[ ]	/* SetRefPoint2 */
IP[ ]	/* InterpolatePts */
PUSHB[ ]	/* 1 value pushed */
11
MDAP[1]	/* MoveDirectAbsPt */
PUSHB[ ]	/* 3 values pushed */
79 11 1
DELTAP3[ ]	/* DeltaExceptionP3 */
PUSHB[ ]	/* 3 values pushed */
191 11 1
DELTAP1[ ]	/* DeltaExceptionP1 */
PUSHB[ ]	/* 2 values pushed */
0 1
PUSHB[ ]	/* 1 value pushed */
10
CALL[ ]	/* CallFunction */
IF[ ]	/* If */
POP[ ]	/* PopTopStack */
MDRP[11000]	/* MoveDirectRelPt */
ELSE[ ]	/* Else */
MIRP[10100]	/* MoveIndirectRelPt */
EIF[ ]	/* EndIf */
PUSHB[ ]	/* 1 value pushed */
4
SRP0[ ]	/* SetRefPoint0 */
PUSHB[ ]	/* 2 values pushed */
2 1
PUSHB[ ]	/* 1 value pushed */
10
CALL[ ]	/* CallFunction */
IF[ ]	/* If */
POP[ ]	/* PopTopStack */
MDRP[11000]	/* MoveDirectRelPt */
ELSE[ ]	/* Else */
MIRP[10100]	/* MoveIndirectRelPt */
EIF[ ]	/* EndIf */
PUSHB[ ]	/* 1 value pushed */
6
SRP0[ ]	/* SetRefPoint0 */
PUSHB[ ]	/* 2 values pushed */
8 1
PUSHB[ ]	/* 1 value pushed */
10
CALL[ ]	/* CallFunction */
IF[ ]	/* If */
POP[ ]	/* PopTopStack */
MDRP[11000]	/* MoveDirectRelPt */
ELSE[ ]	/* Else */
MIRP[10100]	/* MoveIndirectRelPt */
EIF[ ]	/* EndIf */
IUP[0]	/* InterpolateUntPts */
IUP[1]	/* InterpolateUntPts */";
};
width = 1047;
}
);
note = uni0045;
unicode = 69;
},
{
glyphname = Eacute;
kernRight = E;
lastChange = "2024-03-30 11:28:57 +0000";
layers = (
{
layerId = m01;
shapes = (
{
closed = 1;
nodes = (
(378,845,l),
(378,1140,l),
(1007,1140,l),
(1007,1404,l),
(40,1404,l),
(40,0,l),
(1004,0,l),
(1004,260,l),
(378,260,l),
(378,595,l),
(909,595,l),
(909,845,l)
);
},
{
closed = 1;
nodes = (
(668,1475,l),
(937,1778,l),
(595,1778,l),
(405,1475,l)
);
}
);
width = 1047;
}
);
note = uni00C9;
unicode = 201;
},
{
glyphname = Ecircumflex;
kernRight = E;
lastChange = "2024-03-30 11:28:57 +0000";
layers = (
{
layerId = m01;
shapes = (
{
closed = 1;
nodes = (
(378,845,l),
(378,1140,l),
(1007,1140,l),
(1007,1404,l),
(40,1404,l),
(40,0,l),
(1004,0,l),
(1004,260,l),
(378,260,l),
(378,595,l),
(909,595,l),
(909,845,l)
);
},
{
closed = 1;
nodes = (
(459,1778,l),
(150,1511,l),
(150,1494,l),
(401,1494,l),
(554,1625,l),
(707,1494,l),
(962,1494,l),
(962,1507,l),
(648,1778,l),
(648,1778,l)
);
}
);
width = 1047;
}
);
note = uni00CA;
unicode = 202;
},
{
glyphname = Edieresis;
kernRight = E;
lastChange = "2024-03-30 11:28:57 +0000";
layers = (
{
layerId = m01;
shapes = (
{
closed = 1;
nodes = (
(378,845,l),
(378,1140,l),
(1007,1140,l),
(1007,1404,l),
(40,1404,l),
(40,0,l),
(1004,0,l),
(1004,260,l),
(378,260,l),
(378,595,l),
(909,595,l),
(909,845,l)
);
},
{
closed = 1;
nodes = (
(157,1544,o),
(219,1485,o),
(303,1485,cs),
(386,1485,o),
(448,1543,o),
(448,1614,cs),
(448,1685,o),
(386,1739,o),
(303,1739,cs),
(219,1739,o),
(157,1685,o),
(157,1613,cs)
);
},
{
closed = 1;
nodes = (
(657,1544,o),
(718,1485,o),
(801,1485,cs),
(886,1485,o),
(945,1543,o),
(945,1614,cs),
(945,1685,o),
(886,1739,o),
(801,1739,cs),
(718,1739,o),
(657,1685,o),
(657,1613,cs)
);
}
);
width = 1047;
}
);
note = uni00CB;
unicode = 203;
},
{
glyphname = Egrave;
kernRight = E;
lastChange = "2024-03-30 11:28:57 +0000";
layers = (
{
layerId = m01;
shapes = (
{
closed = 1;
nodes = (
(378,845,l),
(378,1140,l),
(1007,1140,l),
(1007,1404,l),
(40,1404,l),
(40,0,l),
(1004,0,l),
(1004,260,l),
(378,260,l),
(378,595,l),
(909,595,l),
(909,845,l),
(909,845,l)
);
},
{
closed = 1;
nodes = (
(173,1778,l),
(444,1475,l),
(709,1475,l),
(518,1778,l),
(518,1778,l)
);
}
);
width = 1047;
}
);
note = uni00C8;
unicode = 200;
},
{
glyphname = F;
lastChange = "2024-03-30 11:28:57 +0000";
layers = (
{
layerId = m01;
shapes = (
{
closed = 1;
nodes = (
(378,817,l),
(378,1140,l),
(978,1140,l),
(978,1404,l),
(40,1404,l),
(40,0,l),
(378,0,l),
(378,559,l),
(924,559,l),
(924,817,l)
);
}
);
userData = {
assembly = "SVTCA[0]	/* SetFreedomAndProjectionVectorToAxis */
PUSHB[ ]	/* 1 value pushed */
0
RCVT[ ]	/* ReadCVT */
IF[ ]	/* If */
PUSHB[ ]	/* 1 value pushed */
4
MDAP[1]	/* MoveDirectAbsPt */
ELSE[ ]	/* Else */
PUSHB[ ]	/* 2 values pushed */
4 31
MIAP[0]	/* MoveIndirectAbsPt */
EIF[ ]	/* EndIf */
PUSHB[ ]	/* 1 value pushed */
0
RCVT[ ]	/* ReadCVT */
IF[ ]	/* If */
PUSHB[ ]	/* 1 value pushed */
2
MDAP[1]	/* MoveDirectAbsPt */
ELSE[ ]	/* Else */
PUSHB[ ]	/* 2 values pushed */
2 15
MIAP[0]	/* MoveIndirectAbsPt */
EIF[ ]	/* EndIf */
PUSHB[ ]	/* 3 values pushed */
9 2 4
SRP1[ ]	/* SetRefPoint1 */
SRP2[ ]	/* SetRefPoint2 */
IP[ ]	/* InterpolatePts */
PUSHB[ ]	/* 1 value pushed */
9
MDAP[1]	/* MoveDirectAbsPt */
PUSHB[ ]	/* 2 values pushed */
0 1
PUSHB[ ]	/* 1 value pushed */
10
CALL[ ]	/* CallFunction */
IF[ ]	/* If */
POP[ ]	/* PopTopStack */
MDRP[11000]	/* MoveDirectRelPt */
ELSE[ ]	/* Else */
MIRP[10100]	/* MoveIndirectRelPt */
EIF[ ]	/* EndIf */
PUSHB[ ]	/* 1 value pushed */
4
SRP0[ ]	/* SetRefPoint0 */
PUSHB[ ]	/* 2 values pushed */
6 1
PUSHB[ ]	/* 1 value pushed */
10
CALL[ ]	/* CallFunction */
IF[ ]	/* If */
POP[ ]	/* PopTopStack */
MDRP[11000]	/* MoveDirectRelPt */
ELSE[ ]	/* Else */
MIRP[10100]	/* MoveIndirectRelPt */
EIF[ ]	/* EndIf */
IUP[0]	/* InterpolateUntPts */
IUP[1]	/* InterpolateUntPts */";
};
width = 1018;
}
);
note = uni0046;
unicode = 70;
},
{
glyphname = G;
kernLeft = C;
lastChange = "2024-03-30 11:28:57 +0000";
layers = (
{
layerId = m01;
shapes = (
{
closed = 1;
nodes = (
(641,723,l),
(641,491,l),
(876,491,l),
(876,273,l),
(832,233,o),
(767,215,o),
(680,215,cs),
(475,215,o),
(384,355,o),
(384,638,cs),
(384,721,ls),
(384,986,o),
(479,1137,o),
(650,1137,cs),
(789,1137,o),
(862,1076,o),
(887,917,c),
(1213,917,l),
(1184,1235,o),
(985,1397,o),
(637,1397,cs),
(272,1397,o),
(40,1131,o),
(40,712,cs),
(40,593,ls),
(55,193,o),
(290,-45,o),
(657,-45,cs),
(898,-45,o),
(1111,32,o),
(1213,149,c),
(1213,723,l)
);
}
);
userData = {
assembly = "PUSHB[ ]	/* 3 values pushed */
11 32 33
SRP1[ ]	/* SetRefPoint1 */
SRP2[ ]	/* SetRefPoint2 */
IP[ ]	/* InterpolatePts */
SVTCA[0]	/* SetFreedomAndProjectionVectorToAxis */
PUSHB[ ]	/* 1 value pushed */
0
RCVT[ ]	/* ReadCVT */
IF[ ]	/* If */
PUSHB[ ]	/* 1 value pushed */
11
MDAP[1]	/* MoveDirectAbsPt */
ELSE[ ]	/* Else */
PUSHB[ ]	/* 2 values pushed */
11 31
MIAP[0]	/* MoveIndirectAbsPt */
EIF[ ]	/* EndIf */
PUSHB[ ]	/* 1 value pushed */
0
RCVT[ ]	/* ReadCVT */
IF[ ]	/* If */
PUSHB[ ]	/* 1 value pushed */
3
MDAP[1]	/* MoveDirectAbsPt */
ELSE[ ]	/* Else */
PUSHB[ ]	/* 2 values pushed */
3 15
MIAP[0]	/* MoveIndirectAbsPt */
EIF[ ]	/* EndIf */
PUSHB[ ]	/* 3 values pushed */
15 11 3
SRP1[ ]	/* SetRefPoint1 */
SRP2[ ]	/* SetRefPoint2 */
IP[ ]	/* InterpolatePts */
PUSHB[ ]	/* 1 value pushed */
11
SRP0[ ]	/* SetRefPoint0 */
PUSHB[ ]	/* 2 values pushed */
18 11
PUSHB[ ]	/* 1 value pushed */
10
CALL[ ]	/* CallFunction */
IF[ ]	/* If */
POP[ ]	/* PopTopStack */
MDRP[11000]	/* MoveDirectRelPt */
ELSE[ ]	/* Else */
MIRP[10100]	/* MoveIndirectRelPt */
EIF[ ]	/* EndIf */
PUSHB[ ]	/* 1 value pushed */
3
SRP0[ ]	/* SetRefPoint0 */
PUSHB[ ]	/* 2 values pushed */
25 11
PUSHB[ ]	/* 1 value pushed */
10
CALL[ ]	/* CallFunction */
IF[ ]	/* If */
POP[ ]	/* PopTopStack */
MDRP[11000]	/* MoveDirectRelPt */
ELSE[ ]	/* Else */
MIRP[10100]	/* MoveIndirectRelPt */
EIF[ ]	/* EndIf */
PUSHB[ ]	/* 3 values pushed */
30 11 3
SRP1[ ]	/* SetRefPoint1 */
SRP2[ ]	/* SetRefPoint2 */
IP[ ]	/* InterpolatePts */
PUSHB[ ]	/* 1 value pushed */
30
MDAP[1]	/* MoveDirectAbsPt */
PUSHB[ ]	/* 3 values pushed */
191 30 1
DELTAP1[ ]	/* DeltaExceptionP1 */
PUSHB[ ]	/* 2 values pushed */
29 9
PUSHB[ ]	/* 1 value pushed */
10
CALL[ ]	/* CallFunction */
IF[ ]	/* If */
POP[ ]	/* PopTopStack */
MDRP[11000]	/* MoveDirectRelPt */
ELSE[ ]	/* Else */
MIRP[10100]	/* MoveIndirectRelPt */
EIF[ ]	/* EndIf */
IUP[0]	/* InterpolateUntPts */
IUP[1]	/* InterpolateUntPts */";
};
width = 1253;
}
);
note = uni0047;
unicode = 71;
},
{
glyphname = H;
kernRight = H;
lastChange = "2024-03-30 11:28:57 +0000";
layers = (
{
layerId = m01;
shapes = (
{
closed = 1;
nodes = (
(876,1404,l),
(876,845,l),
(377,845,l),
(377,1404,l),
(40,1404,l),
(40,0,l),
(377,0,l),
(377,585,l),
(876,585,l),
(876,0,l),
(1211,0,l),
(1211,1404,l)
);
}
);
userData = {
assembly = "SVTCA[0]	/* SetFreedomAndProjectionVectorToAxis */
PUSHB[ ]	/* 1 value pushed */
0
RCVT[ ]	/* ReadCVT */
IF[ ]	/* If */
PUSHB[ ]	/* 1 value pushed */
6
MDAP[1]	/* MoveDirectAbsPt */
ELSE[ ]	/* Else */
PUSHB[ ]	/* 2 values pushed */
6 31
MIAP[0]	/* MoveIndirectAbsPt */
EIF[ ]	/* EndIf */
PUSHB[ ]	/* 1 value pushed */
0
RCVT[ ]	/* ReadCVT */
IF[ ]	/* If */
PUSHB[ ]	/* 1 value pushed */
10
MDAP[1]	/* MoveDirectAbsPt */
ELSE[ ]	/* Else */
PUSHB[ ]	/* 2 values pushed */
10 31
MIAP[0]	/* MoveIndirectAbsPt */
EIF[ ]	/* EndIf */
PUSHB[ ]	/* 1 value pushed */
0
RCVT[ ]	/* ReadCVT */
IF[ ]	/* If */
PUSHB[ ]	/* 1 value pushed */
0
MDAP[1]	/* MoveDirectAbsPt */
ELSE[ ]	/* Else */
PUSHB[ ]	/* 2 values pushed */
0 15
MIAP[0]	/* MoveIndirectAbsPt */
EIF[ ]	/* EndIf */
PUSHB[ ]	/* 1 value pushed */
0
RCVT[ ]	/* ReadCVT */
IF[ ]	/* If */
PUSHB[ ]	/* 1 value pushed */
4
MDAP[1]	/* MoveDirectAbsPt */
ELSE[ ]	/* Else */
PUSHB[ ]	/* 2 values pushed */
4 15
MIAP[0]	/* MoveIndirectAbsPt */
EIF[ ]	/* EndIf */
PUSHB[ ]	/* 3 values pushed */
9 10 0
SRP1[ ]	/* SetRefPoint1 */
SRP2[ ]	/* SetRefPoint2 */
IP[ ]	/* InterpolatePts */
PUSHB[ ]	/* 1 value pushed */
9
MDAP[1]	/* MoveDirectAbsPt */
PUSHB[ ]	/* 3 values pushed */
191 9 1
DELTAP1[ ]	/* DeltaExceptionP1 */
PUSHB[ ]	/* 2 values pushed */
2 1
PUSHB[ ]	/* 1 value pushed */
10
CALL[ ]	/* CallFunction */
IF[ ]	/* If */
POP[ ]	/* PopTopStack */
MDRP[11000]	/* MoveDirectRelPt */
ELSE[ ]	/* Else */
MIRP[10100]	/* MoveIndirectRelPt */
EIF[ ]	/* EndIf */
IUP[0]	/* InterpolateUntPts */
IUP[1]	/* InterpolateUntPts */";
};
width = 1251;
}
);
note = uni0048;
unicode = 72;
},
{
glyphname = I;
kernRight = H;
lastChange = "2024-03-30 11:28:57 +0000";
layers = (
{
layerId = m01;
shapes = (
{
closed = 1;
nodes = (
(40,1404,l),
(40,0,l),
(377,0,l),
(377,1404,l)
);
}
);
userData = {
assembly = "SVTCA[0]	/* SetFreedomAndProjectionVectorToAxis */
PUSHB[ ]	/* 1 value pushed */
0
RCVT[ ]	/* ReadCVT */
IF[ ]	/* If */
PUSHB[ ]	/* 1 value pushed */
2
MDAP[1]	/* MoveDirectAbsPt */
ELSE[ ]	/* Else */
PUSHB[ ]	/* 2 values pushed */
2 31
MIAP[0]	/* MoveIndirectAbsPt */
EIF[ ]	/* EndIf */
PUSHB[ ]	/* 1 value pushed */
0
RCVT[ ]	/* ReadCVT */
IF[ ]	/* If */
PUSHB[ ]	/* 1 value pushed */
0
MDAP[1]	/* MoveDirectAbsPt */
ELSE[ ]	/* Else */
PUSHB[ ]	/* 2 values pushed */
0 15
MIAP[0]	/* MoveIndirectAbsPt */
EIF[ ]	/* EndIf */
IUP[0]	/* InterpolateUntPts */
IUP[1]	/* InterpolateUntPts */";
};
width = 417;
}
);
note = uni0049;
unicode = 73;
},
{
glyphname = Iacute;
kernRight = H;
lastChange = "2024-03-30 11:28:57 +0000";
layers = (
{
layerId = m01;
shapes = (
{
closed = 1;
nodes = (
(40,1404,l),
(40,0,l),
(378,0,l),
(378,1404,l)
);
},
{
closed = 1;
nodes = (
(324,1475,l),
(590,1778,l),
(249,1778,l),
(60,1475,l)
);
}
);
width = 630;
}
);
note = uni00CD;
unicode = 205;
},
{
glyphname = Icircumflex;
kernRight = H;
lastChange = "2024-03-30 11:28:57 +0000";
layers = (
{
layerId = m01;
shapes = (
{
closed = 1;
nodes = (
(274,1404,l),
(274,0,l),
(612,0,l),
(612,1404,l)
);
},
{
closed = 1;
nodes = (
(351,1778,l),
(40,1511,l),
(40,1494,l),
(290,1494,l),
(444,1625,l),
(597,1494,l),
(853,1494,l),
(853,1507,l),
(535,1778,l)
);
}
);
width = 893;
}
);
note = uni00CE;
unicode = 206;
},
{
glyphname = Idieresis;
kernRight = H;
lastChange = "2024-03-30 11:28:57 +0000";
layers = (
{
layerId = m01;
shapes = (
{
closed = 1;
nodes = (
(268,1404,l),
(268,0,l),
(605,0,l),
(605,1404,l)
);
},
{
closed = 1;
nodes = (
(40,1544,o),
(103,1485,o),
(185,1485,cs),
(268,1485,o),
(330,1543,o),
(330,1614,cs),
(330,1685,o),
(268,1739,o),
(185,1739,cs),
(103,1739,o),
(40,1685,o),
(40,1613,cs)
);
},
{
closed = 1;
nodes = (
(541,1544,o),
(603,1485,o),
(686,1485,cs),
(768,1485,o),
(831,1543,o),
(831,1614,cs),
(831,1685,o),
(768,1739,o),
(686,1739,cs),
(603,1739,o),
(541,1685,o),
(541,1613,cs)
);
}
);
width = 871;
}
);
note = uni00CF;
unicode = 207;
},
{
glyphname = Igrave;
kernRight = H;
lastChange = "2024-03-30 11:28:57 +0000";
layers = (
{
layerId = m01;
shapes = (
{
closed = 1;
nodes = (
(251,1404,l),
(251,0,l),
(590,0,l),
(590,1404,l)
);
},
{
closed = 1;
nodes = (
(40,1778,l),
(313,1475,l),
(576,1475,l),
(384,1778,l)
);
}
);
width = 630;
}
);
note = uni00CC;
unicode = 204;
},
{
glyphname = J;
kernLeft = J;
kernRight = J;
lastChange = "2024-03-30 11:28:57 +0000";
layers = (
{
layerId = m01;
shapes = (
{
closed = 1;
nodes = (
(668,288,o),
(615,215,o),
(522,215,cs),
(420,215,o),
(380,266,o),
(380,398,c),
(40,398,l),
(40,113,o),
(218,-45,o),
(522,-45,cs),
(805,-45,o),
(1007,141,o),
(1007,415,cs),
(1007,1376,l),
(668,1376,l),
(668,415,l)
);
}
);
userData = {
assembly = "PUSHB[ ]	/* 3 values pushed */
6 17 18
SRP1[ ]	/* SetRefPoint1 */
SRP2[ ]	/* SetRefPoint2 */
IP[ ]	/* InterpolatePts */
SVTCA[0]	/* SetFreedomAndProjectionVectorToAxis */
PUSHB[ ]	/* 1 value pushed */
0
RCVT[ ]	/* ReadCVT */
IF[ ]	/* If */
PUSHB[ ]	/* 1 value pushed */
0
MDAP[1]	/* MoveDirectAbsPt */
ELSE[ ]	/* Else */
PUSHB[ ]	/* 2 values pushed */
0 31
MIAP[0]	/* MoveIndirectAbsPt */
EIF[ ]	/* EndIf */
PUSHB[ ]	/* 1 value pushed */
0
RCVT[ ]	/* ReadCVT */
IF[ ]	/* If */
PUSHB[ ]	/* 1 value pushed */
6
MDAP[1]	/* MoveDirectAbsPt */
ELSE[ ]	/* Else */
PUSHB[ ]	/* 2 values pushed */
6 15
MIAP[0]	/* MoveIndirectAbsPt */
EIF[ ]	/* EndIf */
PUSHB[ ]	/* 2 values pushed */
13 1
PUSHB[ ]	/* 1 value pushed */
10
CALL[ ]	/* CallFunction */
IF[ ]	/* If */
POP[ ]	/* PopTopStack */
MDRP[11000]	/* MoveDirectRelPt */
ELSE[ ]	/* Else */
MIRP[10100]	/* MoveIndirectRelPt */
EIF[ ]	/* EndIf */
IUP[0]	/* InterpolateUntPts */
IUP[1]	/* InterpolateUntPts */";
};
width = 1047;
}
);
note = uni004A;
unicode = 74;
},
{
glyphname = K;
kernRight = K;
lastChange = "2024-03-30 11:28:57 +0000";
layers = (
{
layerId = m01;
shapes = (
{
closed = 1;
nodes = (
(1215,0,l),
(740,782,l),
(1215,1404,l),
(796,1404,l),
(495,961,l),
(377,784,l),
(377,1404,l),
(40,1404,l),
(40,0,l),
(377,0,l),
(377,370,l),
(517,520,l),
(814,0,l)
);
}
);
userData = {
assembly = "PUSHB[ ]	/* 3 values pushed */
0 13 14
SRP1[ ]	/* SetRefPoint1 */
SRP2[ ]	/* SetRefPoint2 */
IP[ ]	/* InterpolatePts */
SVTCA[0]	/* SetFreedomAndProjectionVectorToAxis */
PUSHB[ ]	/* 1 value pushed */
0
RCVT[ ]	/* ReadCVT */
IF[ ]	/* If */
PUSHB[ ]	/* 1 value pushed */
4
MDAP[1]	/* MoveDirectAbsPt */
ELSE[ ]	/* Else */
PUSHB[ ]	/* 2 values pushed */
4 31
MIAP[0]	/* MoveIndirectAbsPt */
EIF[ ]	/* EndIf */
PUSHB[ ]	/* 1 value pushed */
0
RCVT[ ]	/* ReadCVT */
IF[ ]	/* If */
PUSHB[ ]	/* 1 value pushed */
8
MDAP[1]	/* MoveDirectAbsPt */
ELSE[ ]	/* Else */
PUSHB[ ]	/* 2 values pushed */
8 31
MIAP[0]	/* MoveIndirectAbsPt */
EIF[ ]	/* EndIf */
PUSHB[ ]	/* 1 value pushed */
0
RCVT[ ]	/* ReadCVT */
IF[ ]	/* If */
PUSHB[ ]	/* 1 value pushed */
2
MDAP[1]	/* MoveDirectAbsPt */
ELSE[ ]	/* Else */
PUSHB[ ]	/* 2 values pushed */
2 15
MIAP[0]	/* MoveIndirectAbsPt */
EIF[ ]	/* EndIf */
PUSHB[ ]	/* 1 value pushed */
0
RCVT[ ]	/* ReadCVT */
IF[ ]	/* If */
PUSHB[ ]	/* 1 value pushed */
11
MDAP[1]	/* MoveDirectAbsPt */
ELSE[ ]	/* Else */
PUSHB[ ]	/* 2 values pushed */
11 15
MIAP[0]	/* MoveIndirectAbsPt */
EIF[ ]	/* EndIf */
PUSHB[ ]	/* 3 values pushed */
0 4 2
SRP1[ ]	/* SetRefPoint1 */
SRP2[ ]	/* SetRefPoint2 */
IP[ ]	/* InterpolatePts */
PUSHB[ ]	/* 3 values pushed */
6 4 2
SRP1[ ]	/* SetRefPoint1 */
SRP2[ ]	/* SetRefPoint2 */
IP[ ]	/* InterpolatePts */
IUP[0]	/* InterpolateUntPts */
IUP[1]	/* InterpolateUntPts */";
};
width = 1255;
}
);
note = uni004B;
unicode = 75;
},
{
glyphname = L;
kernRight = L;
lastChange = "2024-03-30 11:28:57 +0000";
layers = (
{
layerId = m01;
shapes = (
{
closed = 1;
nodes = (
(40,1404,l),
(40,0,l),
(966,0,l),
(966,260,l),
(378,260,l),
(378,1404,l)
);
}
);
userData = {
assembly = "SVTCA[0]	/* SetFreedomAndProjectionVectorToAxis */
PUSHB[ ]	/* 1 value pushed */
0
RCVT[ ]	/* ReadCVT */
IF[ ]	/* If */
PUSHB[ ]	/* 1 value pushed */
4
MDAP[1]	/* MoveDirectAbsPt */
ELSE[ ]	/* Else */
PUSHB[ ]	/* 2 values pushed */
4 31
MIAP[0]	/* MoveIndirectAbsPt */
EIF[ ]	/* EndIf */
PUSHB[ ]	/* 1 value pushed */
0
RCVT[ ]	/* ReadCVT */
IF[ ]	/* If */
PUSHB[ ]	/* 1 value pushed */
2
MDAP[1]	/* MoveDirectAbsPt */
ELSE[ ]	/* Else */
PUSHB[ ]	/* 2 values pushed */
2 15
MIAP[0]	/* MoveIndirectAbsPt */
EIF[ ]	/* EndIf */
PUSHB[ ]	/* 2 values pushed */
0 1
PUSHB[ ]	/* 1 value pushed */
10
CALL[ ]	/* CallFunction */
IF[ ]	/* If */
POP[ ]	/* PopTopStack */
MDRP[11000]	/* MoveDirectRelPt */
ELSE[ ]	/* Else */
MIRP[10100]	/* MoveIndirectRelPt */
EIF[ ]	/* EndIf */
IUP[0]	/* InterpolateUntPts */
IUP[1]	/* InterpolateUntPts */";
};
width = 1006;
}
);
note = uni004C;
unicode = 76;
},
{
glyphname = Lslash;
lastChange = "2024-03-30 11:28:57 +0000";
layers = (
{
layerId = m01;
shapes = (
{
closed = 1;
nodes = (
(171,1404,l),
(171,787,l),
(40,752,l),
(40,579,l),
(171,615,l),
(171,0,l),
(1096,0,l),
(1096,260,l),
(509,260,l),
(509,710,l),
(696,759,l),
(696,933,l),
(509,881,l),
(509,1404,l)
);
}
);
userData = {
assembly = "SVTCA[0]	/* SetFreedomAndProjectionVectorToAxis */
PUSHB[ ]	/* 1 value pushed */
0
RCVT[ ]	/* ReadCVT */
IF[ ]	/* If */
PUSHB[ ]	/* 1 value pushed */
12
MDAP[1]	/* MoveDirectAbsPt */
ELSE[ ]	/* Else */
PUSHB[ ]	/* 2 values pushed */
12 31
MIAP[0]	/* MoveIndirectAbsPt */
EIF[ ]	/* EndIf */
PUSHB[ ]	/* 1 value pushed */
0
RCVT[ ]	/* ReadCVT */
IF[ ]	/* If */
PUSHB[ ]	/* 1 value pushed */
6
MDAP[1]	/* MoveDirectAbsPt */
ELSE[ ]	/* Else */
PUSHB[ ]	/* 2 values pushed */
6 15
MIAP[0]	/* MoveIndirectAbsPt */
EIF[ ]	/* EndIf */
PUSHB[ ]	/* 3 values pushed */
1 12 6
SRP1[ ]	/* SetRefPoint1 */
SRP2[ ]	/* SetRefPoint2 */
IP[ ]	/* InterpolatePts */
PUSHB[ ]	/* 1 value pushed */
1
MDAP[1]	/* MoveDirectAbsPt */
PUSHB[ ]	/* 1 value pushed */
0
MDRP[10000]	/* MoveDirectRelPt */
PUSHB[ ]	/* 1 value pushed */
1
SRP0[ ]	/* SetRefPoint0 */
PUSHB[ ]	/* 2 values pushed */
2 2
PUSHB[ ]	/* 1 value pushed */
10
CALL[ ]	/* CallFunction */
IF[ ]	/* If */
POP[ ]	/* PopTopStack */
MDRP[11000]	/* MoveDirectRelPt */
ELSE[ ]	/* Else */
MIRP[10100]	/* MoveIndirectRelPt */
EIF[ ]	/* EndIf */
PUSHB[ ]	/* 1 value pushed */
3
MDRP[10000]	/* MoveDirectRelPt */
PUSHB[ ]	/* 1 value pushed */
6
SRP0[ ]	/* SetRefPoint0 */
PUSHB[ ]	/* 2 values pushed */
4 1
PUSHB[ ]	/* 1 value pushed */
10
CALL[ ]	/* CallFunction */
IF[ ]	/* If */
POP[ ]	/* PopTopStack */
MDRP[11000]	/* MoveDirectRelPt */
ELSE[ ]	/* Else */
MIRP[10100]	/* MoveIndirectRelPt */
EIF[ ]	/* EndIf */
PUSHB[ ]	/* 1 value pushed */
3
SRP0[ ]	/* SetRefPoint0 */
PUSHB[ ]	/* 1 value pushed */
8
MDRP[10000]	/* MoveDirectRelPt */
PUSHB[ ]	/* 1 value pushed */
9
MDRP[10000]	/* MoveDirectRelPt */
PUSHB[ ]	/* 1 value pushed */
0
SRP0[ ]	/* SetRefPoint0 */
PUSHB[ ]	/* 1 value pushed */
11
MDRP[10000]	/* MoveDirectRelPt */
PUSHB[ ]	/* 1 value pushed */
10
MDRP[10000]	/* MoveDirectRelPt */
IUP[0]	/* InterpolateUntPts */
IUP[1]	/* InterpolateUntPts */";
};
width = 1136;
}
);
note = uni0141;
unicode = 321;
},
{
glyphname = M;
kernRight = H;
lastChange = "2024-03-30 11:28:57 +0000";
layers = (
{
layerId = m01;
shapes = (
{
closed = 1;
nodes = (
(40,0,l),
(378,0,l),
(378,329,l),
(344,998,l),
(685,0,l),
(909,0,l),
(1248,998,l),
(1214,329,l),
(1214,0,l),
(1554,0,l),
(1554,1404,l),
(1108,1404,l),
(797,426,l),
(484,1404,l),
(40,1404,l)
);
}
);
userData = {
assembly = "SVTCA[0]	/* SetFreedomAndProjectionVectorToAxis */
PUSHB[ ]	/* 1 value pushed */
0
RCVT[ ]	/* ReadCVT */
IF[ ]	/* If */
PUSHB[ ]	/* 1 value pushed */
0
MDAP[1]	/* MoveDirectAbsPt */
ELSE[ ]	/* Else */
PUSHB[ ]	/* 2 values pushed */
0 31
MIAP[0]	/* MoveIndirectAbsPt */
EIF[ ]	/* EndIf */
PUSHB[ ]	/* 1 value pushed */
0
RCVT[ ]	/* ReadCVT */
IF[ ]	/* If */
PUSHB[ ]	/* 1 value pushed */
2
MDAP[1]	/* MoveDirectAbsPt */
ELSE[ ]	/* Else */
PUSHB[ ]	/* 2 values pushed */
2 31
MIAP[0]	/* MoveIndirectAbsPt */
EIF[ ]	/* EndIf */
PUSHB[ ]	/* 1 value pushed */
0
RCVT[ ]	/* ReadCVT */
IF[ ]	/* If */
PUSHB[ ]	/* 1 value pushed */
4
MDAP[1]	/* MoveDirectAbsPt */
ELSE[ ]	/* Else */
PUSHB[ ]	/* 2 values pushed */
4 15
MIAP[0]	/* MoveIndirectAbsPt */
EIF[ ]	/* EndIf */
PUSHB[ ]	/* 1 value pushed */
0
RCVT[ ]	/* ReadCVT */
IF[ ]	/* If */
PUSHB[ ]	/* 1 value pushed */
8
MDAP[1]	/* MoveDirectAbsPt */
ELSE[ ]	/* Else */
PUSHB[ ]	/* 2 values pushed */
8 15
MIAP[0]	/* MoveIndirectAbsPt */
EIF[ ]	/* EndIf */
PUSHB[ ]	/* 1 value pushed */
0
RCVT[ ]	/* ReadCVT */
IF[ ]	/* If */
PUSHB[ ]	/* 1 value pushed */
12
MDAP[1]	/* MoveDirectAbsPt */
ELSE[ ]	/* Else */
PUSHB[ ]	/* 2 values pushed */
12 15
MIAP[0]	/* MoveIndirectAbsPt */
EIF[ ]	/* EndIf */
PUSHB[ ]	/* 3 values pushed */
1 0 4
SRP1[ ]	/* SetRefPoint1 */
SRP2[ ]	/* SetRefPoint2 */
IP[ ]	/* InterpolatePts */
PUSHB[ ]	/* 3 values pushed */
7 0 4
SRP1[ ]	/* SetRefPoint1 */
SRP2[ ]	/* SetRefPoint2 */
IP[ ]	/* InterpolatePts */
PUSHB[ ]	/* 3 values pushed */
10 0 4
SRP1[ ]	/* SetRefPoint1 */
SRP2[ ]	/* SetRefPoint2 */
IP[ ]	/* InterpolatePts */
IUP[0]	/* InterpolateUntPts */
IUP[1]	/* InterpolateUntPts */";
};
width = 1594;
}
);
note = uni004D;
unicode = 77;
},
{
glyphname = N;
kernRight = H;
lastChange = "2024-03-30 11:28:57 +0000";
layers = (
{
layerId = m01;
shapes = (
{
closed = 1;
nodes = (
(874,1404,l),
(874,529,l),
(378,1404,l),
(40,1404,l),
(40,0,l),
(378,0,l),
(378,875,l),
(874,0,l),
(1209,0,l),
(1209,1404,l)
);
}
);
userData = {
assembly = "PUSHB[ ]	/* 3 values pushed */
1 10 11
SRP1[ ]	/* SetRefPoint1 */
SRP2[ ]	/* SetRefPoint2 */
IP[ ]	/* InterpolatePts */
SVTCA[0]	/* SetFreedomAndProjectionVectorToAxis */
PUSHB[ ]	/* 1 value pushed */
0
RCVT[ ]	/* ReadCVT */
IF[ ]	/* If */
PUSHB[ ]	/* 1 value pushed */
5
MDAP[1]	/* MoveDirectAbsPt */
ELSE[ ]	/* Else */
PUSHB[ ]	/* 2 values pushed */
5 31
MIAP[0]	/* MoveIndirectAbsPt */
EIF[ ]	/* EndIf */
PUSHB[ ]	/* 1 value pushed */
0
RCVT[ ]	/* ReadCVT */
IF[ ]	/* If */
PUSHB[ ]	/* 1 value pushed */
8
MDAP[1]	/* MoveDirectAbsPt */
ELSE[ ]	/* Else */
PUSHB[ ]	/* 2 values pushed */
8 31
MIAP[0]	/* MoveIndirectAbsPt */
EIF[ ]	/* EndIf */
PUSHB[ ]	/* 1 value pushed */
0
RCVT[ ]	/* ReadCVT */
IF[ ]	/* If */
PUSHB[ ]	/* 1 value pushed */
0
MDAP[1]	/* MoveDirectAbsPt */
ELSE[ ]	/* Else */
PUSHB[ ]	/* 2 values pushed */
0 15
MIAP[0]	/* MoveIndirectAbsPt */
EIF[ ]	/* EndIf */
PUSHB[ ]	/* 1 value pushed */
0
RCVT[ ]	/* ReadCVT */
IF[ ]	/* If */
PUSHB[ ]	/* 1 value pushed */
3
MDAP[1]	/* MoveDirectAbsPt */
ELSE[ ]	/* Else */
PUSHB[ ]	/* 2 values pushed */
3 15
MIAP[0]	/* MoveIndirectAbsPt */
EIF[ ]	/* EndIf */
PUSHB[ ]	/* 3 values pushed */
2 5 0
SRP1[ ]	/* SetRefPoint1 */
SRP2[ ]	/* SetRefPoint2 */
IP[ ]	/* InterpolatePts */
PUSHB[ ]	/* 3 values pushed */
7 5 0
SRP1[ ]	/* SetRefPoint1 */
SRP2[ ]	/* SetRefPoint2 */
IP[ ]	/* InterpolatePts */
IUP[0]	/* InterpolateUntPts */
IUP[1]	/* InterpolateUntPts */";
};
width = 1249;
}
);
note = uni004E;
unicode = 78;
},
{
glyphname = Ntilde;
kernRight = H;
lastChange = "2024-03-30 11:28:57 +0000";
layers = (
{
layerId = m01;
shapes = (
{
closed = 1;
nodes = (
(874,1404,l),
(874,529,l),
(378,1404,l),
(40,1404,l),
(40,0,l),
(378,0,l),
(378,875,l),
(874,0,l),
(1209,0,l),
(1209,1404,l)
);
},
{
closed = 1;
nodes = (
(826,1719,o),
(791,1694,o),
(752,1694,cs),
(703,1694,o),
(677,1707,o),
(609,1738,cs),
(557,1761,o),
(514,1773,o),
(481,1773,cs),
(356,1773,o),
(261,1653,o),
(261,1509,c),
(440,1500,l),
(440,1561,o),
(473,1586,o),
(515,1586,cs),
(547,1586,o),
(589,1573,o),
(642,1546,cs),
(694,1518,o),
(741,1505,o),
(781,1505,cs),
(907,1505,o),
(1003,1620,o),
(1003,1771,c),
(826,1780,l)
);
}
);
width = 1249;
}
);
note = uni00D1;
unicode = 209;
},
{
glyphname = O;
kernLeft = C;
kernRight = D;
lastChange = "2024-03-30 11:28:57 +0000";
layers = (
{
layerId = m01;
shapes = (
{
closed = 1;
nodes = (
(1266,1121,o),
(1015,1397,o),
(653,1397,cs),
(290,1397,o),
(40,1131,o),
(40,703,cs),
(40,624,ls),
(49,218,o),
(289,-45,o),
(655,-45,cs),
(1024,-45,o),
(1266,226,o),
(1266,647,cs),
(1266,712,l)
);
},
{
closed = 1;
nodes = (
(924,366,o),
(827,219,o),
(655,219,cs),
(475,219,o),
(385,371,o),
(385,647,cs),
(385,750,ls),
(396,1004,o),
(485,1131,o),
(653,1131,cs),
(827,1131,o),
(924,985,o),
(924,705,cs),
(924,640,l)
);
}
);
userData = {
assembly = "PUSHB[ ]	/* 3 values pushed */
12 30 31
SRP1[ ]	/* SetRefPoint1 */
SRP2[ ]	/* SetRefPoint2 */
IP[ ]	/* InterpolatePts */
PUSHB[ ]	/* 1 value pushed */
12
SRP0[ ]	/* SetRefPoint0 */
PUSHB[ ]	/* 1 value pushed */
20
MDRP[10000]	/* MoveDirectRelPt */
SVTCA[0]	/* SetFreedomAndProjectionVectorToAxis */
PUSHB[ ]	/* 1 value pushed */
0
RCVT[ ]	/* ReadCVT */
IF[ ]	/* If */
PUSHB[ ]	/* 1 value pushed */
12
MDAP[1]	/* MoveDirectAbsPt */
ELSE[ ]	/* Else */
PUSHB[ ]	/* 2 values pushed */
12 31
MIAP[0]	/* MoveIndirectAbsPt */
EIF[ ]	/* EndIf */
PUSHB[ ]	/* 1 value pushed */
0
RCVT[ ]	/* ReadCVT */
IF[ ]	/* If */
PUSHB[ ]	/* 1 value pushed */
4
MDAP[1]	/* MoveDirectAbsPt */
ELSE[ ]	/* Else */
PUSHB[ ]	/* 2 values pushed */
4 15
MIAP[0]	/* MoveIndirectAbsPt */
EIF[ ]	/* EndIf */
PUSHB[ ]	/* 1 value pushed */
12
SRP0[ ]	/* SetRefPoint0 */
PUSHB[ ]	/* 2 values pushed */
20 11
PUSHB[ ]	/* 1 value pushed */
10
CALL[ ]	/* CallFunction */
IF[ ]	/* If */
POP[ ]	/* PopTopStack */
MDRP[11000]	/* MoveDirectRelPt */
ELSE[ ]	/* Else */
MIRP[10100]	/* MoveIndirectRelPt */
EIF[ ]	/* EndIf */
PUSHB[ ]	/* 1 value pushed */
4
SRP0[ ]	/* SetRefPoint0 */
PUSHB[ ]	/* 2 values pushed */
26 11
PUSHB[ ]	/* 1 value pushed */
10
CALL[ ]	/* CallFunction */
IF[ ]	/* If */
POP[ ]	/* PopTopStack */
MDRP[11000]	/* MoveDirectRelPt */
ELSE[ ]	/* Else */
MIRP[10100]	/* MoveIndirectRelPt */
EIF[ ]	/* EndIf */
IUP[0]	/* InterpolateUntPts */
IUP[1]	/* InterpolateUntPts */";
};
width = 1306;
}
);
note = uni004F;
unicode = 79;
},
{
glyphname = Oacute;
kernLeft = C;
kernRight = D;
lastChange = "2024-03-30 11:28:57 +0000";
layers = (
{
layerId = m01;
shapes = (
{
closed = 1;
nodes = (
(1266,1121,o),
(1015,1397,o),
(653,1397,cs),
(290,1397,o),
(40,1131,o),
(40,703,cs),
(40,624,ls),
(49,218,o),
(289,-45,o),
(655,-45,cs),
(1024,-45,o),
(1266,226,o),
(1266,647,cs),
(1266,712,l)
);
},
{
closed = 1;
nodes = (
(924,366,o),
(827,219,o),
(655,219,cs),
(475,219,o),
(385,371,o),
(385,647,cs),
(385,750,ls),
(396,1004,o),
(485,1131,o),
(653,1131,cs),
(827,1131,o),
(924,985,o),
(924,705,cs),
(924,640,l)
);
},
{
closed = 1;
nodes = (
(767,1449,l),
(1036,1752,l),
(694,1752,l),
(502,1449,l)
);
}
);
width = 1306;
}
);
note = uni00D3;
unicode = 211;
},
{
glyphname = Ocircumflex;
kernLeft = C;
kernRight = D;
lastChange = "2024-03-30 11:28:57 +0000";
layers = (
{
layerId = m01;
shapes = (
{
closed = 1;
nodes = (
(1266,1121,o),
(1015,1397,o),
(653,1397,cs),
(290,1397,o),
(40,1131,o),
(40,703,cs),
(40,624,ls),
(49,218,o),
(289,-45,o),
(655,-45,cs),
(1024,-45,o),
(1266,226,o),
(1266,647,cs),
(1266,712,l)
);
},
{
closed = 1;
nodes = (
(924,366,o),
(827,219,o),
(655,219,cs),
(475,219,o),
(385,371,o),
(385,647,cs),
(385,750,ls),
(396,1004,o),
(485,1131,o),
(653,1131,cs),
(827,1131,o),
(924,985,o),
(924,705,cs),
(924,640,l)
);
},
{
closed = 1;
nodes = (
(561,1752,l),
(247,1485,l),
(247,1469,l),
(500,1469,l),
(651,1599,l),
(804,1469,l),
(1061,1469,l),
(1061,1481,l),
(745,1752,l)
);
}
);
width = 1306;
}
);
note = uni00D4;
unicode = 212;
},
{
glyphname = Odieresis;
kernLeft = C;
kernRight = D;
lastChange = "2024-03-30 11:28:57 +0000";
layers = (
{
layerId = m01;
shapes = (
{
closed = 1;
nodes = (
(1266,1121,o),
(1015,1397,o),
(653,1397,cs),
(290,1397,o),
(40,1131,o),
(40,703,cs),
(40,624,ls),
(49,218,o),
(289,-45,o),
(655,-45,cs),
(1024,-45,o),
(1266,226,o),
(1266,647,cs),
(1266,712,l)
);
},
{
closed = 1;
nodes = (
(924,366,o),
(827,219,o),
(655,219,cs),
(475,219,o),
(385,371,o),
(385,647,cs),
(385,750,ls),
(396,1004,o),
(485,1131,o),
(653,1131,cs),
(827,1131,o),
(924,985,o),
(924,705,cs),
(924,640,l)
);
},
{
closed = 1;
nodes = (
(254,1516,o),
(320,1460,o),
(401,1460,cs),
(481,1460,o),
(547,1517,o),
(547,1587,cs),
(547,1658,o),
(481,1715,o),
(401,1715,cs),
(320,1715,o),
(254,1658,o),
(254,1588,cs)
);
},
{
closed = 1;
nodes = (
(754,1516,o),
(820,1460,o),
(901,1460,cs),
(982,1460,o),
(1047,1517,o),
(1047,1587,cs),
(1047,1658,o),
(982,1715,o),
(901,1715,cs),
(820,1715,o),
(754,1658,o),
(754,1588,cs)
);
}
);
width = 1306;
}
);
note = uni00D6;
unicode = 214;
},
{
glyphname = Ograve;
kernLeft = C;
kernRight = D;
lastChange = "2024-03-30 11:28:57 +0000";
layers = (
{
layerId = m01;
shapes = (
{
closed = 1;
nodes = (
(1266,1121,o),
(1015,1397,o),
(653,1397,cs),
(290,1397,o),
(40,1131,o),
(40,703,cs),
(40,624,ls),
(49,218,o),
(289,-45,o),
(655,-45,cs),
(1024,-45,o),
(1266,226,o),
(1266,647,cs),
(1266,712,l),
(1266,712,l)
);
},
{
closed = 1;
nodes = (
(924,366,o),
(827,219,o),
(655,219,cs),
(475,219,o),
(385,371,o),
(385,647,cs),
(385,750,ls),
(396,1004,o),
(485,1131,o),
(653,1131,cs),
(827,1131,o),
(924,985,o),
(924,705,cs),
(924,640,l)
);
},
{
closed = 1;
nodes = (
(270,1752,l),
(543,1449,l),
(806,1449,l),
(615,1752,l)
);
}
);
width = 1306;
}
);
note = uni00D2;
unicode = 210;
},
{
glyphname = Oslash;
kernLeft = C;
lastChange = "2024-03-30 11:28:57 +0000";
layers = (
{
layerId = m01;
shapes = (
{
closed = 1;
nodes = (
(1266,829,o),
(1201,1008,o),
(1072,1135,c),
(1189,1339,l),
(986,1339,l),
(928,1236,l),
(846,1279,o),
(753,1300,o),
(653,1300,cs),
(290,1300,o),
(40,1034,o),
(40,606,cs),
(40,557,ls),
(40,328,o),
(104,151,o),
(232,22,c),
(96,-214,l),
(297,-214,l),
(374,-79,l),
(457,-121,o),
(552,-142,o),
(655,-142,cs),
(1015,-142,o),
(1266,124,o),
(1266,550,cs),
(1266,600,l)
);
},
{
closed = 1;
nodes = (
(920,270,o),
(827,122,o),
(655,122,cs),
(600,122,o),
(552,136,o),
(513,165,c),
(894,829,l),
(914,768,o),
(924,694,o),
(924,608,cs),
(924,543,l)
);
},
{
closed = 1;
nodes = (
(385,889,o),
(473,1034,o),
(653,1034,cs),
(704,1034,o),
(749,1021,o),
(788,993,c),
(410,331,l),
(393,392,o),
(385,464,o),
(385,550,cs),
(385,615,l)
);
}
);
userData = {
assembly = "SVTCA[0]	/* SetFreedomAndProjectionVectorToAxis */
PUSHB[ ]	/* 1 value pushed */
0
RCVT[ ]	/* ReadCVT */
IF[ ]	/* If */
PUSHB[ ]	/* 1 value pushed */
16
MDAP[1]	/* MoveDirectAbsPt */
ELSE[ ]	/* Else */
PUSHB[ ]	/* 2 values pushed */
16 31
MIAP[0]	/* MoveIndirectAbsPt */
EIF[ ]	/* EndIf */
PUSHB[ ]	/* 1 value pushed */
0
RCVT[ ]	/* ReadCVT */
IF[ ]	/* If */
PUSHB[ ]	/* 1 value pushed */
4
MDAP[1]	/* MoveDirectAbsPt */
ELSE[ ]	/* Else */
PUSHB[ ]	/* 2 values pushed */
4 15
MIAP[0]	/* MoveIndirectAbsPt */
EIF[ ]	/* EndIf */
PUSHB[ ]	/* 1 value pushed */
16
SRP0[ ]	/* SetRefPoint0 */
PUSHB[ ]	/* 2 values pushed */
38 11
PUSHB[ ]	/* 1 value pushed */
10
CALL[ ]	/* CallFunction */
IF[ ]	/* If */
POP[ ]	/* PopTopStack */
MDRP[11000]	/* MoveDirectRelPt */
ELSE[ ]	/* Else */
MIRP[10100]	/* MoveIndirectRelPt */
EIF[ ]	/* EndIf */
PUSHB[ ]	/* 1 value pushed */
36
MDRP[10000]	/* MoveDirectRelPt */
PUSHB[ ]	/* 1 value pushed */
26
MDRP[10000]	/* MoveDirectRelPt */
PUSHB[ ]	/* 1 value pushed */
4
SRP0[ ]	/* SetRefPoint0 */
PUSHB[ ]	/* 2 values pushed */
29 11
PUSHB[ ]	/* 1 value pushed */
10
CALL[ ]	/* CallFunction */
IF[ ]	/* If */
POP[ ]	/* PopTopStack */
MDRP[11000]	/* MoveDirectRelPt */
ELSE[ ]	/* Else */
MIRP[10100]	/* MoveIndirectRelPt */
EIF[ ]	/* EndIf */
PUSHB[ ]	/* 1 value pushed */
27
MDRP[10000]	/* MoveDirectRelPt */
PUSHB[ ]	/* 1 value pushed */
35
MDRP[10000]	/* MoveDirectRelPt */
IUP[0]	/* InterpolateUntPts */
IUP[1]	/* InterpolateUntPts */";
};
width = 1306;
}
);
note = uni00D8;
unicode = 216;
},
{
glyphname = Otilde;
kernLeft = C;
kernRight = D;
lastChange = "2024-03-30 11:28:57 +0000";
layers = (
{
layerId = m01;
shapes = (
{
closed = 1;
nodes = (
(1266,1121,o),
(1015,1397,o),
(653,1397,cs),
(290,1397,o),
(40,1131,o),
(40,703,cs),
(40,624,ls),
(49,218,o),
(289,-45,o),
(655,-45,cs),
(1024,-45,o),
(1266,226,o),
(1266,647,cs),
(1266,712,l)
);
},
{
closed = 1;
nodes = (
(924,366,o),
(827,219,o),
(655,219,cs),
(475,219,o),
(385,371,o),
(385,647,cs),
(385,750,ls),
(396,1004,o),
(485,1131,o),
(653,1131,cs),
(827,1131,o),
(924,985,o),
(924,705,cs),
(924,640,l)
);
},
{
closed = 1;
nodes = (
(844,1695,o),
(810,1668,o),
(767,1668,cs),
(723,1668,o),
(697,1680,o),
(626,1711,cs),
(574,1735,o),
(532,1746,o),
(502,1746,cs),
(376,1746,o),
(279,1629,o),
(279,1485,c),
(459,1475,l),
(459,1532,o),
(492,1561,o),
(531,1561,cs),
(564,1561,o),
(607,1548,o),
(660,1520,cs),
(712,1494,o),
(759,1481,o),
(799,1481,cs),
(929,1481,o),
(1023,1596,o),
(1023,1744,c),
(844,1755,l)
);
}
);
width = 1306;
}
);
note = uni00D5;
unicode = 213;
},
{
glyphname = OE;
kernLeft = C;
lastChange = "2024-03-30 11:28:57 +0000";
layers = (
{
layerId = m01;
shapes = (
{
closed = 1;
nodes = (
(1171,234,l),
(1171,568,l),
(1702,568,l),
(1702,820,l),
(1171,820,l),
(1171,1115,l),
(1799,1115,l),
(1799,1376,l),
(926,1376,l),
(817,1390,o),
(724,1397,o),
(646,1397,cs),
(288,1397,o),
(40,1164,o),
(40,823,cs),
(40,527,ls),
(40,193,o),
(283,-45,o),
(648,-45,cs),
(725,-45,o),
(817,-38,o),
(926,-25,c),
(1797,-25,l),
(1797,234,l)
);
},
{
closed = 1;
nodes = (
(475,205,o),
(367,314,o),
(367,529,cs),
(367,825,ls),
(367,1041,o),
(471,1144,o),
(646,1144,cs),
(704,1144,o),
(767,1141,o),
(833,1133,c),
(833,217,l),
(773,209,o),
(711,205,o),
(648,205,cs)
);
}
);
userData = {
assembly = "PUSHB[ ]	/* 3 values pushed */
1 36 37
SRP1[ ]	/* SetRefPoint1 */
SRP2[ ]	/* SetRefPoint2 */
IP[ ]	/* InterpolatePts */
PUSHB[ ]	/* 1 value pushed */
1
SRP0[ ]	/* SetRefPoint0 */
PUSHB[ ]	/* 1 value pushed */
26
MDRP[10000]	/* MoveDirectRelPt */
SVTCA[0]	/* SetFreedomAndProjectionVectorToAxis */
PUSHB[ ]	/* 1 value pushed */
0
RCVT[ ]	/* ReadCVT */
IF[ ]	/* If */
PUSHB[ ]	/* 1 value pushed */
12
MDAP[1]	/* MoveDirectAbsPt */
ELSE[ ]	/* Else */
PUSHB[ ]	/* 2 values pushed */
12 31
MIAP[0]	/* MoveIndirectAbsPt */
EIF[ ]	/* EndIf */
PUSHB[ ]	/* 1 value pushed */
0
RCVT[ ]	/* ReadCVT */
IF[ ]	/* If */
PUSHB[ ]	/* 1 value pushed */
14
MDAP[1]	/* MoveDirectAbsPt */
ELSE[ ]	/* Else */
PUSHB[ ]	/* 2 values pushed */
14 31
MIAP[0]	/* MoveIndirectAbsPt */
EIF[ ]	/* EndIf */
PUSHB[ ]	/* 1 value pushed */
0
RCVT[ ]	/* ReadCVT */
IF[ ]	/* If */
PUSHB[ ]	/* 1 value pushed */
0
MDAP[1]	/* MoveDirectAbsPt */
ELSE[ ]	/* Else */
PUSHB[ ]	/* 2 values pushed */
0 15
MIAP[0]	/* MoveIndirectAbsPt */
EIF[ ]	/* EndIf */
PUSHB[ ]	/* 1 value pushed */
0
RCVT[ ]	/* ReadCVT */
IF[ ]	/* If */
PUSHB[ ]	/* 1 value pushed */
3
MDAP[1]	/* MoveDirectAbsPt */
ELSE[ ]	/* Else */
PUSHB[ ]	/* 2 values pushed */
3 15
MIAP[0]	/* MoveIndirectAbsPt */
EIF[ ]	/* EndIf */
PUSHB[ ]	/* 1 value pushed */
14
SRP0[ ]	/* SetRefPoint0 */
PUSHB[ ]	/* 2 values pushed */
16 1
PUSHB[ ]	/* 1 value pushed */
10
CALL[ ]	/* CallFunction */
IF[ ]	/* If */
POP[ ]	/* PopTopStack */
MDRP[11000]	/* MoveDirectRelPt */
ELSE[ ]	/* Else */
MIRP[10100]	/* MoveIndirectRelPt */
EIF[ ]	/* EndIf */
PUSHB[ ]	/* 3 values pushed */
19 0 14
SRP1[ ]	/* SetRefPoint1 */
SRP2[ ]	/* SetRefPoint2 */
IP[ ]	/* InterpolatePts */
PUSHB[ ]	/* 1 value pushed */
19
MDAP[1]	/* MoveDirectAbsPt */
PUSHB[ ]	/* 3 values pushed */
191 19 1
DELTAP1[ ]	/* DeltaExceptionP1 */
PUSHB[ ]	/* 2 values pushed */
20 1
PUSHB[ ]	/* 1 value pushed */
10
CALL[ ]	/* CallFunction */
IF[ ]	/* If */
POP[ ]	/* PopTopStack */
MDRP[11000]	/* MoveDirectRelPt */
ELSE[ ]	/* Else */
MIRP[10100]	/* MoveIndirectRelPt */
EIF[ ]	/* EndIf */
PUSHB[ ]	/* 1 value pushed */
0
SRP0[ ]	/* SetRefPoint0 */
PUSHB[ ]	/* 2 values pushed */
22 1
PUSHB[ ]	/* 1 value pushed */
10
CALL[ ]	/* CallFunction */
IF[ ]	/* If */
POP[ ]	/* PopTopStack */
MDRP[11000]	/* MoveDirectRelPt */
ELSE[ ]	/* Else */
MIRP[10100]	/* MoveIndirectRelPt */
EIF[ ]	/* EndIf */
PUSHB[ ]	/* 1 value pushed */
3
SRP0[ ]	/* SetRefPoint0 */
PUSHB[ ]	/* 2 values pushed */
24 1
PUSHB[ ]	/* 1 value pushed */
10
CALL[ ]	/* CallFunction */
IF[ ]	/* If */
POP[ ]	/* PopTopStack */
MDRP[11000]	/* MoveDirectRelPt */
ELSE[ ]	/* Else */
MIRP[10100]	/* MoveIndirectRelPt */
EIF[ ]	/* EndIf */
PUSHB[ ]	/* 1 value pushed */
12
SRP0[ ]	/* SetRefPoint0 */
PUSHB[ ]	/* 2 values pushed */
29 1
PUSHB[ ]	/* 1 value pushed */
10
CALL[ ]	/* CallFunction */
IF[ ]	/* If */
POP[ ]	/* PopTopStack */
MDRP[11000]	/* MoveDirectRelPt */
ELSE[ ]	/* Else */
MIRP[10100]	/* MoveIndirectRelPt */
EIF[ ]	/* EndIf */
IUP[0]	/* InterpolateUntPts */
IUP[1]	/* InterpolateUntPts */";
};
width = 1839;
}
);
note = uni0152;
unicode = 338;
},
{
glyphname = P;
kernRight = P;
lastChange = "2024-03-30 11:28:57 +0000";
layers = (
{
layerId = m01;
shapes = (
{
closed = 1;
nodes = (
(937,477,o),
(1143,652,o),
(1143,926,cs),
(1143,1201,o),
(933,1404,o),
(599,1404,cs),
(40,1404,l),
(40,0,l),
(378,0,l),
(378,477,l),
(592,477,l)
);
},
{
closed = 1;
nodes = (
(603,1140,ls),
(723,1140,o),
(799,1056,o),
(799,924,cs),
(799,803,o),
(731,737,o),
(599,737,cs),
(378,737,l),
(378,1140,l)
);
}
);
userData = {
assembly = "PUSHB[ ]	/* 3 values pushed */
11 21 22
SRP1[ ]	/* SetRefPoint1 */
SRP2[ ]	/* SetRefPoint2 */
IP[ ]	/* InterpolatePts */
PUSHB[ ]	/* 1 value pushed */
11
SRP0[ ]	/* SetRefPoint0 */
PUSHB[ ]	/* 1 value pushed */
13
MDRP[10000]	/* MoveDirectRelPt */
SVTCA[0]	/* SetFreedomAndProjectionVectorToAxis */
PUSHB[ ]	/* 1 value pushed */
0
RCVT[ ]	/* ReadCVT */
IF[ ]	/* If */
PUSHB[ ]	/* 1 value pushed */
3
MDAP[1]	/* MoveDirectAbsPt */
ELSE[ ]	/* Else */
PUSHB[ ]	/* 2 values pushed */
3 31
MIAP[0]	/* MoveIndirectAbsPt */
EIF[ ]	/* EndIf */
PUSHB[ ]	/* 1 value pushed */
0
RCVT[ ]	/* ReadCVT */
IF[ ]	/* If */
PUSHB[ ]	/* 1 value pushed */
1
MDAP[1]	/* MoveDirectAbsPt */
ELSE[ ]	/* Else */
PUSHB[ ]	/* 2 values pushed */
1 15
MIAP[0]	/* MoveIndirectAbsPt */
EIF[ ]	/* EndIf */
PUSHB[ ]	/* 3 values pushed */
12 3 1
SRP1[ ]	/* SetRefPoint1 */
SRP2[ ]	/* SetRefPoint2 */
IP[ ]	/* InterpolatePts */
PUSHB[ ]	/* 1 value pushed */
12
MDAP[1]	/* MoveDirectAbsPt */
PUSHB[ ]	/* 2 values pushed */
0 1
PUSHB[ ]	/* 1 value pushed */
10
CALL[ ]	/* CallFunction */
IF[ ]	/* If */
POP[ ]	/* PopTopStack */
MDRP[11000]	/* MoveDirectRelPt */
ELSE[ ]	/* Else */
MIRP[10100]	/* MoveIndirectRelPt */
EIF[ ]	/* EndIf */
PUSHB[ ]	/* 1 value pushed */
3
SRP0[ ]	/* SetRefPoint0 */
PUSHB[ ]	/* 2 values pushed */
19 1
PUSHB[ ]	/* 1 value pushed */
10
CALL[ ]	/* CallFunction */
IF[ ]	/* If */
POP[ ]	/* PopTopStack */
MDRP[11000]	/* MoveDirectRelPt */
ELSE[ ]	/* Else */
MIRP[10100]	/* MoveIndirectRelPt */
EIF[ ]	/* EndIf */
IUP[0]	/* InterpolateUntPts */
IUP[1]	/* InterpolateUntPts */";
};
width = 1183;
}
);
note = uni0050;
unicode = 80;
},
{
glyphname = Thorn;
lastChange = "2024-03-30 11:28:57 +0000";
layers = (
{
layerId = m01;
shapes = (
{
closed = 1;
nodes = (
(40,0,l),
(367,0,l),
(367,268,l),
(563,268,ls),
(893,271,o),
(1096,441,o),
(1096,712,cs),
(1096,970,o),
(905,1154,o),
(563,1154,cs),
(367,1154,l),
(367,1404,l),
(40,1404,l)
);
},
{
closed = 1;
nodes = (
(689,903,o),
(769,829,o),
(769,710,cs),
(769,590,o),
(690,518,o),
(558,518,cs),
(367,518,l),
(367,903,l),
(560,903,l)
);
}
);
userData = {
assembly = "PUSHB[ ]	/* 3 values pushed */
16 23 24
SRP1[ ]	/* SetRefPoint1 */
SRP2[ ]	/* SetRefPoint2 */
IP[ ]	/* InterpolatePts */
PUSHB[ ]	/* 1 value pushed */
16
SRP0[ ]	/* SetRefPoint0 */
PUSHB[ ]	/* 1 value pushed */
2
MDRP[10000]	/* MoveDirectRelPt */
SVTCA[0]	/* SetFreedomAndProjectionVectorToAxis */
PUSHB[ ]	/* 1 value pushed */
0
RCVT[ ]	/* ReadCVT */
IF[ ]	/* If */
PUSHB[ ]	/* 1 value pushed */
0
MDAP[1]	/* MoveDirectAbsPt */
ELSE[ ]	/* Else */
PUSHB[ ]	/* 2 values pushed */
0 31
MIAP[0]	/* MoveIndirectAbsPt */
EIF[ ]	/* EndIf */
PUSHB[ ]	/* 1 value pushed */
0
RCVT[ ]	/* ReadCVT */
IF[ ]	/* If */
PUSHB[ ]	/* 1 value pushed */
11
MDAP[1]	/* MoveDirectAbsPt */
ELSE[ ]	/* Else */
PUSHB[ ]	/* 2 values pushed */
11 15
MIAP[0]	/* MoveIndirectAbsPt */
EIF[ ]	/* EndIf */
PUSHB[ ]	/* 3 values pushed */
1 0 11
SRP1[ ]	/* SetRefPoint1 */
SRP2[ ]	/* SetRefPoint2 */
IP[ ]	/* InterpolatePts */
PUSHB[ ]	/* 1 value pushed */
1
MDAP[1]	/* MoveDirectAbsPt */
PUSHB[ ]	/* 3 values pushed */
16 0 11
SRP1[ ]	/* SetRefPoint1 */
SRP2[ ]	/* SetRefPoint2 */
IP[ ]	/* InterpolatePts */
PUSHB[ ]	/* 1 value pushed */
16
MDAP[1]	/* MoveDirectAbsPt */
PUSHB[ ]	/* 2 values pushed */
9 1
PUSHB[ ]	/* 1 value pushed */
10
CALL[ ]	/* CallFunction */
IF[ ]	/* If */
POP[ ]	/* PopTopStack */
MDRP[11000]	/* MoveDirectRelPt */
ELSE[ ]	/* Else */
MIRP[10100]	/* MoveIndirectRelPt */
EIF[ ]	/* EndIf */
PUSHB[ ]	/* 1 value pushed */
1
SRP0[ ]	/* SetRefPoint0 */
PUSHB[ ]	/* 2 values pushed */
14 1
PUSHB[ ]	/* 1 value pushed */
10
CALL[ ]	/* CallFunction */
IF[ ]	/* If */
POP[ ]	/* PopTopStack */
MDRP[11000]	/* MoveDirectRelPt */
ELSE[ ]	/* Else */
MIRP[10100]	/* MoveIndirectRelPt */
EIF[ ]	/* EndIf */
IUP[0]	/* InterpolateUntPts */
IUP[1]	/* InterpolateUntPts */";
};
width = 1136;
}
);
note = uni00DE;
unicode = 222;
},
{
glyphname = Q;
kernLeft = C;
lastChange = "2024-03-30 11:28:57 +0000";
layers = (
{
layerId = m01;
shapes = (
{
closed = 1;
nodes = (
(1266,1164,o),
(1003,1426,o),
(653,1426,cs),
(301,1426,o),
(40,1167,o),
(40,732,cs),
(40,658,ls),
(45,251,o),
(291,-16,o),
(655,-16,cs),
(683,-16,o),
(710,-14,o),
(739,-10,c),
(1040,-253,l),
(1250,-75,l),
(1023,103,l),
(1176,220,o),
(1266,417,o),
(1266,675,cs),
(1266,738,l)
);
},
{
closed = 1;
nodes = (
(920,398,o),
(827,248,o),
(655,248,cs),
(475,248,o),
(385,399,o),
(385,675,cs),
(385,738,ls),
(385,1015,o),
(473,1159,o),
(653,1159,cs),
(825,1159,o),
(924,1013,o),
(924,734,cs),
(924,669,l)
);
}
);
userData = {
assembly = "PUSHB[ ]	/* 3 values pushed */
17 36 37
SRP1[ ]	/* SetRefPoint1 */
SRP2[ ]	/* SetRefPoint2 */
IP[ ]	/* InterpolatePts */
PUSHB[ ]	/* 1 value pushed */
17
SRP0[ ]	/* SetRefPoint0 */
PUSHB[ ]	/* 1 value pushed */
25
MDRP[10000]	/* MoveDirectRelPt */
SVTCA[0]	/* SetFreedomAndProjectionVectorToAxis */
PUSHB[ ]	/* 1 value pushed */
0
RCVT[ ]	/* ReadCVT */
IF[ ]	/* If */
PUSHB[ ]	/* 1 value pushed */
17
MDAP[1]	/* MoveDirectAbsPt */
ELSE[ ]	/* Else */
PUSHB[ ]	/* 2 values pushed */
17 31
MIAP[0]	/* MoveIndirectAbsPt */
EIF[ ]	/* EndIf */
PUSHB[ ]	/* 1 value pushed */
0
RCVT[ ]	/* ReadCVT */
IF[ ]	/* If */
PUSHB[ ]	/* 1 value pushed */
8
MDAP[1]	/* MoveDirectAbsPt */
ELSE[ ]	/* Else */
PUSHB[ ]	/* 2 values pushed */
8 15
MIAP[0]	/* MoveIndirectAbsPt */
EIF[ ]	/* EndIf */
PUSHB[ ]	/* 1 value pushed */
17
SRP0[ ]	/* SetRefPoint0 */
PUSHB[ ]	/* 2 values pushed */
25 11
PUSHB[ ]	/* 1 value pushed */
10
CALL[ ]	/* CallFunction */
IF[ ]	/* If */
POP[ ]	/* PopTopStack */
MDRP[11000]	/* MoveDirectRelPt */
ELSE[ ]	/* Else */
MIRP[10100]	/* MoveIndirectRelPt */
EIF[ ]	/* EndIf */
PUSHB[ ]	/* 1 value pushed */
8
SRP0[ ]	/* SetRefPoint0 */
PUSHB[ ]	/* 2 values pushed */
32 11
PUSHB[ ]	/* 1 value pushed */
10
CALL[ ]	/* CallFunction */
IF[ ]	/* If */
POP[ ]	/* PopTopStack */
MDRP[11000]	/* MoveDirectRelPt */
ELSE[ ]	/* Else */
MIRP[10100]	/* MoveIndirectRelPt */
EIF[ ]	/* EndIf */
IUP[0]	/* InterpolateUntPts */
IUP[1]	/* InterpolateUntPts */";
};
width = 1306;
}
);
note = uni0051;
unicode = 81;
},
{
glyphname = R;
lastChange = "2024-03-30 11:28:57 +0000";
layers = (
{
layerId = m01;
shapes = (
{
closed = 1;
nodes = (
(1170,0,l),
(1170,13,l),
(878,579,l),
(1043,660,o),
(1121,782,o),
(1121,978,cs),
(1121,1249,o),
(923,1404,o),
(590,1404,cs),
(40,1404,l),
(40,0,l),
(377,0,l),
(377,494,l),
(560,494,l),
(807,0,l)
);
},
{
closed = 1;
nodes = (
(590,1140,ls),
(718,1140,o),
(785,1066,o),
(785,947,cs),
(785,828,o),
(722,757,o),
(590,757,cs),
(377,757,l),
(377,1140,l)
);
}
);
userData = {
assembly = "PUSHB[ ]	/* 3 values pushed */
5 23 24
SRP1[ ]	/* SetRefPoint1 */
SRP2[ ]	/* SetRefPoint2 */
IP[ ]	/* InterpolatePts */
PUSHB[ ]	/* 1 value pushed */
5
SRP0[ ]	/* SetRefPoint0 */
PUSHB[ ]	/* 1 value pushed */
16
MDRP[10000]	/* MoveDirectRelPt */
SVTCA[0]	/* SetFreedomAndProjectionVectorToAxis */
PUSHB[ ]	/* 1 value pushed */
0
RCVT[ ]	/* ReadCVT */
IF[ ]	/* If */
PUSHB[ ]	/* 1 value pushed */
4
MDAP[1]	/* MoveDirectAbsPt */
ELSE[ ]	/* Else */
PUSHB[ ]	/* 2 values pushed */
4 31
MIAP[0]	/* MoveIndirectAbsPt */
EIF[ ]	/* EndIf */
PUSHB[ ]	/* 1 value pushed */
0
RCVT[ ]	/* ReadCVT */
IF[ ]	/* If */
PUSHB[ ]	/* 1 value pushed */
2
MDAP[1]	/* MoveDirectAbsPt */
ELSE[ ]	/* Else */
PUSHB[ ]	/* 2 values pushed */
2 15
MIAP[0]	/* MoveIndirectAbsPt */
EIF[ ]	/* EndIf */
PUSHB[ ]	/* 1 value pushed */
0
RCVT[ ]	/* ReadCVT */
IF[ ]	/* If */
PUSHB[ ]	/* 1 value pushed */
13
MDAP[1]	/* MoveDirectAbsPt */
ELSE[ ]	/* Else */
PUSHB[ ]	/* 2 values pushed */
13 15
MIAP[0]	/* MoveIndirectAbsPt */
EIF[ ]	/* EndIf */
PUSHB[ ]	/* 3 values pushed */
16 4 2
SRP1[ ]	/* SetRefPoint1 */
SRP2[ ]	/* SetRefPoint2 */
IP[ ]	/* InterpolatePts */
PUSHB[ ]	/* 1 value pushed */
16
MDAP[1]	/* MoveDirectAbsPt */
PUSHB[ ]	/* 2 values pushed */
0 11
PUSHB[ ]	/* 1 value pushed */
10
CALL[ ]	/* CallFunction */
IF[ ]	/* If */
POP[ ]	/* PopTopStack */
MDRP[11000]	/* MoveDirectRelPt */
ELSE[ ]	/* Else */
MIRP[10100]	/* MoveIndirectRelPt */
EIF[ ]	/* EndIf */
PUSHB[ ]	/* 3 values pushed */
11 0 4
SRP1[ ]	/* SetRefPoint1 */
SRP2[ ]	/* SetRefPoint2 */
IP[ ]	/* InterpolatePts */
PUSHB[ ]	/* 1 value pushed */
4
SRP0[ ]	/* SetRefPoint0 */
PUSHB[ ]	/* 2 values pushed */
21 11
PUSHB[ ]	/* 1 value pushed */
10
CALL[ ]	/* CallFunction */
IF[ ]	/* If */
POP[ ]	/* PopTopStack */
MDRP[11000]	/* MoveDirectRelPt */
ELSE[ ]	/* Else */
MIRP[10100]	/* MoveIndirectRelPt */
EIF[ ]	/* EndIf */
IUP[0]	/* InterpolateUntPts */
IUP[1]	/* InterpolateUntPts */";
};
width = 1210;
}
);
note = uni0052;
unicode = 82;
},
{
glyphname = S;
kernLeft = S;
lastChange = "2024-03-30 11:28:57 +0000";
layers = (
{
layerId = m01;
shapes = (
{
closed = 1;
nodes = (
(808,260,o),
(736,209,o),
(625,209,cs),
(451,209,o),
(380,277,o),
(380,430,c),
(40,430,l),
(40,244,o),
(133,99,o),
(318,17,cs),
(410,-24,o),
(513,-45,o),
(625,-45,cs),
(949,-45,o),
(1145,103,o),
(1145,349,cs),
(1145,503,o),
(1070,624,o),
(919,712,cs),
(776,792,o),
(571,829,o),
(475,902,cs),
(437,932,o),
(418,964,o),
(418,998,cs),
(418,1082,o),
(491,1140,o),
(614,1140,cs),
(734,1140,o),
(808,1076,o),
(808,961,c),
(1145,961,l),
(1145,1212,o),
(935,1397,o),
(621,1397,cs),
(306,1397,o),
(83,1241,o),
(83,1002,cs),
(83,846,o),
(173,724,o),
(355,636,cs),
(489,567,o),
(673,527,o),
(755,463,cs),
(790,436,o),
(808,396,o),
(808,347,cs)
);
}
);
userData = {
assembly = "PUSHB[ ]	/* 3 values pushed */
18 41 42
SRP1[ ]	/* SetRefPoint1 */
SRP2[ ]	/* SetRefPoint2 */
IP[ ]	/* InterpolatePts */
SVTCA[0]	/* SetFreedomAndProjectionVectorToAxis */
PUSHB[ ]	/* 1 value pushed */
0
RCVT[ ]	/* ReadCVT */
IF[ ]	/* If */
PUSHB[ ]	/* 1 value pushed */
10
MDAP[1]	/* MoveDirectAbsPt */
ELSE[ ]	/* Else */
PUSHB[ ]	/* 2 values pushed */
10 31
MIAP[0]	/* MoveIndirectAbsPt */
EIF[ ]	/* EndIf */
PUSHB[ ]	/* 1 value pushed */
0
RCVT[ ]	/* ReadCVT */
IF[ ]	/* If */
PUSHB[ ]	/* 1 value pushed */
30
MDAP[1]	/* MoveDirectAbsPt */
ELSE[ ]	/* Else */
PUSHB[ ]	/* 2 values pushed */
30 15
MIAP[0]	/* MoveIndirectAbsPt */
EIF[ ]	/* EndIf */
PUSHB[ ]	/* 3 values pushed */
2 30 10
SRP1[ ]	/* SetRefPoint1 */
SRP2[ ]	/* SetRefPoint2 */
IP[ ]	/* InterpolatePts */
PUSHB[ ]	/* 3 values pushed */
57 2 1
DELTAP1[ ]	/* DeltaExceptionP1 */
PUSHB[ ]	/* 1 value pushed */
2
SRP0[ ]	/* SetRefPoint0 */
PUSHB[ ]	/* 2 values pushed */
24 1
PUSHB[ ]	/* 1 value pushed */
10
CALL[ ]	/* CallFunction */
IF[ ]	/* If */
POP[ ]	/* PopTopStack */
MDRP[11000]	/* MoveDirectRelPt */
ELSE[ ]	/* Else */
MIRP[10100]	/* MoveIndirectRelPt */
EIF[ ]	/* EndIf */
PUSHB[ ]	/* 1 value pushed */
10
SRP0[ ]	/* SetRefPoint0 */
PUSHB[ ]	/* 2 values pushed */
18 1
PUSHB[ ]	/* 1 value pushed */
10
CALL[ ]	/* CallFunction */
IF[ ]	/* If */
POP[ ]	/* PopTopStack */
MDRP[11000]	/* MoveDirectRelPt */
ELSE[ ]	/* Else */
MIRP[10100]	/* MoveIndirectRelPt */
EIF[ ]	/* EndIf */
PUSHB[ ]	/* 3 values pushed */
15 24 18
SRP1[ ]	/* SetRefPoint1 */
SRP2[ ]	/* SetRefPoint2 */
IP[ ]	/* InterpolatePts */
PUSHB[ ]	/* 1 value pushed */
30
SRP0[ ]	/* SetRefPoint0 */
PUSHB[ ]	/* 2 values pushed */
38 1
PUSHB[ ]	/* 1 value pushed */
10
CALL[ ]	/* CallFunction */
IF[ ]	/* If */
POP[ ]	/* PopTopStack */
MDRP[11000]	/* MoveDirectRelPt */
ELSE[ ]	/* Else */
MIRP[10100]	/* MoveIndirectRelPt */
EIF[ ]	/* EndIf */
PUSHB[ ]	/* 3 values pushed */
35 2 38
SRP1[ ]	/* SetRefPoint1 */
SRP2[ ]	/* SetRefPoint2 */
IP[ ]	/* InterpolatePts */
IUP[0]	/* InterpolateUntPts */
IUP[1]	/* InterpolateUntPts */";
};
width = 1185;
}
);
note = uni0053;
unicode = 83;
},
{
glyphname = Scaron;
kernLeft = S;
lastChange = "2024-03-30 11:28:57 +0000";
layers = (
{
layerId = m01;
shapes = (
{
closed = 1;
nodes = (
(808,260,o),
(736,209,o),
(625,209,cs),
(451,209,o),
(380,277,o),
(380,430,c),
(40,430,l),
(40,244,o),
(133,99,o),
(318,17,cs),
(410,-24,o),
(513,-45,o),
(625,-45,cs),
(949,-45,o),
(1145,103,o),
(1145,349,cs),
(1145,503,o),
(1070,624,o),
(919,712,cs),
(776,792,o),
(571,829,o),
(475,902,cs),
(437,932,o),
(418,964,o),
(418,998,cs),
(418,1082,o),
(491,1140,o),
(614,1140,cs),
(734,1140,o),
(808,1076,o),
(808,961,c),
(1145,961,l),
(1145,1212,o),
(935,1397,o),
(621,1397,cs),
(306,1397,o),
(83,1241,o),
(83,1002,cs),
(83,846,o),
(173,724,o),
(355,636,cs),
(489,567,o),
(673,527,o),
(755,463,cs),
(790,436,o),
(808,396,o),
(808,347,cs)
);
},
{
closed = 1;
nodes = (
(193,1752,l),
(193,1744,l),
(511,1469,l),
(720,1469,l),
(1033,1741,l),
(1033,1752,l),
(756,1752,l),
(616,1623,l),
(472,1752,l)
);
}
);
width = 1185;
}
);
note = uni0160;
unicode = 352;
},
{
glyphname = T;
kernLeft = T;
kernRight = T;
lastChange = "2024-03-30 11:28:57 +0000";
layers = (
{
layerId = m01;
shapes = (
{
closed = 1;
nodes = (
(40,1404,l),
(40,1140,l),
(452,1140,l),
(452,0,l),
(792,0,l),
(792,1140,l),
(1211,1140,l),
(1211,1404,l)
);
}
);
userData = {
assembly = "SVTCA[0]	/* SetFreedomAndProjectionVectorToAxis */
PUSHB[ ]	/* 1 value pushed */
0
RCVT[ ]	/* ReadCVT */
IF[ ]	/* If */
PUSHB[ ]	/* 1 value pushed */
6
MDAP[1]	/* MoveDirectAbsPt */
ELSE[ ]	/* Else */
PUSHB[ ]	/* 2 values pushed */
6 31
MIAP[0]	/* MoveIndirectAbsPt */
EIF[ ]	/* EndIf */
PUSHB[ ]	/* 1 value pushed */
0
RCVT[ ]	/* ReadCVT */
IF[ ]	/* If */
PUSHB[ ]	/* 1 value pushed */
2
MDAP[1]	/* MoveDirectAbsPt */
ELSE[ ]	/* Else */
PUSHB[ ]	/* 2 values pushed */
2 15
MIAP[0]	/* MoveIndirectAbsPt */
EIF[ ]	/* EndIf */
PUSHB[ ]	/* 1 value pushed */
6
SRP0[ ]	/* SetRefPoint0 */
PUSHB[ ]	/* 2 values pushed */
0 1
PUSHB[ ]	/* 1 value pushed */
10
CALL[ ]	/* CallFunction */
IF[ ]	/* If */
POP[ ]	/* PopTopStack */
MDRP[11000]	/* MoveDirectRelPt */
ELSE[ ]	/* Else */
MIRP[10100]	/* MoveIndirectRelPt */
EIF[ ]	/* EndIf */
PUSHB[ ]	/* 1 value pushed */
4
MDRP[10000]	/* MoveDirectRelPt */
IUP[0]	/* InterpolateUntPts */
IUP[1]	/* InterpolateUntPts */";
};
width = 1251;
}
);
note = uni0054;
unicode = 84;
},
{
glyphname = U;
kernLeft = U;
kernRight = J;
lastChange = "2024-03-30 11:28:57 +0000";
layers = (
{
layerId = m01;
shapes = (
{
closed = 1;
nodes = (
(805,462,ls),
(805,285,o),
(733,215,o),
(592,215,cs),
(453,215,o),
(383,292,o),
(380,447,cs),
(380,1376,l),
(40,1376,l),
(40,451,ls),
(43,144,o),
(252,-45,o),
(592,-45,cs),
(935,-45,o),
(1143,141,o),
(1143,460,cs),
(1143,1376,l),
(805,1376,l)
);
}
);
userData = {
assembly = "PUSHB[ ]	/* 3 values pushed */
5 18 19
SRP1[ ]	/* SetRefPoint1 */
SRP2[ ]	/* SetRefPoint2 */
IP[ ]	/* InterpolatePts */
SVTCA[0]	/* SetFreedomAndProjectionVectorToAxis */
PUSHB[ ]	/* 1 value pushed */
0
RCVT[ ]	/* ReadCVT */
IF[ ]	/* If */
PUSHB[ ]	/* 1 value pushed */
0
MDAP[1]	/* MoveDirectAbsPt */
ELSE[ ]	/* Else */
PUSHB[ ]	/* 2 values pushed */
0 31
MIAP[0]	/* MoveIndirectAbsPt */
EIF[ ]	/* EndIf */
PUSHB[ ]	/* 1 value pushed */
0
RCVT[ ]	/* ReadCVT */
IF[ ]	/* If */
PUSHB[ ]	/* 1 value pushed */
9
MDAP[1]	/* MoveDirectAbsPt */
ELSE[ ]	/* Else */
PUSHB[ ]	/* 2 values pushed */
9 31
MIAP[0]	/* MoveIndirectAbsPt */
EIF[ ]	/* EndIf */
PUSHB[ ]	/* 1 value pushed */
0
RCVT[ ]	/* ReadCVT */
IF[ ]	/* If */
PUSHB[ ]	/* 1 value pushed */
5
MDAP[1]	/* MoveDirectAbsPt */
ELSE[ ]	/* Else */
PUSHB[ ]	/* 2 values pushed */
5 15
MIAP[0]	/* MoveIndirectAbsPt */
EIF[ ]	/* EndIf */
PUSHB[ ]	/* 2 values pushed */
13 11
PUSHB[ ]	/* 1 value pushed */
10
CALL[ ]	/* CallFunction */
IF[ ]	/* If */
POP[ ]	/* PopTopStack */
MDRP[11000]	/* MoveDirectRelPt */
ELSE[ ]	/* Else */
MIRP[10100]	/* MoveIndirectRelPt */
EIF[ ]	/* EndIf */
IUP[0]	/* InterpolateUntPts */
IUP[1]	/* InterpolateUntPts */";
};
width = 1183;
}
);
note = uni0055;
unicode = 85;
},
{
glyphname = Uacute;
kernLeft = U;
kernRight = J;
lastChange = "2024-03-30 11:28:57 +0000";
layers = (
{
layerId = m01;
shapes = (
{
closed = 1;
nodes = (
(805,462,ls),
(805,285,o),
(733,215,o),
(592,215,cs),
(453,215,o),
(383,292,o),
(380,447,cs),
(380,1376,l),
(40,1376,l),
(40,451,ls),
(43,144,o),
(252,-45,o),
(592,-45,cs),
(935,-45,o),
(1143,141,o),
(1143,460,cs),
(1143,1376,l),
(805,1376,l)
);
},
{
closed = 1;
nodes = (
(704,1449,l),
(973,1752,l),
(629,1752,l),
(440,1449,l)
);
}
);
width = 1183;
}
);
note = uni00DA;
unicode = 218;
},
{
glyphname = Ucircumflex;
kernLeft = U;
kernRight = J;
lastChange = "2024-03-30 11:28:57 +0000";
layers = (
{
layerId = m01;
shapes = (
{
closed = 1;
nodes = (
(805,462,ls),
(805,285,o),
(733,215,o),
(592,215,cs),
(453,215,o),
(383,292,o),
(380,447,cs),
(380,1376,l),
(40,1376,l),
(40,451,ls),
(43,144,o),
(252,-45,o),
(592,-45,cs),
(935,-45,o),
(1143,141,o),
(1143,460,cs),
(1143,1376,l),
(805,1376,l)
);
},
{
closed = 1;
nodes = (
(495,1752,l),
(184,1485,l),
(184,1469,l),
(434,1469,l),
(590,1599,l),
(741,1469,l),
(997,1469,l),
(997,1481,l),
(680,1752,l)
);
}
);
width = 1183;
}
);
note = uni00DB;
unicode = 219;
},
{
glyphname = Udieresis;
kernLeft = U;
kernRight = J;
lastChange = "2024-03-30 11:28:57 +0000";
layers = (
{
layerId = m01;
shapes = (
{
closed = 1;
nodes = (
(805,462,ls),
(805,285,o),
(733,215,o),
(592,215,cs),
(453,215,o),
(383,292,o),
(380,447,cs),
(380,1376,l),
(40,1376,l),
(40,451,ls),
(43,144,o),
(252,-45,o),
(592,-45,cs),
(935,-45,o),
(1143,141,o),
(1143,460,cs),
(1143,1376,l),
(805,1376,l)
);
},
{
closed = 1;
nodes = (
(191,1516,o),
(253,1460,o),
(336,1460,cs),
(418,1460,o),
(481,1517,o),
(481,1587,cs),
(481,1658,o),
(418,1715,o),
(336,1715,cs),
(253,1715,o),
(191,1658,o),
(191,1588,cs)
);
},
{
closed = 1;
nodes = (
(691,1516,o),
(754,1460,o),
(836,1460,cs),
(919,1460,o),
(981,1517,o),
(981,1587,cs),
(981,1658,o),
(919,1715,o),
(836,1715,cs),
(754,1715,o),
(691,1658,o),
(691,1588,cs)
);
}
);
width = 1183;
}
);
note = uni00DC;
unicode = 220;
},
{
glyphname = Ugrave;
kernLeft = U;
kernRight = J;
lastChange = "2024-03-30 11:28:57 +0000";
layers = (
{
layerId = m01;
shapes = (
{
closed = 1;
nodes = (
(805,462,ls),
(805,285,o),
(733,215,o),
(592,215,cs),
(453,215,o),
(383,292,o),
(380,447,cs),
(380,1376,l),
(40,1376,l),
(40,451,ls),
(43,144,o),
(252,-45,o),
(592,-45,cs),
(935,-45,o),
(1143,141,o),
(1143,460,cs),
(1143,1376,l),
(805,1376,l)
);
},
{
closed = 1;
nodes = (
(209,1752,l),
(479,1449,l),
(743,1449,l),
(549,1752,l)
);
}
);
width = 1183;
}
);
note = uni00D9;
unicode = 217;
},
{
glyphname = V;
kernLeft = V;
kernRight = V;
lastChange = "2024-03-30 11:28:57 +0000";
layers = (
{
layerId = m01;
shapes = (
{
closed = 1;
nodes = (
(40,1404,l),
(508,0,l),
(878,0,l),
(1349,1404,l),
(972,1404,l),
(693,381,l),
(414,1404,l)
);
}
);
userData = {
assembly = "PUSHB[ ]	/* 3 values pushed */
0 7 8
SRP1[ ]	/* SetRefPoint1 */
SRP2[ ]	/* SetRefPoint2 */
IP[ ]	/* InterpolatePts */
SVTCA[0]	/* SetFreedomAndProjectionVectorToAxis */
PUSHB[ ]	/* 1 value pushed */
0
RCVT[ ]	/* ReadCVT */
IF[ ]	/* If */
PUSHB[ ]	/* 1 value pushed */
1
MDAP[1]	/* MoveDirectAbsPt */
ELSE[ ]	/* Else */
PUSHB[ ]	/* 2 values pushed */
1 31
MIAP[0]	/* MoveIndirectAbsPt */
EIF[ ]	/* EndIf */
PUSHB[ ]	/* 1 value pushed */
0
RCVT[ ]	/* ReadCVT */
IF[ ]	/* If */
PUSHB[ ]	/* 1 value pushed */
5
MDAP[1]	/* MoveDirectAbsPt */
ELSE[ ]	/* Else */
PUSHB[ ]	/* 2 values pushed */
5 31
MIAP[0]	/* MoveIndirectAbsPt */
EIF[ ]	/* EndIf */
PUSHB[ ]	/* 1 value pushed */
0
RCVT[ ]	/* ReadCVT */
IF[ ]	/* If */
PUSHB[ ]	/* 1 value pushed */
3
MDAP[1]	/* MoveDirectAbsPt */
ELSE[ ]	/* Else */
PUSHB[ ]	/* 2 values pushed */
3 15
MIAP[0]	/* MoveIndirectAbsPt */
EIF[ ]	/* EndIf */
PUSHB[ ]	/* 3 values pushed */
0 1 3
SRP1[ ]	/* SetRefPoint1 */
SRP2[ ]	/* SetRefPoint2 */
IP[ ]	/* InterpolatePts */
IUP[0]	/* InterpolateUntPts */
IUP[1]	/* InterpolateUntPts */";
};
width = 1389;
}
);
note = uni0056;
unicode = 86;
},
{
glyphname = W;
kernLeft = W;
kernRight = W;
lastChange = "2024-03-30 11:28:57 +0000";
layers = (
{
layerId = m01;
shapes = (
{
closed = 1;
nodes = (
(730,1404,l),
(535,523,l),
(376,1404,l),
(40,1404,l),
(339,0,l),
(689,0,l),
(872,800,l),
(1061,0,l),
(1412,0,l),
(1707,1404,l),
(1371,1404,l),
(1212,523,l),
(1016,1404,l)
);
}
);
userData = {
assembly = "PUSHB[ ]	/* 3 values pushed */
5 13 14
SRP1[ ]	/* SetRefPoint1 */
SRP2[ ]	/* SetRefPoint2 */
IP[ ]	/* InterpolatePts */
SVTCA[0]	/* SetFreedomAndProjectionVectorToAxis */
PUSHB[ ]	/* 1 value pushed */
0
RCVT[ ]	/* ReadCVT */
IF[ ]	/* If */
PUSHB[ ]	/* 1 value pushed */
1
MDAP[1]	/* MoveDirectAbsPt */
ELSE[ ]	/* Else */
PUSHB[ ]	/* 2 values pushed */
1 31
MIAP[0]	/* MoveIndirectAbsPt */
EIF[ ]	/* EndIf */
PUSHB[ ]	/* 1 value pushed */
0
RCVT[ ]	/* ReadCVT */
IF[ ]	/* If */
PUSHB[ ]	/* 1 value pushed */
8
MDAP[1]	/* MoveDirectAbsPt */
ELSE[ ]	/* Else */
PUSHB[ ]	/* 2 values pushed */
8 31
MIAP[0]	/* MoveIndirectAbsPt */
EIF[ ]	/* EndIf */
PUSHB[ ]	/* 1 value pushed */
0
RCVT[ ]	/* ReadCVT */
IF[ ]	/* If */
PUSHB[ ]	/* 1 value pushed */
11
MDAP[1]	/* MoveDirectAbsPt */
ELSE[ ]	/* Else */
PUSHB[ ]	/* 2 values pushed */
11 31
MIAP[0]	/* MoveIndirectAbsPt */
EIF[ ]	/* EndIf */
PUSHB[ ]	/* 1 value pushed */
0
RCVT[ ]	/* ReadCVT */
IF[ ]	/* If */
PUSHB[ ]	/* 1 value pushed */
3
MDAP[1]	/* MoveDirectAbsPt */
ELSE[ ]	/* Else */
PUSHB[ ]	/* 2 values pushed */
3 15
MIAP[0]	/* MoveIndirectAbsPt */
EIF[ ]	/* EndIf */
PUSHB[ ]	/* 1 value pushed */
0
RCVT[ ]	/* ReadCVT */
IF[ ]	/* If */
PUSHB[ ]	/* 1 value pushed */
6
MDAP[1]	/* MoveDirectAbsPt */
ELSE[ ]	/* Else */
PUSHB[ ]	/* 2 values pushed */
6 15
MIAP[0]	/* MoveIndirectAbsPt */
EIF[ ]	/* EndIf */
PUSHB[ ]	/* 3 values pushed */
0 1 3
SRP1[ ]	/* SetRefPoint1 */
SRP2[ ]	/* SetRefPoint2 */
IP[ ]	/* InterpolatePts */
PUSHB[ ]	/* 3 values pushed */
5 1 3
SRP1[ ]	/* SetRefPoint1 */
SRP2[ ]	/* SetRefPoint2 */
IP[ ]	/* InterpolatePts */
PUSHB[ ]	/* 3 values pushed */
10 1 3
SRP1[ ]	/* SetRefPoint1 */
SRP2[ ]	/* SetRefPoint2 */
IP[ ]	/* InterpolatePts */
IUP[0]	/* InterpolateUntPts */
IUP[1]	/* InterpolateUntPts */";
};
width = 1747;
}
);
note = uni0057;
unicode = 87;
},
{
glyphname = X;
kernLeft = X;
kernRight = X;
lastChange = "2024-03-30 11:28:57 +0000";
layers = (
{
layerId = m01;
shapes = (
{
closed = 1;
nodes = (
(49,1404,l),
(444,707,l),
(40,0,l),
(430,0,l),
(664,475,l),
(900,0,l),
(1291,0,l),
(887,707,l),
(1281,1404,l),
(894,1404,l),
(664,935,l),
(436,1404,l)
);
}
);
userData = {
assembly = "SVTCA[0]	/* SetFreedomAndProjectionVectorToAxis */
PUSHB[ ]	/* 1 value pushed */
0
RCVT[ ]	/* ReadCVT */
IF[ ]	/* If */
PUSHB[ ]	/* 1 value pushed */
1
MDAP[1]	/* MoveDirectAbsPt */
ELSE[ ]	/* Else */
PUSHB[ ]	/* 2 values pushed */
1 31
MIAP[0]	/* MoveIndirectAbsPt */
EIF[ ]	/* EndIf */
PUSHB[ ]	/* 1 value pushed */
0
RCVT[ ]	/* ReadCVT */
IF[ ]	/* If */
PUSHB[ ]	/* 1 value pushed */
10
MDAP[1]	/* MoveDirectAbsPt */
ELSE[ ]	/* Else */
PUSHB[ ]	/* 2 values pushed */
10 31
MIAP[0]	/* MoveIndirectAbsPt */
EIF[ ]	/* EndIf */
PUSHB[ ]	/* 1 value pushed */
0
RCVT[ ]	/* ReadCVT */
IF[ ]	/* If */
PUSHB[ ]	/* 1 value pushed */
4
MDAP[1]	/* MoveDirectAbsPt */
ELSE[ ]	/* Else */
PUSHB[ ]	/* 2 values pushed */
4 15
MIAP[0]	/* MoveIndirectAbsPt */
EIF[ ]	/* EndIf */
PUSHB[ ]	/* 1 value pushed */
0
RCVT[ ]	/* ReadCVT */
IF[ ]	/* If */
PUSHB[ ]	/* 1 value pushed */
7
MDAP[1]	/* MoveDirectAbsPt */
ELSE[ ]	/* Else */
PUSHB[ ]	/* 2 values pushed */
7 15
MIAP[0]	/* MoveIndirectAbsPt */
EIF[ ]	/* EndIf */
PUSHB[ ]	/* 3 values pushed */
0 1 4
SRP1[ ]	/* SetRefPoint1 */
SRP2[ ]	/* SetRefPoint2 */
IP[ ]	/* InterpolatePts */
PUSHB[ ]	/* 3 values pushed */
6 1 4
SRP1[ ]	/* SetRefPoint1 */
SRP2[ ]	/* SetRefPoint2 */
IP[ ]	/* InterpolatePts */
PUSHB[ ]	/* 3 values pushed */
3 0 6
SRP1[ ]	/* SetRefPoint1 */
SRP2[ ]	/* SetRefPoint2 */
IP[ ]	/* InterpolatePts */
PUSHB[ ]	/* 3 values pushed */
9 6 0
SRP1[ ]	/* SetRefPoint1 */
SRP2[ ]	/* SetRefPoint2 */
IP[ ]	/* InterpolatePts */
IUP[0]	/* InterpolateUntPts */
IUP[1]	/* InterpolateUntPts */";
};
width = 1331;
}
);
note = uni0058;
unicode = 88;
},
{
glyphname = Y;
kernLeft = Y;
kernRight = Y;
lastChange = "2024-03-30 11:28:57 +0000";
layers = (
{
layerId = m01;
shapes = (
{
closed = 1;
nodes = (
(40,1404,l),
(491,505,l),
(491,0,l),
(833,0,l),
(833,505,l),
(1283,1404,l),
(921,1404,l),
(661,793,l),
(403,1404,l)
);
}
);
userData = {
assembly = "SVTCA[0]	/* SetFreedomAndProjectionVectorToAxis */
PUSHB[ ]	/* 1 value pushed */
0
RCVT[ ]	/* ReadCVT */
IF[ ]	/* If */
PUSHB[ ]	/* 1 value pushed */
1
MDAP[1]	/* MoveDirectAbsPt */
ELSE[ ]	/* Else */
PUSHB[ ]	/* 2 values pushed */
1 31
MIAP[0]	/* MoveIndirectAbsPt */
EIF[ ]	/* EndIf */
PUSHB[ ]	/* 1 value pushed */
0
RCVT[ ]	/* ReadCVT */
IF[ ]	/* If */
PUSHB[ ]	/* 1 value pushed */
7
MDAP[1]	/* MoveDirectAbsPt */
ELSE[ ]	/* Else */
PUSHB[ ]	/* 2 values pushed */
7 31
MIAP[0]	/* MoveIndirectAbsPt */
EIF[ ]	/* EndIf */
PUSHB[ ]	/* 1 value pushed */
0
RCVT[ ]	/* ReadCVT */
IF[ ]	/* If */
PUSHB[ ]	/* 1 value pushed */
4
MDAP[1]	/* MoveDirectAbsPt */
ELSE[ ]	/* Else */
PUSHB[ ]	/* 2 values pushed */
4 15
MIAP[0]	/* MoveIndirectAbsPt */
EIF[ ]	/* EndIf */
PUSHB[ ]	/* 3 values pushed */
0 1 4
SRP1[ ]	/* SetRefPoint1 */
SRP2[ ]	/* SetRefPoint2 */
IP[ ]	/* InterpolatePts */
IUP[0]	/* InterpolateUntPts */
IUP[1]	/* InterpolateUntPts */";
};
width = 1323;
}
);
note = uni0059;
unicode = 89;
},
{
glyphname = Yacute;
kernLeft = Y;
kernRight = Y;
lastChange = "2024-03-30 11:28:57 +0000";
layers = (
{
layerId = m01;
shapes = (
{
closed = 1;
nodes = (
(40,1404,l),
(491,505,l),
(491,0,l),
(833,0,l),
(833,505,l),
(1283,1404,l),
(921,1404,l),
(661,793,l),
(403,1404,l)
);
},
{
closed = 1;
nodes = (
(779,1475,l),
(1046,1778,l),
(704,1778,l),
(515,1475,l)
);
}
);
width = 1323;
}
);
note = uni00DD;
unicode = 221;
},
{
glyphname = Ydieresis;
kernLeft = Y;
kernRight = Y;
lastChange = "2024-03-30 11:28:57 +0000";
layers = (
{
layerId = m01;
shapes = (
{
closed = 1;
nodes = (
(40,1404,l),
(491,505,l),
(491,0,l),
(833,0,l),
(833,505,l),
(1283,1404,l),
(921,1404,l),
(661,793,l),
(403,1404,l)
);
},
{
closed = 1;
nodes = (
(265,1544,o),
(328,1485,o),
(410,1485,cs),
(493,1485,o),
(555,1543,o),
(555,1614,cs),
(555,1685,o),
(493,1739,o),
(410,1739,cs),
(328,1739,o),
(265,1685,o),
(265,1613,cs)
);
},
{
closed = 1;
nodes = (
(764,1544,o),
(827,1485,o),
(910,1485,cs),
(993,1485,o),
(1056,1543,o),
(1056,1614,cs),
(1056,1685,o),
(993,1739,o),
(910,1739,cs),
(827,1739,o),
(764,1685,o),
(764,1613,cs)
);
}
);
width = 1323;
}
);
note = uni0178;
unicode = 376;
},
{
glyphname = Z;
kernLeft = Z;
kernRight = Z;
lastChange = "2024-03-30 11:28:57 +0000";
layers = (
{
layerId = m01;
shapes = (
{
closed = 1;
nodes = (
(1130,1404,l),
(40,1404,l),
(40,1140,l),
(711,1140,l),
(45,178,l),
(45,0,l),
(1135,0,l),
(1135,260,l),
(466,260,l),
(1130,1228,l)
);
}
);
userData = {
assembly = "SVTCA[0]	/* SetFreedomAndProjectionVectorToAxis */
PUSHB[ ]	/* 1 value pushed */
0
RCVT[ ]	/* ReadCVT */
IF[ ]	/* If */
PUSHB[ ]	/* 1 value pushed */
7
MDAP[1]	/* MoveDirectAbsPt */
ELSE[ ]	/* Else */
PUSHB[ ]	/* 2 values pushed */
7 31
MIAP[0]	/* MoveIndirectAbsPt */
EIF[ ]	/* EndIf */
PUSHB[ ]	/* 1 value pushed */
0
RCVT[ ]	/* ReadCVT */
IF[ ]	/* If */
PUSHB[ ]	/* 1 value pushed */
2
MDAP[1]	/* MoveDirectAbsPt */
ELSE[ ]	/* Else */
PUSHB[ ]	/* 2 values pushed */
2 15
MIAP[0]	/* MoveIndirectAbsPt */
EIF[ ]	/* EndIf */
PUSHB[ ]	/* 2 values pushed */
0 1
PUSHB[ ]	/* 1 value pushed */
10
CALL[ ]	/* CallFunction */
IF[ ]	/* If */
POP[ ]	/* PopTopStack */
MDRP[11000]	/* MoveDirectRelPt */
ELSE[ ]	/* Else */
MIRP[10100]	/* MoveIndirectRelPt */
EIF[ ]	/* EndIf */
PUSHB[ ]	/* 3 values pushed */
4 0 2
SRP1[ ]	/* SetRefPoint1 */
SRP2[ ]	/* SetRefPoint2 */
IP[ ]	/* InterpolatePts */
PUSHB[ ]	/* 1 value pushed */
7
SRP0[ ]	/* SetRefPoint0 */
PUSHB[ ]	/* 2 values pushed */
5 1
PUSHB[ ]	/* 1 value pushed */
10
CALL[ ]	/* CallFunction */
IF[ ]	/* If */
POP[ ]	/* PopTopStack */
MDRP[11000]	/* MoveDirectRelPt */
ELSE[ ]	/* Else */
MIRP[10100]	/* MoveIndirectRelPt */
EIF[ ]	/* EndIf */
PUSHB[ ]	/* 3 values pushed */
9 5 7
SRP1[ ]	/* SetRefPoint1 */
SRP2[ ]	/* SetRefPoint2 */
IP[ ]	/* InterpolatePts */
IUP[0]	/* InterpolateUntPts */
IUP[1]	/* InterpolateUntPts */";
};
width = 1175;
}
);
note = uni005A;
unicode = 90;
},
{
glyphname = Zcaron;
kernLeft = Z;
kernRight = Z;
lastChange = "2024-03-30 11:28:57 +0000";
layers = (
{
layerId = m01;
shapes = (
{
closed = 1;
nodes = (
(1130,1404,l),
(40,1404,l),
(40,1140,l),
(711,1140,l),
(45,178,l),
(45,0,l),
(1135,0,l),
(1135,260,l),
(466,260,l),
(1130,1228,l)
);
},
{
closed = 1;
nodes = (
(173,1780,l),
(173,1771,l),
(488,1496,l),
(696,1496,l),
(1012,1769,l),
(1012,1780,l),
(734,1780,l),
(592,1651,l),
(453,1780,l)
);
}
);
width = 1175;
}
);
note = uni017D;
unicode = 381;
},
{
glyphname = a;
kernLeft = a;
kernRight = a;
lastChange = "2024-03-30 11:28:57 +0000";
layers = (
{
layerId = m01;
shapes = (
{
closed = 1;
nodes = (
(1000,-9,l),
(971,41,o),
(957,114,o),
(955,212,cs),
(955,671,ls),
(952,900,o),
(790,1034,o),
(522,1034,cs),
(255,1034,o),
(65,898,o),
(65,696,c),
(389,696,l),
(389,771,o),
(428,809,o),
(505,809,cs),
(588,809,o),
(630,761,o),
(630,667,cs),
(630,611,l),
(529,611,ls),
(211,611,o),
(40,494,o),
(40,268,cs),
(40,88,o),
(199,-45,o),
(394,-45,cs),
(500,-45,o),
(584,-8,o),
(644,67,c),
(653,28,o),
(664,-3,o),
(675,-25,c),
(1000,-25,l)
);
},
{
closed = 1;
nodes = (
(410,185,o),
(367,226,o),
(367,286,cs),
(367,387,o),
(422,437,o),
(533,437,cs),
(630,437,l),
(630,271,l),
(607,229,o),
(551,185,o),
(473,185,cs)
);
}
);
userData = {
assembly = "SVTCA[0]	/* SetFreedomAndProjectionVectorToAxis */
PUSHB[ ]	/* 1 value pushed */
0
RCVT[ ]	/* ReadCVT */
IF[ ]	/* If */
PUSHB[ ]	/* 1 value pushed */
19
MDAP[1]	/* MoveDirectAbsPt */
ELSE[ ]	/* Else */
PUSHB[ ]	/* 2 values pushed */
19 27
MIAP[0]	/* MoveIndirectAbsPt */
EIF[ ]	/* EndIf */
PUSHB[ ]	/* 1 value pushed */
0
RCVT[ ]	/* ReadCVT */
IF[ ]	/* If */
PUSHB[ ]	/* 1 value pushed */
4
MDAP[1]	/* MoveDirectAbsPt */
ELSE[ ]	/* Else */
PUSHB[ ]	/* 2 values pushed */
4 15
MIAP[0]	/* MoveIndirectAbsPt */
EIF[ ]	/* EndIf */
PUSHB[ ]	/* 1 value pushed */
0
RCVT[ ]	/* ReadCVT */
IF[ ]	/* If */
PUSHB[ ]	/* 1 value pushed */
0
MDAP[1]	/* MoveDirectAbsPt */
ELSE[ ]	/* Else */
PUSHB[ ]	/* 2 values pushed */
0 15
MIAP[0]	/* MoveIndirectAbsPt */
EIF[ ]	/* EndIf */
PUSHB[ ]	/* 1 value pushed */
4
SRP0[ ]	/* SetRefPoint0 */
PUSHB[ ]	/* 2 values pushed */
27 9
PUSHB[ ]	/* 1 value pushed */
10
CALL[ ]	/* CallFunction */
IF[ ]	/* If */
POP[ ]	/* PopTopStack */
MDRP[11000]	/* MoveDirectRelPt */
ELSE[ ]	/* Else */
MIRP[10100]	/* MoveIndirectRelPt */
EIF[ ]	/* EndIf */
PUSHB[ ]	/* 3 values pushed */
2 4 27
SRP1[ ]	/* SetRefPoint1 */
SRP2[ ]	/* SetRefPoint2 */
IP[ ]	/* InterpolatePts */
PUSHB[ ]	/* 3 values pushed */
10 4 19
SRP1[ ]	/* SetRefPoint1 */
SRP2[ ]	/* SetRefPoint2 */
IP[ ]	/* InterpolatePts */
PUSHB[ ]	/* 1 value pushed */
10
MDAP[1]	/* MoveDirectAbsPt */
PUSHB[ ]	/* 1 value pushed */
19
SRP0[ ]	/* SetRefPoint0 */
PUSHB[ ]	/* 2 values pushed */
14 9
PUSHB[ ]	/* 1 value pushed */
10
CALL[ ]	/* CallFunction */
IF[ ]	/* If */
POP[ ]	/* PopTopStack */
MDRP[11000]	/* MoveDirectRelPt */
ELSE[ ]	/* Else */
MIRP[10100]	/* MoveIndirectRelPt */
EIF[ ]	/* EndIf */
PUSHB[ ]	/* 3 values pushed */
16 14 10
SRP1[ ]	/* SetRefPoint1 */
SRP2[ ]	/* SetRefPoint2 */
IP[ ]	/* InterpolatePts */
PUSHB[ ]	/* 5 values pushed */
188 16 204 16 2
DELTAP1[ ]	/* DeltaExceptionP1 */
PUSHB[ ]	/* 3 values pushed */
94 16 1
DELTAP1[ ]	/* DeltaExceptionP1 */
NPUSHB[ ]	/* 9 values pushed */
12 16 28 16 44 16 60 16 4
DELTAP1[ ]	/* DeltaExceptionP1 */
PUSHB[ ]	/* 5 values pushed */
108 16 124 16 2
DELTAP1[ ]	/* DeltaExceptionP1 */
PUSHB[ ]	/* 1 value pushed */
10
SRP0[ ]	/* SetRefPoint0 */
PUSHB[ ]	/* 2 values pushed */
31 8
PUSHB[ ]	/* 1 value pushed */
10
CALL[ ]	/* CallFunction */
IF[ ]	/* If */
POP[ ]	/* PopTopStack */
MDRP[11000]	/* MoveDirectRelPt */
ELSE[ ]	/* Else */
MIRP[10100]	/* MoveIndirectRelPt */
EIF[ ]	/* EndIf */
IUP[0]	/* InterpolateUntPts */
IUP[1]	/* InterpolateUntPts */";
};
width = 1040;
}
);
note = uni0061;
unicode = 97;
},
{
glyphname = aacute;
kernLeft = a;
kernRight = a;
lastChange = "2024-03-30 11:28:57 +0000";
layers = (
{
layerId = m01;
shapes = (
{
closed = 1;
nodes = (
(1000,-9,l),
(971,41,o),
(957,114,o),
(955,212,cs),
(955,671,ls),
(952,900,o),
(790,1034,o),
(522,1034,cs),
(255,1034,o),
(65,898,o),
(65,696,c),
(389,696,l),
(389,771,o),
(428,809,o),
(505,809,cs),
(588,809,o),
(630,761,o),
(630,667,cs),
(630,611,l),
(529,611,ls),
(211,611,o),
(40,494,o),
(40,268,cs),
(40,88,o),
(199,-45,o),
(394,-45,cs),
(500,-45,o),
(584,-8,o),
(644,67,c),
(653,28,o),
(664,-3,o),
(675,-25,c),
(1000,-25,l)
);
},
{
closed = 1;
nodes = (
(410,185,o),
(367,226,o),
(367,286,cs),
(367,387,o),
(422,437,o),
(533,437,cs),
(630,437,l),
(630,271,l),
(607,229,o),
(551,185,o),
(473,185,cs)
);
},
{
closed = 1;
nodes = (
(628,1152,l),
(896,1453,l),
(552,1453,l),
(363,1152,l)
);
}
);
width = 1040;
}
);
note = uni00E1;
unicode = 225;
},
{
glyphname = acircumflex;
kernLeft = a;
kernRight = a;
lastChange = "2024-03-30 11:28:57 +0000";
layers = (
{
layerId = m01;
shapes = (
{
closed = 1;
nodes = (
(1000,-9,l),
(971,41,o),
(957,114,o),
(955,212,cs),
(955,671,ls),
(952,900,o),
(790,1034,o),
(522,1034,cs),
(255,1034,o),
(65,898,o),
(65,696,c),
(389,696,l),
(389,771,o),
(428,809,o),
(505,809,cs),
(588,809,o),
(630,761,o),
(630,667,cs),
(630,611,l),
(529,611,ls),
(211,611,o),
(40,494,o),
(40,268,cs),
(40,88,o),
(199,-45,o),
(394,-45,cs),
(500,-45,o),
(584,-8,o),
(644,67,c),
(653,28,o),
(664,-3,o),
(675,-25,c),
(1000,-25,l)
);
},
{
closed = 1;
nodes = (
(410,185,o),
(367,226,o),
(367,286,cs),
(367,387,o),
(422,437,o),
(533,437,cs),
(630,437,l),
(630,271,l),
(607,229,o),
(551,185,o),
(473,185,cs)
);
},
{
closed = 1;
nodes = (
(419,1453,l),
(108,1187,l),
(108,1169,l),
(358,1169,l),
(511,1300,l),
(664,1169,l),
(922,1169,l),
(922,1183,l),
(606,1453,l)
);
}
);
width = 1040;
}
);
note = uni00E2;
unicode = 226;
},
{
glyphname = adieresis;
kernLeft = a;
kernRight = a;
lastChange = "2024-03-30 11:28:57 +0000";
layers = (
{
layerId = m01;
shapes = (
{
closed = 1;
nodes = (
(1000,-9,l),
(971,41,o),
(957,114,o),
(955,212,cs),
(955,671,ls),
(952,900,o),
(790,1034,o),
(522,1034,cs),
(255,1034,o),
(65,898,o),
(65,696,c),
(389,696,l),
(389,771,o),
(428,809,o),
(505,809,cs),
(588,809,o),
(630,761,o),
(630,667,cs),
(630,611,l),
(529,611,ls),
(211,611,o),
(40,494,o),
(40,268,cs),
(40,88,o),
(199,-45,o),
(394,-45,cs),
(500,-45,o),
(584,-8,o),
(644,67,c),
(653,28,o),
(664,-3,o),
(675,-25,c),
(1000,-25,l)
);
},
{
closed = 1;
nodes = (
(410,185,o),
(367,226,o),
(367,286,cs),
(367,387,o),
(422,437,o),
(533,437,cs),
(630,437,l),
(630,271,l),
(607,229,o),
(551,185,o),
(473,185,cs)
);
},
{
closed = 1;
nodes = (
(115,1220,o),
(178,1161,o),
(260,1161,cs),
(343,1161,o),
(406,1219,o),
(406,1289,cs),
(406,1361,o),
(343,1417,o),
(260,1417,cs),
(178,1417,o),
(115,1361,o),
(115,1288,cs)
);
},
{
closed = 1;
nodes = (
(615,1220,o),
(677,1161,o),
(760,1161,cs),
(842,1161,o),
(905,1219,o),
(905,1289,cs),
(905,1361,o),
(842,1417,o),
(760,1417,cs),
(677,1417,o),
(615,1361,o),
(615,1288,cs)
);
}
);
width = 1040;
}
);
note = uni00E4;
unicode = 228;
},
{
glyphname = agrave;
kernLeft = a;
kernRight = a;
lastChange = "2024-03-30 11:28:57 +0000";
layers = (
{
layerId = m01;
shapes = (
{
closed = 1;
nodes = (
(1000,-9,l),
(971,41,o),
(957,114,o),
(955,212,cs),
(955,671,ls),
(952,900,o),
(790,1034,o),
(522,1034,cs),
(255,1034,o),
(65,898,o),
(65,696,c),
(389,696,l),
(389,771,o),
(428,809,o),
(505,809,cs),
(588,809,o),
(630,761,o),
(630,667,cs),
(630,611,l),
(529,611,ls),
(211,611,o),
(40,494,o),
(40,268,cs),
(40,88,o),
(199,-45,o),
(394,-45,cs),
(500,-45,o),
(584,-8,o),
(644,67,c),
(653,28,o),
(664,-3,o),
(675,-25,c),
(1000,-25,l)
);
},
{
closed = 1;
nodes = (
(410,185,o),
(367,226,o),
(367,286,cs),
(367,387,o),
(422,437,o),
(533,437,cs),
(630,437,l),
(630,271,l),
(607,229,o),
(551,185,o),
(473,185,cs)
);
},
{
closed = 1;
nodes = (
(131,1453,l),
(401,1152,l),
(664,1152,l),
(473,1453,l)
);
}
);
width = 1040;
}
);
note = uni00E0;
unicode = 224;
},
{
glyphname = aring;
kernLeft = a;
kernRight = a;
lastChange = "2024-03-30 11:28:57 +0000";
layers = (
{
layerId = m01;
shapes = (
{
closed = 1;
nodes = (
(1000,-9,l),
(971,41,o),
(957,114,o),
(955,212,cs),
(955,671,ls),
(952,900,o),
(790,1034,o),
(522,1034,cs),
(255,1034,o),
(65,898,o),
(65,696,c),
(389,696,l),
(389,771,o),
(428,809,o),
(505,809,cs),
(588,809,o),
(630,761,o),
(630,667,cs),
(630,611,l),
(529,611,ls),
(211,611,o),
(40,494,o),
(40,268,cs),
(40,88,o),
(199,-45,o),
(394,-45,cs),
(500,-45,o),
(584,-8,o),
(644,67,c),
(653,28,o),
(664,-3,o),
(675,-25,c),
(1000,-25,l)
);
},
{
closed = 1;
nodes = (
(410,185,o),
(367,226,o),
(367,286,cs),
(367,387,o),
(422,437,o),
(533,437,cs),
(630,437,l),
(630,271,l),
(607,229,o),
(551,185,o),
(473,185,cs)
);
},
{
closed = 1;
nodes = (
(297,1232,o),
(389,1148,o),
(516,1148,cs),
(636,1148,o),
(730,1232,o),
(730,1341,cs),
(730,1452,o),
(633,1537,o),
(516,1537,cs),
(392,1537,o),
(297,1452,o),
(297,1341,cs)
);
},
{
closed = 1;
nodes = (
(379,1239,o),
(379,1444,o),
(516,1444,cs),
(644,1444,o),
(647,1239,o),
(516,1239,cs)
);
}
);
width = 1040;
}
);
note = uni00E5;
unicode = 229;
},
{
glyphname = atilde;
kernLeft = a;
kernRight = a;
lastChange = "2024-03-30 11:28:57 +0000";
layers = (
{
layerId = m01;
shapes = (
{
closed = 1;
nodes = (
(1000,-9,l),
(971,41,o),
(957,114,o),
(955,212,cs),
(955,671,ls),
(952,900,o),
(790,1034,o),
(522,1034,cs),
(255,1034,o),
(65,898,o),
(65,696,c),
(389,696,l),
(389,771,o),
(428,809,o),
(505,809,cs),
(588,809,o),
(630,761,o),
(630,667,cs),
(630,611,l),
(529,611,ls),
(211,611,o),
(40,494,o),
(40,268,cs),
(40,88,o),
(199,-45,o),
(394,-45,cs),
(500,-45,o),
(584,-8,o),
(644,67,c),
(653,28,o),
(664,-3,o),
(675,-25,c),
(1000,-25,l)
);
},
{
closed = 1;
nodes = (
(410,185,o),
(367,226,o),
(367,286,cs),
(367,387,o),
(422,437,o),
(533,437,cs),
(630,437,l),
(630,271,l),
(607,229,o),
(551,185,o),
(473,185,cs)
);
},
{
closed = 1;
nodes = (
(705,1397,o),
(671,1370,o),
(628,1370,cs),
(528,1370,o),
(463,1449,o),
(361,1449,cs),
(237,1449,o),
(137,1329,o),
(137,1187,c),
(318,1178,l),
(318,1235,o),
(353,1264,o),
(391,1264,cs),
(424,1264,o),
(467,1251,o),
(519,1223,cs),
(571,1196,o),
(618,1183,o),
(660,1183,cs),
(786,1183,o),
(883,1299,o),
(883,1447,c),
(705,1458,l)
);
}
);
width = 1040;
}
);
note = uni00E3;
unicode = 227;
},
{
glyphname = ae;
lastChange = "2024-03-30 11:28:57 +0000";
layers = (
{
layerId = m01;
shapes = (
{
closed = 1;
nodes = (
(1320,-45,o),
(1482,3,o),
(1570,73,c),
(1491,271,l),
(1433,243,ls),
(1371,218,o),
(1299,205,o),
(1218,205,cs),
(1086,205,o),
(1007,268,o),
(988,392,c),
(1603,392,l),
(1603,561,ls),
(1603,853,o),
(1435,1034,o),
(1164,1034,cs),
(1038,1035,o),
(935,1007,o),
(855,946,c),
(779,1004,o),
(676,1034,o),
(547,1034,cs),
(264,1034,o),
(76,898,o),
(76,705,c),
(401,688,l),
(401,741,o),
(448,784,o),
(545,784,cs),
(625,784,o),
(670,733,o),
(670,649,cs),
(670,606,l),
(533,606,ls),
(209,603,o),
(40,487,o),
(40,286,cs),
(40,79,o),
(190,-45,o),
(448,-45,cs),
(592,-45,o),
(721,-1,o),
(808,84,c),
(898,-2,o),
(1020,-45,o),
(1173,-45,cs)
);
},
{
closed = 1;
nodes = (
(413,178,o),
(364,213,o),
(364,284,cs),
(364,356,o),
(436,408,o),
(538,408,cs),
(670,408,l),
(670,239,l),
(620,198,o),
(566,178,o),
(509,178,cs)
);
},
{
closed = 1;
nodes = (
(1242,784,o),
(1285,724,o),
(1285,622,cs),
(1285,595,l),
(988,595,l),
(1007,724,o),
(1056,784,o),
(1164,784,cs)
);
}
);
userData = {
assembly = "SVTCA[0]	/* SetFreedomAndProjectionVectorToAxis */
PUSHB[ ]	/* 1 value pushed */
0
RCVT[ ]	/* ReadCVT */
IF[ ]	/* If */
PUSHB[ ]	/* 1 value pushed */
23
MDAP[1]	/* MoveDirectAbsPt */
ELSE[ ]	/* Else */
PUSHB[ ]	/* 2 values pushed */
23 27
MIAP[0]	/* MoveIndirectAbsPt */
EIF[ ]	/* EndIf */
PUSHB[ ]	/* 1 value pushed */
0
RCVT[ ]	/* ReadCVT */
IF[ ]	/* If */
PUSHB[ ]	/* 1 value pushed */
27
MDAP[1]	/* MoveDirectAbsPt */
ELSE[ ]	/* Else */
PUSHB[ ]	/* 2 values pushed */
27 27
MIAP[0]	/* MoveIndirectAbsPt */
EIF[ ]	/* EndIf */
PUSHB[ ]	/* 1 value pushed */
0
RCVT[ ]	/* ReadCVT */
IF[ ]	/* If */
PUSHB[ ]	/* 1 value pushed */
5
MDAP[1]	/* MoveDirectAbsPt */
ELSE[ ]	/* Else */
PUSHB[ ]	/* 2 values pushed */
5 15
MIAP[0]	/* MoveIndirectAbsPt */
EIF[ ]	/* EndIf */
PUSHB[ ]	/* 1 value pushed */
0
MDRP[10000]	/* MoveDirectRelPt */
PUSHB[ ]	/* 1 value pushed */
0
MDAP[1]	/* MoveDirectAbsPt */
PUSHB[ ]	/* 3 values pushed */
2 5 23
SRP1[ ]	/* SetRefPoint1 */
SRP2[ ]	/* SetRefPoint2 */
IP[ ]	/* InterpolatePts */
PUSHB[ ]	/* 3 values pushed */
11 23 5
SRP1[ ]	/* SetRefPoint1 */
SRP2[ ]	/* SetRefPoint2 */
IP[ ]	/* InterpolatePts */
PUSHB[ ]	/* 1 value pushed */
11
MDAP[1]	/* MoveDirectAbsPt */
PUSHB[ ]	/* 1 value pushed */
23
SRP0[ ]	/* SetRefPoint0 */
PUSHB[ ]	/* 2 values pushed */
16 9
PUSHB[ ]	/* 1 value pushed */
10
CALL[ ]	/* CallFunction */
IF[ ]	/* If */
POP[ ]	/* PopTopStack */
MDRP[11000]	/* MoveDirectRelPt */
ELSE[ ]	/* Else */
MIRP[10100]	/* MoveIndirectRelPt */
EIF[ ]	/* EndIf */
PUSHB[ ]	/* 3 values pushed */
19 11 16
SRP1[ ]	/* SetRefPoint1 */
SRP2[ ]	/* SetRefPoint2 */
IP[ ]	/* InterpolatePts */
NPUSHB[ ]	/* 9 values pushed */
12 19 28 19 44 19 60 19 4
DELTAP1[ ]	/* DeltaExceptionP1 */
PUSHB[ ]	/* 5 values pushed */
186 19 202 19 2
DELTAP1[ ]	/* DeltaExceptionP1 */
PUSHB[ ]	/* 3 values pushed */
25 23 5
SRP1[ ]	/* SetRefPoint1 */
SRP2[ ]	/* SetRefPoint2 */
IP[ ]	/* InterpolatePts */
PUSHB[ ]	/* 3 values pushed */
54 0 27
SRP1[ ]	/* SetRefPoint1 */
SRP2[ ]	/* SetRefPoint2 */
IP[ ]	/* InterpolatePts */
PUSHB[ ]	/* 1 value pushed */
54
MDAP[1]	/* MoveDirectAbsPt */
PUSHB[ ]	/* 3 values pushed */
191 54 1
DELTAP2[ ]	/* DeltaExceptionP2 */
PUSHB[ ]	/* 3 values pushed */
143 54 1
DELTAP3[ ]	/* DeltaExceptionP3 */
PUSHB[ ]	/* 5 values pushed */
31 54 47 54 2
DELTAP2[ ]	/* DeltaExceptionP2 */
PUSHB[ ]	/* 3 values pushed */
143 54 1
DELTAP1[ ]	/* DeltaExceptionP1 */
PUSHB[ ]	/* 2 values pushed */
31 8
PUSHB[ ]	/* 1 value pushed */
10
CALL[ ]	/* CallFunction */
IF[ ]	/* If */
POP[ ]	/* PopTopStack */
MDRP[11000]	/* MoveDirectRelPt */
ELSE[ ]	/* Else */
MIRP[10100]	/* MoveIndirectRelPt */
EIF[ ]	/* EndIf */
PUSHB[ ]	/* 1 value pushed */
0
SRP0[ ]	/* SetRefPoint0 */
PUSHB[ ]	/* 2 values pushed */
35 1
PUSHB[ ]	/* 1 value pushed */
10
CALL[ ]	/* CallFunction */
IF[ ]	/* If */
POP[ ]	/* PopTopStack */
MDRP[11000]	/* MoveDirectRelPt */
ELSE[ ]	/* Else */
MIRP[10100]	/* MoveIndirectRelPt */
EIF[ ]	/* EndIf */
PUSHB[ ]	/* 3 values pushed */
38 35 31
SRP1[ ]	/* SetRefPoint1 */
SRP2[ ]	/* SetRefPoint2 */
IP[ ]	/* InterpolatePts */
PUSHB[ ]	/* 1 value pushed */
5
SRP0[ ]	/* SetRefPoint0 */
PUSHB[ ]	/* 2 values pushed */
42 9
PUSHB[ ]	/* 1 value pushed */
10
CALL[ ]	/* CallFunction */
IF[ ]	/* If */
POP[ ]	/* PopTopStack */
MDRP[11000]	/* MoveDirectRelPt */
ELSE[ ]	/* Else */
MIRP[10100]	/* MoveIndirectRelPt */
EIF[ ]	/* EndIf */
PUSHB[ ]	/* 1 value pushed */
11
SRP0[ ]	/* SetRefPoint0 */
PUSHB[ ]	/* 2 values pushed */
46 8
PUSHB[ ]	/* 1 value pushed */
10
CALL[ ]	/* CallFunction */
IF[ ]	/* If */
POP[ ]	/* PopTopStack */
MDRP[11000]	/* MoveDirectRelPt */
ELSE[ ]	/* Else */
MIRP[10100]	/* MoveIndirectRelPt */
EIF[ ]	/* EndIf */
PUSHB[ ]	/* 1 value pushed */
27
SRP0[ ]	/* SetRefPoint0 */
PUSHB[ ]	/* 2 values pushed */
51 1
PUSHB[ ]	/* 1 value pushed */
10
CALL[ ]	/* CallFunction */
IF[ ]	/* If */
POP[ ]	/* PopTopStack */
MDRP[11000]	/* MoveDirectRelPt */
ELSE[ ]	/* Else */
MIRP[10100]	/* MoveIndirectRelPt */
EIF[ ]	/* EndIf */
IUP[0]	/* InterpolateUntPts */
IUP[1]	/* InterpolateUntPts */";
};
width = 1643;
}
);
note = uni00E6;
unicode = 230;
},
{
glyphname = b;
kernRight = b;
lastChange = "2024-03-30 11:28:57 +0000";
layers = (
{
layerId = m01;
shapes = (
{
closed = 1;
nodes = (
(1004,838,o),
(860,1034,o),
(599,1034,cs),
(502,1034,o),
(424,1000,o),
(365,931,c),
(365,1453,l),
(40,1453,l),
(40,-25,l),
(331,-25,l),
(344,81,l),
(410,-3,o),
(496,-45,o),
(601,-45,cs),
(860,-45,o),
(1004,144,o),
(1004,486,cs),
(1004,505,l)
);
},
{
closed = 1;
nodes = (
(680,416,o),
(675,353,o),
(664,316,cs),
(644,242,o),
(596,205,o),
(518,205,cs),
(443,205,o),
(391,232,o),
(365,286,c),
(365,701,l),
(393,756,o),
(444,784,o),
(518,784,cs),
(625,784,o),
(680,706,o),
(680,505,cs)
);
}
);
userData = {
assembly = "PUSHB[ ]	/* 3 values pushed */
19 28 29
SRP1[ ]	/* SetRefPoint1 */
SRP2[ ]	/* SetRefPoint2 */
IP[ ]	/* InterpolatePts */
PUSHB[ ]	/* 1 value pushed */
19
SRP0[ ]	/* SetRefPoint0 */
PUSHB[ ]	/* 1 value pushed */
11
MDRP[10000]	/* MoveDirectRelPt */
SVTCA[0]	/* SetFreedomAndProjectionVectorToAxis */
PUSHB[ ]	/* 1 value pushed */
9
MDAP[1]	/* MoveDirectAbsPt */
PUSHB[ ]	/* 1 value pushed */
0
RCVT[ ]	/* ReadCVT */
IF[ ]	/* If */
PUSHB[ ]	/* 1 value pushed */
12
MDAP[1]	/* MoveDirectAbsPt */
ELSE[ ]	/* Else */
PUSHB[ ]	/* 2 values pushed */
12 27
MIAP[0]	/* MoveIndirectAbsPt */
EIF[ ]	/* EndIf */
PUSHB[ ]	/* 1 value pushed */
0
RCVT[ ]	/* ReadCVT */
IF[ ]	/* If */
PUSHB[ ]	/* 1 value pushed */
3
MDAP[1]	/* MoveDirectAbsPt */
ELSE[ ]	/* Else */
PUSHB[ ]	/* 2 values pushed */
3 15
MIAP[0]	/* MoveIndirectAbsPt */
EIF[ ]	/* EndIf */
PUSHB[ ]	/* 1 value pushed */
0
RCVT[ ]	/* ReadCVT */
IF[ ]	/* If */
PUSHB[ ]	/* 1 value pushed */
6
MDAP[1]	/* MoveDirectAbsPt */
ELSE[ ]	/* Else */
PUSHB[ ]	/* 2 values pushed */
6 15
MIAP[0]	/* MoveIndirectAbsPt */
EIF[ ]	/* EndIf */
PUSHB[ ]	/* 3 values pushed */
5 12 6
SRP1[ ]	/* SetRefPoint1 */
SRP2[ ]	/* SetRefPoint2 */
IP[ ]	/* InterpolatePts */
PUSHB[ ]	/* 3 values pushed */
10 12 6
SRP1[ ]	/* SetRefPoint1 */
SRP2[ ]	/* SetRefPoint2 */
IP[ ]	/* InterpolatePts */
PUSHB[ ]	/* 1 value pushed */
12
SRP0[ ]	/* SetRefPoint0 */
PUSHB[ ]	/* 2 values pushed */
19 1
PUSHB[ ]	/* 1 value pushed */
10
CALL[ ]	/* CallFunction */
IF[ ]	/* If */
POP[ ]	/* PopTopStack */
MDRP[11000]	/* MoveDirectRelPt */
ELSE[ ]	/* Else */
MIRP[10100]	/* MoveIndirectRelPt */
EIF[ ]	/* EndIf */
PUSHB[ ]	/* 1 value pushed */
3
SRP0[ ]	/* SetRefPoint0 */
PUSHB[ ]	/* 2 values pushed */
24 1
PUSHB[ ]	/* 1 value pushed */
10
CALL[ ]	/* CallFunction */
IF[ ]	/* If */
POP[ ]	/* PopTopStack */
MDRP[11000]	/* MoveDirectRelPt */
ELSE[ ]	/* Else */
MIRP[10100]	/* MoveIndirectRelPt */
EIF[ ]	/* EndIf */
IUP[0]	/* InterpolateUntPts */
IUP[1]	/* InterpolateUntPts */";
};
width = 1044;
}
);
note = uni0062;
unicode = 98;
},
{
glyphname = c;
kernLeft = c;
kernRight = c;
lastChange = "2024-03-30 11:28:57 +0000";
layers = (
{
layerId = m01;
shapes = (
{
closed = 1;
nodes = (
(415,205,o),
(364,274,o),
(364,484,cs),
(364,545,o),
(367,591,o),
(371,624,cs),
(384,730,o),
(434,784,o),
(517,784,cs),
(607,784,o),
(664,725,o),
(664,617,c),
(968,617,l),
(968,876,o),
(797,1034,o),
(526,1034,cs),
(222,1034,o),
(40,831,o),
(40,505,cs),
(40,491,ls),
(40,157,o),
(226,-45,o),
(528,-45,cs),
(787,-45,o),
(968,117,o),
(968,344,c),
(664,344,l),
(664,257,o),
(613,205,o),
(519,205,cs)
);
}
);
userData = {
assembly = "PUSHB[ ]	/* 3 values pushed */
22 29 30
SRP1[ ]	/* SetRefPoint1 */
SRP2[ ]	/* SetRefPoint2 */
IP[ ]	/* InterpolatePts */
SVTCA[0]	/* SetFreedomAndProjectionVectorToAxis */
PUSHB[ ]	/* 1 value pushed */
0
RCVT[ ]	/* ReadCVT */
IF[ ]	/* If */
PUSHB[ ]	/* 1 value pushed */
15
MDAP[1]	/* MoveDirectAbsPt */
ELSE[ ]	/* Else */
PUSHB[ ]	/* 2 values pushed */
15 27
MIAP[0]	/* MoveIndirectAbsPt */
EIF[ ]	/* EndIf */
PUSHB[ ]	/* 1 value pushed */
0
RCVT[ ]	/* ReadCVT */
IF[ ]	/* If */
PUSHB[ ]	/* 1 value pushed */
7
MDAP[1]	/* MoveDirectAbsPt */
ELSE[ ]	/* Else */
PUSHB[ ]	/* 2 values pushed */
7 15
MIAP[0]	/* MoveIndirectAbsPt */
EIF[ ]	/* EndIf */
PUSHB[ ]	/* 2 values pushed */
0 1
PUSHB[ ]	/* 1 value pushed */
10
CALL[ ]	/* CallFunction */
IF[ ]	/* If */
POP[ ]	/* PopTopStack */
MDRP[11000]	/* MoveDirectRelPt */
ELSE[ ]	/* Else */
MIRP[10100]	/* MoveIndirectRelPt */
EIF[ ]	/* EndIf */
PUSHB[ ]	/* 3 values pushed */
3 7 15
SRP1[ ]	/* SetRefPoint1 */
SRP2[ ]	/* SetRefPoint2 */
IP[ ]	/* InterpolatePts */
PUSHB[ ]	/* 3 values pushed */
19 15 7
SRP1[ ]	/* SetRefPoint1 */
SRP2[ ]	/* SetRefPoint2 */
IP[ ]	/* InterpolatePts */
PUSHB[ ]	/* 1 value pushed */
15
SRP0[ ]	/* SetRefPoint0 */
PUSHB[ ]	/* 2 values pushed */
22 1
PUSHB[ ]	/* 1 value pushed */
10
CALL[ ]	/* CallFunction */
IF[ ]	/* If */
POP[ ]	/* PopTopStack */
MDRP[11000]	/* MoveDirectRelPt */
ELSE[ ]	/* Else */
MIRP[10100]	/* MoveIndirectRelPt */
EIF[ ]	/* EndIf */
IUP[0]	/* InterpolateUntPts */
IUP[1]	/* InterpolateUntPts */";
};
width = 1008;
}
);
note = uni0063;
unicode = 99;
},
{
glyphname = ccedilla;
kernLeft = c;
kernRight = c;
lastChange = "2024-03-30 11:28:57 +0000";
layers = (
{
layerId = m01;
shapes = (
{
closed = 1;
nodes = (
(415,220,o),
(364,289,o),
(364,497,cs),
(364,557,o),
(367,604,o),
(371,639,cs),
(384,747,o),
(434,801,o),
(517,801,cs),
(607,801,o),
(664,740,o),
(664,633,c),
(968,633,l),
(968,891,o),
(797,1052,o),
(526,1052,cs),
(224,1052,o),
(40,844,o),
(40,521,cs),
(40,508,ls),
(40,172,o),
(226,-30,o),
(528,-30,cs),
(787,-30,o),
(968,131,o),
(968,362,c),
(664,362,l),
(664,272,o),
(613,220,o),
(519,220,cs)
);
},
{
closed = 1;
nodes = (
(384,-141,l),
(431,-145,o),
(464,-152,o),
(484,-162,cs),
(505,-172,o),
(515,-188,o),
(515,-210,cs),
(515,-260,o),
(486,-285,o),
(429,-285,c),
(436,-465,l),
(661,-465,o),
(797,-376,o),
(797,-227,cs),
(797,-133,o),
(748,-77,o),
(653,-59,c),
(661,-1,l),
(414,-1,l)
);
}
);
width = 1008;
}
);
note = uni00E7;
unicode = 231;
},
{
glyphname = d;
kernLeft = c;
lastChange = "2024-03-30 11:28:57 +0000";
layers = (
{
layerId = m01;
shapes = (
{
closed = 1;
nodes = (
(40,153,o),
(194,-45,o),
(444,-45,cs),
(545,-45,o),
(630,-1,o),
(698,86,c),
(713,-25,l),
(1004,-25,l),
(1004,1453,l),
(680,1453,l),
(680,926,l),
(617,998,o),
(539,1034,o),
(446,1034,cs),
(190,1034,o),
(40,832,o),
(40,505,cs)
);
},
{
closed = 1;
nodes = (
(375,704,o),
(429,784,o),
(529,784,cs),
(600,784,o),
(650,754,o),
(680,694,c),
(680,297,l),
(650,235,o),
(599,205,o),
(526,205,cs),
(419,205,o),
(365,297,o),
(365,482,cs),
(367,543,l)
);
}
);
userData = {
assembly = "PUSHB[ ]	/* 3 values pushed */
22 25 26
SRP1[ ]	/* SetRefPoint1 */
SRP2[ ]	/* SetRefPoint2 */
IP[ ]	/* InterpolatePts */
PUSHB[ ]	/* 1 value pushed */
22
SRP0[ ]	/* SetRefPoint0 */
PUSHB[ ]	/* 1 value pushed */
4
MDRP[10000]	/* MoveDirectRelPt */
SVTCA[0]	/* SetFreedomAndProjectionVectorToAxis */
PUSHB[ ]	/* 1 value pushed */
6
MDAP[1]	/* MoveDirectAbsPt */
PUSHB[ ]	/* 1 value pushed */
0
RCVT[ ]	/* ReadCVT */
IF[ ]	/* If */
PUSHB[ ]	/* 1 value pushed */
3
MDAP[1]	/* MoveDirectAbsPt */
ELSE[ ]	/* Else */
PUSHB[ ]	/* 2 values pushed */
3 27
MIAP[0]	/* MoveIndirectAbsPt */
EIF[ ]	/* EndIf */
PUSHB[ ]	/* 1 value pushed */
0
RCVT[ ]	/* ReadCVT */
IF[ ]	/* If */
PUSHB[ ]	/* 1 value pushed */
8
MDAP[1]	/* MoveDirectAbsPt */
ELSE[ ]	/* Else */
PUSHB[ ]	/* 2 values pushed */
8 15
MIAP[0]	/* MoveIndirectAbsPt */
EIF[ ]	/* EndIf */
PUSHB[ ]	/* 1 value pushed */
0
RCVT[ ]	/* ReadCVT */
IF[ ]	/* If */
PUSHB[ ]	/* 1 value pushed */
12
MDAP[1]	/* MoveDirectAbsPt */
ELSE[ ]	/* Else */
PUSHB[ ]	/* 2 values pushed */
12 15
MIAP[0]	/* MoveIndirectAbsPt */
EIF[ ]	/* EndIf */
PUSHB[ ]	/* 3 values pushed */
5 3 8
SRP1[ ]	/* SetRefPoint1 */
SRP2[ ]	/* SetRefPoint2 */
IP[ ]	/* InterpolatePts */
PUSHB[ ]	/* 3 values pushed */
10 3 8
SRP1[ ]	/* SetRefPoint1 */
SRP2[ ]	/* SetRefPoint2 */
IP[ ]	/* InterpolatePts */
PUSHB[ ]	/* 2 values pushed */
17 1
PUSHB[ ]	/* 1 value pushed */
10
CALL[ ]	/* CallFunction */
IF[ ]	/* If */
POP[ ]	/* PopTopStack */
MDRP[11000]	/* MoveDirectRelPt */
ELSE[ ]	/* Else */
MIRP[10100]	/* MoveIndirectRelPt */
EIF[ ]	/* EndIf */
PUSHB[ ]	/* 1 value pushed */
3
SRP0[ ]	/* SetRefPoint0 */
PUSHB[ ]	/* 2 values pushed */
22 1
PUSHB[ ]	/* 1 value pushed */
10
CALL[ ]	/* CallFunction */
IF[ ]	/* If */
POP[ ]	/* PopTopStack */
MDRP[11000]	/* MoveDirectRelPt */
ELSE[ ]	/* Else */
MIRP[10100]	/* MoveIndirectRelPt */
EIF[ ]	/* EndIf */
IUP[0]	/* InterpolateUntPts */
IUP[1]	/* InterpolateUntPts */";
};
width = 1044;
}
);
note = uni0064;
unicode = 100;
},
{
glyphname = eth;
lastChange = "2024-03-30 11:28:57 +0000";
layers = (
{
layerId = m01;
shapes = (
{
closed = 1;
nodes = (
(855,1421,l),
(700,1327,l),
(584,1408,o),
(450,1464,o),
(298,1494,c),
(195,1260,l),
(282,1236,o),
(360,1203,o),
(429,1161,c),
(298,1079,l),
(375,967,l),
(547,1073,l),
(616,1008,o),
(666,931,o),
(695,840,c),
(630,881,o),
(558,901,o),
(476,901,cs),
(200,901,o),
(40,723,o),
(40,426,cs),
(40,160,o),
(245,-45,o),
(538,-45,cs),
(733,-45,o),
(902,56,o),
(992,238,cs),
(1037,329,o),
(1060,431,o),
(1060,546,cs),
(1060,600,ls),
(1060,856,o),
(976,1068,o),
(807,1234,c),
(930,1309,l)
);
},
{
closed = 1;
nodes = (
(433,205,o),
(366,294,o),
(366,426,cs),
(366,573,o),
(420,667,o),
(547,667,cs),
(629,667,o),
(691,646,o),
(734,604,c),
(734,509,ls),
(734,317,o),
(662,205,o),
(542,205,cs)
);
}
);
userData = {
assembly = "PUSHB[ ]	/* 3 values pushed */
7 41 42
SRP1[ ]	/* SetRefPoint1 */
SRP2[ ]	/* SetRefPoint2 */
IP[ ]	/* InterpolatePts */
PUSHB[ ]	/* 1 value pushed */
7
SRP0[ ]	/* SetRefPoint0 */
PUSHB[ ]	/* 1 value pushed */
29
MDRP[10000]	/* MoveDirectRelPt */
SVTCA[0]	/* SetFreedomAndProjectionVectorToAxis */
PUSHB[ ]	/* 1 value pushed */
0
RCVT[ ]	/* ReadCVT */
IF[ ]	/* If */
PUSHB[ ]	/* 1 value pushed */
24
MDAP[1]	/* MoveDirectAbsPt */
ELSE[ ]	/* Else */
PUSHB[ ]	/* 2 values pushed */
24 33
MIAP[0]	/* MoveIndirectAbsPt */
EIF[ ]	/* EndIf */
PUSHB[ ]	/* 1 value pushed */
0
RCVT[ ]	/* ReadCVT */
IF[ ]	/* If */
PUSHB[ ]	/* 1 value pushed */
7
MDAP[1]	/* MoveDirectAbsPt */
ELSE[ ]	/* Else */
PUSHB[ ]	/* 2 values pushed */
7 15
MIAP[0]	/* MoveIndirectAbsPt */
EIF[ ]	/* EndIf */
PUSHB[ ]	/* 3 values pushed */
14 24 7
SRP1[ ]	/* SetRefPoint1 */
SRP2[ ]	/* SetRefPoint2 */
IP[ ]	/* InterpolatePts */
PUSHB[ ]	/* 1 value pushed */
14
MDAP[1]	/* MoveDirectAbsPt */
PUSHB[ ]	/* 1 value pushed */
7
SRP0[ ]	/* SetRefPoint0 */
PUSHB[ ]	/* 2 values pushed */
29 1
PUSHB[ ]	/* 1 value pushed */
10
CALL[ ]	/* CallFunction */
IF[ ]	/* If */
POP[ ]	/* PopTopStack */
MDRP[11000]	/* MoveDirectRelPt */
ELSE[ ]	/* Else */
MIRP[10100]	/* MoveIndirectRelPt */
EIF[ ]	/* EndIf */
PUSHB[ ]	/* 1 value pushed */
14
SRP0[ ]	/* SetRefPoint0 */
PUSHB[ ]	/* 2 values pushed */
35 9
PUSHB[ ]	/* 1 value pushed */
10
CALL[ ]	/* CallFunction */
IF[ ]	/* If */
POP[ ]	/* PopTopStack */
MDRP[11000]	/* MoveDirectRelPt */
ELSE[ ]	/* Else */
MIRP[10100]	/* MoveIndirectRelPt */
EIF[ ]	/* EndIf */
IUP[0]	/* InterpolateUntPts */
IUP[1]	/* InterpolateUntPts */";
};
width = 1100;
}
);
note = uni00F0;
unicode = 240;
},
{
glyphname = e;
kernLeft = c;
kernRight = e;
lastChange = "2024-03-30 11:28:57 +0000";
layers = (
{
layerId = m01;
shapes = (
{
closed = 1;
nodes = (
(747,-45,o),
(908,26,o),
(986,138,c),
(839,314,l),
(781,241,o),
(701,205,o),
(598,205,cs),
(472,205,o),
(392,275,o),
(371,392,c),
(1015,392,l),
(1015,520,ls),
(1015,845,o),
(833,1034,o),
(542,1034,cs),
(220,1034,o),
(40,816,o),
(40,498,cs),
(40,471,ls),
(40,165,o),
(257,-45,o),
(575,-45,cs)
);
},
{
closed = 1;
nodes = (
(641,784,o),
(701,724,o),
(697,622,cs),
(697,595,l),
(371,595,l),
(388,721,o),
(446,784,o),
(540,784,cs)
);
}
);
userData = {
assembly = "SVTCA[0]	/* SetFreedomAndProjectionVectorToAxis */
PUSHB[ ]	/* 1 value pushed */
0
RCVT[ ]	/* ReadCVT */
IF[ ]	/* If */
PUSHB[ ]	/* 1 value pushed */
8
MDAP[1]	/* MoveDirectAbsPt */
ELSE[ ]	/* Else */
PUSHB[ ]	/* 2 values pushed */
8 27
MIAP[0]	/* MoveIndirectAbsPt */
EIF[ ]	/* EndIf */
PUSHB[ ]	/* 1 value pushed */
0
RCVT[ ]	/* ReadCVT */
IF[ ]	/* If */
PUSHB[ ]	/* 1 value pushed */
0
MDAP[1]	/* MoveDirectAbsPt */
ELSE[ ]	/* Else */
PUSHB[ ]	/* 2 values pushed */
0 15
MIAP[0]	/* MoveIndirectAbsPt */
EIF[ ]	/* EndIf */
PUSHB[ ]	/* 3 values pushed */
25 0 8
SRP1[ ]	/* SetRefPoint1 */
SRP2[ ]	/* SetRefPoint2 */
IP[ ]	/* InterpolatePts */
PUSHB[ ]	/* 1 value pushed */
25
MDAP[1]	/* MoveDirectAbsPt */
PUSHB[ ]	/* 5 values pushed */
31 25 47 25 2
DELTAP2[ ]	/* DeltaExceptionP2 */
PUSHB[ ]	/* 3 values pushed */
191 25 1
DELTAP2[ ]	/* DeltaExceptionP2 */
PUSHB[ ]	/* 3 values pushed */
143 25 1
DELTAP1[ ]	/* DeltaExceptionP1 */
PUSHB[ ]	/* 3 values pushed */
143 25 1
DELTAP3[ ]	/* DeltaExceptionP3 */
PUSHB[ ]	/* 2 values pushed */
12 8
PUSHB[ ]	/* 1 value pushed */
10
CALL[ ]	/* CallFunction */
IF[ ]	/* If */
POP[ ]	/* PopTopStack */
MDRP[11000]	/* MoveDirectRelPt */
ELSE[ ]	/* Else */
MIRP[10100]	/* MoveIndirectRelPt */
EIF[ ]	/* EndIf */
PUSHB[ ]	/* 1 value pushed */
0
SRP0[ ]	/* SetRefPoint0 */
PUSHB[ ]	/* 2 values pushed */
16 1
PUSHB[ ]	/* 1 value pushed */
10
CALL[ ]	/* CallFunction */
IF[ ]	/* If */
POP[ ]	/* PopTopStack */
MDRP[11000]	/* MoveDirectRelPt */
ELSE[ ]	/* Else */
MIRP[10100]	/* MoveIndirectRelPt */
EIF[ ]	/* EndIf */
PUSHB[ ]	/* 3 values pushed */
18 16 12
SRP1[ ]	/* SetRefPoint1 */
SRP2[ ]	/* SetRefPoint2 */
IP[ ]	/* InterpolatePts */
PUSHB[ ]	/* 1 value pushed */
8
SRP0[ ]	/* SetRefPoint0 */
PUSHB[ ]	/* 2 values pushed */
22 1
PUSHB[ ]	/* 1 value pushed */
10
CALL[ ]	/* CallFunction */
IF[ ]	/* If */
POP[ ]	/* PopTopStack */
MDRP[11000]	/* MoveDirectRelPt */
ELSE[ ]	/* Else */
MIRP[10100]	/* MoveIndirectRelPt */
EIF[ ]	/* EndIf */
IUP[0]	/* InterpolateUntPts */
IUP[1]	/* InterpolateUntPts */";
};
width = 1055;
}
);
note = uni0065;
unicode = 101;
},
{
glyphname = eacute;
kernLeft = c;
kernRight = e;
lastChange = "2024-03-30 11:28:57 +0000";
layers = (
{
layerId = m01;
shapes = (
{
closed = 1;
nodes = (
(747,-45,o),
(908,26,o),
(986,138,c),
(839,314,l),
(781,241,o),
(701,205,o),
(598,205,cs),
(472,205,o),
(392,275,o),
(371,392,c),
(1015,392,l),
(1015,520,ls),
(1015,845,o),
(833,1034,o),
(542,1034,cs),
(220,1034,o),
(40,816,o),
(40,498,cs),
(40,471,ls),
(40,165,o),
(257,-45,o),
(575,-45,cs)
);
},
{
closed = 1;
nodes = (
(641,784,o),
(701,724,o),
(697,622,cs),
(697,595,l),
(371,595,l),
(388,721,o),
(446,784,o),
(540,784,cs)
);
},
{
closed = 1;
nodes = (
(609,1152,l),
(878,1455,l),
(535,1455,l),
(345,1152,l)
);
}
);
width = 1055;
}
);
note = uni00E9;
unicode = 233;
},
{
glyphname = ecircumflex;
kernLeft = c;
kernRight = e;
lastChange = "2024-03-30 11:28:57 +0000";
layers = (
{
layerId = m01;
shapes = (
{
closed = 1;
nodes = (
(747,-45,o),
(908,26,o),
(986,138,c),
(839,314,l),
(781,241,o),
(701,205,o),
(598,205,cs),
(472,205,o),
(392,275,o),
(371,392,c),
(1015,392,l),
(1015,520,ls),
(1015,845,o),
(833,1034,o),
(542,1034,cs),
(220,1034,o),
(40,816,o),
(40,498,cs),
(40,471,ls),
(40,165,o),
(257,-45,o),
(575,-45,cs)
);
},
{
closed = 1;
nodes = (
(641,784,o),
(701,724,o),
(697,622,cs),
(697,595,l),
(371,595,l),
(388,721,o),
(446,784,o),
(540,784,cs)
);
},
{
closed = 1;
nodes = (
(400,1455,l),
(91,1187,l),
(91,1172,l),
(341,1172,l),
(495,1302,l),
(648,1172,l),
(902,1172,l),
(902,1183,l),
(590,1455,l)
);
}
);
width = 1055;
}
);
note = uni00EA;
unicode = 234;
},
{
glyphname = edieresis;
kernLeft = c;
kernRight = e;
lastChange = "2024-03-30 11:28:57 +0000";
layers = (
{
layerId = m01;
shapes = (
{
closed = 1;
nodes = (
(747,-45,o),
(908,26,o),
(986,138,c),
(839,314,l),
(781,241,o),
(701,205,o),
(598,205,cs),
(472,205,o),
(392,275,o),
(371,392,c),
(1015,392,l),
(1015,520,ls),
(1015,845,o),
(833,1034,o),
(542,1034,cs),
(220,1034,o),
(40,816,o),
(40,498,cs),
(40,471,ls),
(40,165,o),
(257,-45,o),
(575,-45,cs)
);
},
{
closed = 1;
nodes = (
(641,784,o),
(701,724,o),
(697,622,cs),
(697,595,l),
(371,595,l),
(388,721,o),
(446,784,o),
(540,784,cs)
);
},
{
closed = 1;
nodes = (
(98,1220,o),
(158,1163,o),
(242,1163,cs),
(327,1163,o),
(386,1219,o),
(386,1289,cs),
(386,1361,o),
(327,1417,o),
(242,1417,cs),
(158,1417,o),
(98,1361,o),
(98,1288,cs)
);
},
{
closed = 1;
nodes = (
(596,1220,o),
(659,1163,o),
(741,1163,cs),
(824,1163,o),
(887,1219,o),
(887,1289,cs),
(887,1361,o),
(824,1417,o),
(741,1417,cs),
(659,1417,o),
(596,1361,o),
(596,1288,cs)
);
}
);
width = 1055;
}
);
note = uni00EB;
unicode = 235;
},
{
glyphname = egrave;
kernLeft = c;
kernRight = e;
lastChange = "2024-03-30 11:28:57 +0000";
layers = (
{
layerId = m01;
shapes = (
{
closed = 1;
nodes = (
(747,-45,o),
(908,26,o),
(986,138,c),
(839,314,l),
(781,241,o),
(701,205,o),
(598,205,cs),
(472,205,o),
(392,275,o),
(371,392,c),
(1015,392,l),
(1015,520,ls),
(1015,845,o),
(833,1034,o),
(542,1034,cs),
(220,1034,o),
(40,816,o),
(40,498,cs),
(40,471,ls),
(40,165,o),
(257,-45,o),
(575,-45,cs)
);
},
{
closed = 1;
nodes = (
(641,784,o),
(701,724,o),
(697,622,cs),
(697,595,l),
(371,595,l),
(388,721,o),
(446,784,o),
(540,784,cs)
);
},
{
closed = 1;
nodes = (
(114,1455,l),
(384,1152,l),
(650,1152,l),
(457,1455,l)
);
}
);
width = 1055;
}
);
note = uni00E8;
unicode = 232;
},
{
glyphname = f;
lastChange = "2024-03-30 11:28:57 +0000";
layers = (
{
layerId = m01;
shapes = (
{
closed = 1;
nodes = (
(517,815,l),
(720,815,l),
(720,1041,l),
(517,1041,l),
(517,1122,ls),
(517,1206,o),
(566,1249,o),
(664,1249,cs),
(697,1249,o),
(723,1246,o),
(743,1241,c),
(743,1477,l),
(687,1493,o),
(636,1500,o),
(590,1500,cs),
(337,1500,o),
(191,1362,o),
(191,1124,cs),
(191,1041,l),
(40,1041,l),
(40,815,l),
(191,815,l),
(191,0,l),
(517,0,l)
);
}
);
userData = {
assembly = "PUSHB[ ]	/* 3 values pushed */
7 21 22
SRP1[ ]	/* SetRefPoint1 */
SRP2[ ]	/* SetRefPoint2 */
IP[ ]	/* InterpolatePts */
SVTCA[0]	/* SetFreedomAndProjectionVectorToAxis */
PUSHB[ ]	/* 1 value pushed */
0
RCVT[ ]	/* ReadCVT */
IF[ ]	/* If */
PUSHB[ ]	/* 1 value pushed */
8
MDAP[1]	/* MoveDirectAbsPt */
ELSE[ ]	/* Else */
PUSHB[ ]	/* 2 values pushed */
8 33
MIAP[0]	/* MoveIndirectAbsPt */
EIF[ ]	/* EndIf */
PUSHB[ ]	/* 1 value pushed */
0
RCVT[ ]	/* ReadCVT */
IF[ ]	/* If */
PUSHB[ ]	/* 1 value pushed */
3
MDAP[1]	/* MoveDirectAbsPt */
ELSE[ ]	/* Else */
PUSHB[ ]	/* 2 values pushed */
3 27
MIAP[0]	/* MoveIndirectAbsPt */
EIF[ ]	/* EndIf */
PUSHB[ ]	/* 1 value pushed */
0
RCVT[ ]	/* ReadCVT */
IF[ ]	/* If */
PUSHB[ ]	/* 1 value pushed */
16
MDAP[1]	/* MoveDirectAbsPt */
ELSE[ ]	/* Else */
PUSHB[ ]	/* 2 values pushed */
16 27
MIAP[0]	/* MoveIndirectAbsPt */
EIF[ ]	/* EndIf */
PUSHB[ ]	/* 1 value pushed */
0
RCVT[ ]	/* ReadCVT */
IF[ ]	/* If */
PUSHB[ ]	/* 1 value pushed */
0
MDAP[1]	/* MoveDirectAbsPt */
ELSE[ ]	/* Else */
PUSHB[ ]	/* 2 values pushed */
0 15
MIAP[0]	/* MoveIndirectAbsPt */
EIF[ ]	/* EndIf */
PUSHB[ ]	/* 1 value pushed */
3
SRP0[ ]	/* SetRefPoint0 */
PUSHB[ ]	/* 2 values pushed */
1 9
PUSHB[ ]	/* 1 value pushed */
10
CALL[ ]	/* CallFunction */
IF[ ]	/* If */
POP[ ]	/* PopTopStack */
MDRP[11000]	/* MoveDirectRelPt */
ELSE[ ]	/* Else */
MIRP[10100]	/* MoveIndirectRelPt */
EIF[ ]	/* EndIf */
PUSHB[ ]	/* 1 value pushed */
8
SRP0[ ]	/* SetRefPoint0 */
PUSHB[ ]	/* 2 values pushed */
13 1
PUSHB[ ]	/* 1 value pushed */
10
CALL[ ]	/* CallFunction */
IF[ ]	/* If */
POP[ ]	/* PopTopStack */
MDRP[11000]	/* MoveDirectRelPt */
ELSE[ ]	/* Else */
MIRP[10100]	/* MoveIndirectRelPt */
EIF[ ]	/* EndIf */
PUSHB[ ]	/* 1 value pushed */
1
SRP0[ ]	/* SetRefPoint0 */
PUSHB[ ]	/* 1 value pushed */
18
MDRP[10000]	/* MoveDirectRelPt */
PUSHB[ ]	/* 1 value pushed */
19
MDRP[10000]	/* MoveDirectRelPt */
IUP[0]	/* InterpolateUntPts */
IUP[1]	/* InterpolateUntPts */";
};
width = 783;
}
);
note = uni0066;
unicode = 102;
},
{
glyphname = g;
kernLeft = c;
lastChange = "2024-03-30 11:32:51 +0000";
layers = (
{
layerId = m01;
shapes = (
{
closed = 1;
nodes = (
(40,124,o),
(249,-34,o),
(466,-34,cs),
(560,-34,o),
(640,0,o),
(702,69,c),
(702,39,ls),
(702,-108,o),
(630,-183,o),
(486,-183,cs),
(387,-183,o),
(308,-148,o),
(247,-79,c),
(109,-268,l),
(189,-361,o),
(346,-423,o),
(498,-423,cs),
(829,-423,o),
(1029,-241,o),
(1029,25,cs),
(1029,1027,l),
(734,1027,l),
(722,937,l),
(662,1012,o),
(576,1047,o),
(468,1047,cs),
(214,1047,o),
(40,849,o),
(40,516,cs)
);
},
{
closed = 1;
nodes = (
(367,687,o),
(435,794,o),
(549,794,cs),
(620,794,o),
(670,770,o),
(702,723,c),
(702,285,l),
(669,236,o),
(618,212,o),
(547,212,cs),
(433,212,o),
(367,321,o),
(367,489,cs)
);
}
);
userData = {
assembly = "PUSHB[ ]	/* 3 values pushed */
36 39 40
SRP1[ ]	/* SetRefPoint1 */
SRP2[ ]	/* SetRefPoint2 */
IP[ ]	/* InterpolatePts */
PUSHB[ ]	/* 1 value pushed */
36
SRP0[ ]	/* SetRefPoint0 */
PUSHB[ ]	/* 1 value pushed */
23
MDRP[10000]	/* MoveDirectRelPt */
SVTCA[0]	/* SetFreedomAndProjectionVectorToAxis */
PUSHB[ ]	/* 1 value pushed */
0
RCVT[ ]	/* ReadCVT */
IF[ ]	/* If */
PUSHB[ ]	/* 1 value pushed */
4
MDAP[1]	/* MoveDirectAbsPt */
ELSE[ ]	/* Else */
PUSHB[ ]	/* 2 values pushed */
4 27
MIAP[0]	/* MoveIndirectAbsPt */
EIF[ ]	/* EndIf */
PUSHB[ ]	/* 1 value pushed */
0
RCVT[ ]	/* ReadCVT */
IF[ ]	/* If */
PUSHB[ ]	/* 1 value pushed */
7
MDAP[1]	/* MoveDirectAbsPt */
ELSE[ ]	/* Else */
PUSHB[ ]	/* 2 values pushed */
7 27
MIAP[0]	/* MoveIndirectAbsPt */
EIF[ ]	/* EndIf */
PUSHB[ ]	/* 1 value pushed */
0
RCVT[ ]	/* ReadCVT */
IF[ ]	/* If */
PUSHB[ ]	/* 1 value pushed */
13
MDAP[1]	/* MoveDirectAbsPt */
ELSE[ ]	/* Else */
PUSHB[ ]	/* 2 values pushed */
13 17
MIAP[0]	/* MoveIndirectAbsPt */
EIF[ ]	/* EndIf */
PUSHB[ ]	/* 1 value pushed */
0
RCVT[ ]	/* ReadCVT */
IF[ ]	/* If */
PUSHB[ ]	/* 1 value pushed */
24
MDAP[1]	/* MoveDirectAbsPt */
ELSE[ ]	/* Else */
PUSHB[ ]	/* 2 values pushed */
24 15
MIAP[0]	/* MoveIndirectAbsPt */
EIF[ ]	/* EndIf */
PUSHB[ ]	/* 1 value pushed */
13
SRP0[ ]	/* SetRefPoint0 */
PUSHB[ ]	/* 2 values pushed */
19 1
PUSHB[ ]	/* 1 value pushed */
10
CALL[ ]	/* CallFunction */
IF[ ]	/* If */
POP[ ]	/* PopTopStack */
MDRP[11000]	/* MoveDirectRelPt */
ELSE[ ]	/* Else */
MIRP[10100]	/* MoveIndirectRelPt */
EIF[ ]	/* EndIf */
PUSHB[ ]	/* 3 values pushed */
17 19 24
SRP1[ ]	/* SetRefPoint1 */
SRP2[ ]	/* SetRefPoint2 */
IP[ ]	/* InterpolatePts */
PUSHB[ ]	/* 3 values pushed */
22 7 24
SRP1[ ]	/* SetRefPoint1 */
SRP2[ ]	/* SetRefPoint2 */
IP[ ]	/* InterpolatePts */
PUSHB[ ]	/* 1 value pushed */
24
SRP0[ ]	/* SetRefPoint0 */
PUSHB[ ]	/* 2 values pushed */
31 1
PUSHB[ ]	/* 1 value pushed */
10
CALL[ ]	/* CallFunction */
IF[ ]	/* If */
POP[ ]	/* PopTopStack */
MDRP[11000]	/* MoveDirectRelPt */
ELSE[ ]	/* Else */
MIRP[10100]	/* MoveIndirectRelPt */
EIF[ ]	/* EndIf */
PUSHB[ ]	/* 1 value pushed */
4
SRP0[ ]	/* SetRefPoint0 */
PUSHB[ ]	/* 2 values pushed */
36 1
PUSHB[ ]	/* 1 value pushed */
10
CALL[ ]	/* CallFunction */
IF[ ]	/* If */
POP[ ]	/* PopTopStack */
MDRP[11000]	/* MoveDirectRelPt */
ELSE[ ]	/* Else */
MIRP[10100]	/* MoveIndirectRelPt */
EIF[ ]	/* EndIf */
IUP[0]	/* InterpolateUntPts */
IUP[1]	/* InterpolateUntPts */";
};
width = 1069;
}
);
note = uni0067;
unicode = 103;
},
{
glyphname = h;
kernRight = h;
lastChange = "2024-03-30 11:28:57 +0000";
layers = (
{
layerId = m01;
shapes = (
{
closed = 1;
nodes = (
(40,1477,l),
(40,0,l),
(365,0,l),
(365,748,l),
(391,790,o),
(439,811,o),
(507,811,cs),
(615,811,o),
(655,759,o),
(655,651,cs),
(655,0,l),
(980,0,l),
(980,658,ls),
(976,925,o),
(859,1062,o),
(630,1062,cs),
(522,1062,o),
(434,1018,o),
(365,931,c),
(365,1477,l)
);
}
);
userData = {
assembly = "PUSHB[ ]	/* 3 values pushed */
11 18 19
SRP1[ ]	/* SetRefPoint1 */
SRP2[ ]	/* SetRefPoint2 */
IP[ ]	/* InterpolatePts */
SVTCA[0]	/* SetFreedomAndProjectionVectorToAxis */
PUSHB[ ]	/* 1 value pushed */
16
MDAP[1]	/* MoveDirectAbsPt */
PUSHB[ ]	/* 1 value pushed */
0
RCVT[ ]	/* ReadCVT */
IF[ ]	/* If */
PUSHB[ ]	/* 1 value pushed */
2
MDAP[1]	/* MoveDirectAbsPt */
ELSE[ ]	/* Else */
PUSHB[ ]	/* 2 values pushed */
2 27
MIAP[0]	/* MoveIndirectAbsPt */
EIF[ ]	/* EndIf */
PUSHB[ ]	/* 1 value pushed */
0
RCVT[ ]	/* ReadCVT */
IF[ ]	/* If */
PUSHB[ ]	/* 1 value pushed */
6
MDAP[1]	/* MoveDirectAbsPt */
ELSE[ ]	/* Else */
PUSHB[ ]	/* 2 values pushed */
6 15
MIAP[0]	/* MoveIndirectAbsPt */
EIF[ ]	/* EndIf */
PUSHB[ ]	/* 1 value pushed */
0
RCVT[ ]	/* ReadCVT */
IF[ ]	/* If */
PUSHB[ ]	/* 1 value pushed */
14
MDAP[1]	/* MoveDirectAbsPt */
ELSE[ ]	/* Else */
PUSHB[ ]	/* 2 values pushed */
14 15
MIAP[0]	/* MoveIndirectAbsPt */
EIF[ ]	/* EndIf */
PUSHB[ ]	/* 3 values pushed */
0 2 6
SRP1[ ]	/* SetRefPoint1 */
SRP2[ ]	/* SetRefPoint2 */
IP[ ]	/* InterpolatePts */
PUSHB[ ]	/* 1 value pushed */
2
SRP0[ ]	/* SetRefPoint0 */
PUSHB[ ]	/* 2 values pushed */
11 1
PUSHB[ ]	/* 1 value pushed */
10
CALL[ ]	/* CallFunction */
IF[ ]	/* If */
POP[ ]	/* PopTopStack */
MDRP[11000]	/* MoveDirectRelPt */
ELSE[ ]	/* Else */
MIRP[10100]	/* MoveIndirectRelPt */
EIF[ ]	/* EndIf */
IUP[0]	/* InterpolateUntPts */
IUP[1]	/* InterpolateUntPts */";
};
width = 1020;
}
);
note = uni0068;
unicode = 104;
},
{
glyphname = i;
lastChange = "2024-03-30 11:28:57 +0000";
layers = (
{
layerId = m01;
shapes = (
{
closed = 1;
nodes = (
(59,1041,l),
(59,0,l),
(384,0,l),
(384,1041,l)
);
},
{
closed = 1;
nodes = (
(40,1218,o),
(112,1154,o),
(219,1154,cs),
(326,1154,o),
(400,1219,o),
(400,1310,cs),
(400,1401,o),
(326,1469,o),
(219,1469,cs),
(112,1469,o),
(40,1401,o),
(40,1311,cs)
);
}
);
userData = {
assembly = "PUSHB[ ]	/* 3 values pushed */
7 13 14
SRP1[ ]	/* SetRefPoint1 */
SRP2[ ]	/* SetRefPoint2 */
IP[ ]	/* InterpolatePts */
PUSHB[ ]	/* 1 value pushed */
7
SRP0[ ]	/* SetRefPoint0 */
PUSHB[ ]	/* 1 value pushed */
0
MDRP[10000]	/* MoveDirectRelPt */
SVTCA[0]	/* SetFreedomAndProjectionVectorToAxis */
PUSHB[ ]	/* 1 value pushed */
0
RCVT[ ]	/* ReadCVT */
IF[ ]	/* If */
PUSHB[ ]	/* 1 value pushed */
2
MDAP[1]	/* MoveDirectAbsPt */
ELSE[ ]	/* Else */
PUSHB[ ]	/* 2 values pushed */
2 27
MIAP[0]	/* MoveIndirectAbsPt */
EIF[ ]	/* EndIf */
PUSHB[ ]	/* 1 value pushed */
0
RCVT[ ]	/* ReadCVT */
IF[ ]	/* If */
PUSHB[ ]	/* 1 value pushed */
0
MDAP[1]	/* MoveDirectAbsPt */
ELSE[ ]	/* Else */
PUSHB[ ]	/* 2 values pushed */
0 15
MIAP[0]	/* MoveIndirectAbsPt */
EIF[ ]	/* EndIf */
PUSHB[ ]	/* 1 value pushed */
2
SRP0[ ]	/* SetRefPoint0 */
PUSHB[ ]	/* 1 value pushed */
11
MDRP[10000]	/* MoveDirectRelPt */
PUSHB[ ]	/* 1 value pushed */
11
MDAP[1]	/* MoveDirectAbsPt */
PUSHB[ ]	/* 2 values pushed */
6 6
PUSHB[ ]	/* 1 value pushed */
10
CALL[ ]	/* CallFunction */
IF[ ]	/* If */
POP[ ]	/* PopTopStack */
MDRP[11000]	/* MoveDirectRelPt */
ELSE[ ]	/* Else */
MIRP[10100]	/* MoveIndirectRelPt */
EIF[ ]	/* EndIf */
IUP[0]	/* InterpolateUntPts */
IUP[1]	/* InterpolateUntPts */";
};
width = 440;
}
);
note = uni0069;
unicode = 105;
},
{
glyphname = idotless;
lastChange = "2024-03-30 11:28:57 +0000";
layers = (
{
layerId = m01;
shapes = (
{
closed = 1;
nodes = (
(40,1041,l),
(40,0,l),
(365,0,l),
(365,1041,l)
);
}
);
userData = {
assembly = "PUSHB[ ]	/* 3 values pushed */
7 13 14
SRP1[ ]	/* SetRefPoint1 */
SRP2[ ]	/* SetRefPoint2 */
IP[ ]	/* InterpolatePts */
PUSHB[ ]	/* 1 value pushed */
7
SRP0[ ]	/* SetRefPoint0 */
PUSHB[ ]	/* 1 value pushed */
0
MDRP[10000]	/* MoveDirectRelPt */
SVTCA[0]	/* SetFreedomAndProjectionVectorToAxis */
PUSHB[ ]	/* 1 value pushed */
0
RCVT[ ]	/* ReadCVT */
IF[ ]	/* If */
PUSHB[ ]	/* 1 value pushed */
2
MDAP[1]	/* MoveDirectAbsPt */
ELSE[ ]	/* Else */
PUSHB[ ]	/* 2 values pushed */
2 27
MIAP[0]	/* MoveIndirectAbsPt */
EIF[ ]	/* EndIf */
PUSHB[ ]	/* 1 value pushed */
0
RCVT[ ]	/* ReadCVT */
IF[ ]	/* If */
PUSHB[ ]	/* 1 value pushed */
0
MDAP[1]	/* MoveDirectAbsPt */
ELSE[ ]	/* Else */
PUSHB[ ]	/* 2 values pushed */
0 15
MIAP[0]	/* MoveIndirectAbsPt */
EIF[ ]	/* EndIf */
PUSHB[ ]	/* 1 value pushed */
2
SRP0[ ]	/* SetRefPoint0 */
PUSHB[ ]	/* 1 value pushed */
11
MDRP[10000]	/* MoveDirectRelPt */
PUSHB[ ]	/* 1 value pushed */
11
MDAP[1]	/* MoveDirectAbsPt */
PUSHB[ ]	/* 2 values pushed */
6 6
PUSHB[ ]	/* 1 value pushed */
10
CALL[ ]	/* CallFunction */
IF[ ]	/* If */
POP[ ]	/* PopTopStack */
MDRP[11000]	/* MoveDirectRelPt */
ELSE[ ]	/* Else */
MIRP[10100]	/* MoveIndirectRelPt */
EIF[ ]	/* EndIf */
IUP[0]	/* InterpolateUntPts */
IUP[1]	/* InterpolateUntPts */";
};
width = 405;
}
);
note = uni0069;
unicode = 305;
},
{
glyphname = iacute;
lastChange = "2024-03-30 11:28:57 +0000";
layers = (
{
layerId = m01;
shapes = (
{
closed = 1;
nodes = (
(40,1041,l),
(40,0,l),
(367,0,l),
(367,1041,l)
);
},
{
closed = 1;
nodes = (
(319,1158,l),
(590,1460,l),
(245,1460,l),
(55,1158,l)
);
}
);
width = 630;
}
);
note = uni00ED;
unicode = 237;
},
{
glyphname = icircumflex;
lastChange = "2024-03-30 11:28:57 +0000";
layers = (
{
layerId = m01;
shapes = (
{
closed = 1;
nodes = (
(279,1041,l),
(279,0,l),
(605,0,l),
(605,1041,l)
);
},
{
closed = 1;
nodes = (
(351,1460,l),
(40,1194,l),
(40,1176,l),
(290,1176,l),
(444,1307,l),
(597,1176,l),
(853,1176,l),
(853,1189,l),
(535,1460,l)
);
}
);
width = 893;
}
);
note = uni00EE;
unicode = 238;
},
{
glyphname = idieresis;
lastChange = "2024-03-30 11:28:57 +0000";
layers = (
{
layerId = m01;
shapes = (
{
closed = 1;
nodes = (
(272,1041,l),
(272,0,l),
(599,0,l),
(599,1041,l)
);
},
{
closed = 1;
nodes = (
(40,1223,o),
(103,1167,o),
(185,1167,cs),
(268,1167,o),
(330,1223,o),
(330,1295,cs),
(330,1365,o),
(268,1423,o),
(185,1423,cs),
(103,1423,o),
(40,1364,o),
(40,1296,cs)
);
},
{
closed = 1;
nodes = (
(541,1223,o),
(603,1167,o),
(686,1167,cs),
(768,1167,o),
(831,1223,o),
(831,1295,cs),
(831,1365,o),
(768,1423,o),
(686,1423,cs),
(603,1423,o),
(541,1364,o),
(541,1296,cs)
);
}
);
width = 871;
}
);
note = uni00EF;
unicode = 239;
},
{
glyphname = igrave;
lastChange = "2024-03-30 11:28:57 +0000";
layers = (
{
layerId = m01;
shapes = (
{
closed = 1;
nodes = (
(254,1041,l),
(254,0,l),
(583,0,l),
(583,1041,l)
);
},
{
closed = 1;
nodes = (
(40,1460,l),
(313,1158,l),
(576,1158,l),
(385,1460,l)
);
}
);
width = 623;
}
);
note = uni00EC;
unicode = 236;
},
{
glyphname = j;
lastChange = "2024-04-02 14:47:47 +0000";
layers = (
{
layerId = m01;
shapes = (
{
closed = 1;
nodes = (
(63,-40,ls),
(63,-129,o),
(18,-173,o),
(-72,-173,cs),
(-96,-173,o),
(-127,-171,o),
(-165,-166,c),
(-165,-412,l),
(-116,-423,o),
(-66,-427,o),
(-12,-427,cs),
(241,-427,o),
(385,-289,o),
(385,-42,cs),
(385,1035,l),
(63,1035,l)
);
},
{
closed = 1;
nodes = (
(38,1213,o),
(110,1147,o),
(217,1147,cs),
(324,1147,o),
(399,1212,o),
(399,1304,cs),
(399,1396,o),
(324,1460,o),
(217,1460,cs),
(110,1460,o),
(38,1396,o),
(38,1302,cs)
);
}
);
userData = {
assembly = "PUSHB[ ]	/* 3 values pushed */
3 22 23
SRP1[ ]	/* SetRefPoint1 */
SRP2[ ]	/* SetRefPoint2 */
IP[ ]	/* InterpolatePts */
PUSHB[ ]	/* 1 value pushed */
3
SRP0[ ]	/* SetRefPoint0 */
PUSHB[ ]	/* 1 value pushed */
15
MDRP[10000]	/* MoveDirectRelPt */
SVTCA[0]	/* SetFreedomAndProjectionVectorToAxis */
PUSHB[ ]	/* 1 value pushed */
0
RCVT[ ]	/* ReadCVT */
IF[ ]	/* If */
PUSHB[ ]	/* 1 value pushed */
0
MDAP[1]	/* MoveDirectAbsPt */
ELSE[ ]	/* Else */
PUSHB[ ]	/* 2 values pushed */
0 27
MIAP[0]	/* MoveIndirectAbsPt */
EIF[ ]	/* EndIf */
PUSHB[ ]	/* 1 value pushed */
0
RCVT[ ]	/* ReadCVT */
IF[ ]	/* If */
PUSHB[ ]	/* 1 value pushed */
4
MDAP[1]	/* MoveDirectAbsPt */
ELSE[ ]	/* Else */
PUSHB[ ]	/* 2 values pushed */
4 17
MIAP[0]	/* MoveIndirectAbsPt */
EIF[ ]	/* EndIf */
PUSHB[ ]	/* 2 values pushed */
9 1
PUSHB[ ]	/* 1 value pushed */
10
CALL[ ]	/* CallFunction */
IF[ ]	/* If */
POP[ ]	/* PopTopStack */
MDRP[11000]	/* MoveDirectRelPt */
ELSE[ ]	/* Else */
MIRP[10100]	/* MoveIndirectRelPt */
EIF[ ]	/* EndIf */
PUSHB[ ]	/* 1 value pushed */
0
SRP0[ ]	/* SetRefPoint0 */
PUSHB[ ]	/* 1 value pushed */
20
MDRP[10000]	/* MoveDirectRelPt */
PUSHB[ ]	/* 1 value pushed */
20
MDAP[1]	/* MoveDirectAbsPt */
PUSHB[ ]	/* 2 values pushed */
15 6
PUSHB[ ]	/* 1 value pushed */
10
CALL[ ]	/* CallFunction */
IF[ ]	/* If */
POP[ ]	/* PopTopStack */
MDRP[11000]	/* MoveDirectRelPt */
ELSE[ ]	/* Else */
MIRP[10100]	/* MoveIndirectRelPt */
EIF[ ]	/* EndIf */
IUP[0]	/* InterpolateUntPts */
IUP[1]	/* InterpolateUntPts */";
};
width = 439;
}
);
note = uni006A;
unicode = 106;
},
{
glyphname = k;
lastChange = "2024-03-30 11:28:57 +0000";
layers = (
{
layerId = m01;
shapes = (
{
closed = 1;
nodes = (
(1056,0,l),
(664,613,l),
(1031,1041,l),
(642,1041,l),
(398,739,l),
(364,694,l),
(364,1481,l),
(40,1481,l),
(40,0,l),
(364,0,l),
(364,297,l),
(457,389,l),
(682,0,l)
);
}
);
userData = {
assembly = "SVTCA[0]	/* SetFreedomAndProjectionVectorToAxis */
PUSHB[ ]	/* 1 value pushed */
4
MDAP[1]	/* MoveDirectAbsPt */
PUSHB[ ]	/* 1 value pushed */
0
RCVT[ ]	/* ReadCVT */
IF[ ]	/* If */
PUSHB[ ]	/* 1 value pushed */
8
MDAP[1]	/* MoveDirectAbsPt */
ELSE[ ]	/* Else */
PUSHB[ ]	/* 2 values pushed */
8 27
MIAP[0]	/* MoveIndirectAbsPt */
EIF[ ]	/* EndIf */
PUSHB[ ]	/* 1 value pushed */
0
RCVT[ ]	/* ReadCVT */
IF[ ]	/* If */
PUSHB[ ]	/* 1 value pushed */
2
MDAP[1]	/* MoveDirectAbsPt */
ELSE[ ]	/* Else */
PUSHB[ ]	/* 2 values pushed */
2 15
MIAP[0]	/* MoveIndirectAbsPt */
EIF[ ]	/* EndIf */
PUSHB[ ]	/* 1 value pushed */
0
RCVT[ ]	/* ReadCVT */
IF[ ]	/* If */
PUSHB[ ]	/* 1 value pushed */
11
MDAP[1]	/* MoveDirectAbsPt */
ELSE[ ]	/* Else */
PUSHB[ ]	/* 2 values pushed */
11 15
MIAP[0]	/* MoveIndirectAbsPt */
EIF[ ]	/* EndIf */
PUSHB[ ]	/* 3 values pushed */
0 8 2
SRP1[ ]	/* SetRefPoint1 */
SRP2[ ]	/* SetRefPoint2 */
IP[ ]	/* InterpolatePts */
PUSHB[ ]	/* 3 values pushed */
6 8 2
SRP1[ ]	/* SetRefPoint1 */
SRP2[ ]	/* SetRefPoint2 */
IP[ ]	/* InterpolatePts */
IUP[0]	/* InterpolateUntPts */
IUP[1]	/* InterpolateUntPts */";
};
width = 1096;
}
);
note = uni006B;
unicode = 107;
},
{
glyphname = l;
lastChange = "2024-03-30 11:28:57 +0000";
layers = (
{
layerId = m01;
shapes = (
{
closed = 1;
nodes = (
(40,1477,l),
(40,0,l),
(367,0,l),
(367,1477,l)
);
}
);
userData = {
assembly = "SVTCA[0]	/* SetFreedomAndProjectionVectorToAxis */
PUSHB[ ]	/* 1 value pushed */
2
MDAP[1]	/* MoveDirectAbsPt */
PUSHB[ ]	/* 1 value pushed */
0
RCVT[ ]	/* ReadCVT */
IF[ ]	/* If */
PUSHB[ ]	/* 1 value pushed */
0
MDAP[1]	/* MoveDirectAbsPt */
ELSE[ ]	/* Else */
PUSHB[ ]	/* 2 values pushed */
0 15
MIAP[0]	/* MoveIndirectAbsPt */
EIF[ ]	/* EndIf */
IUP[0]	/* InterpolateUntPts */
IUP[1]	/* InterpolateUntPts */";
};
width = 407;
}
);
note = uni006C;
unicode = 108;
},
{
glyphname = lslash;
lastChange = "2024-03-30 11:28:57 +0000";
layers = (
{
layerId = m01;
shapes = (
{
closed = 1;
nodes = (
(164,1477,l),
(164,789,l),
(40,752,l),
(40,579,l),
(164,617,l),
(164,0,l),
(491,0,l),
(491,716,l),
(618,757,l),
(618,933,l),
(491,890,l),
(491,1477,l)
);
}
);
userData = {
assembly = "SVTCA[0]	/* SetFreedomAndProjectionVectorToAxis */
PUSHB[ ]	/* 1 value pushed */
0
RCVT[ ]	/* ReadCVT */
IF[ ]	/* If */
PUSHB[ ]	/* 1 value pushed */
10
MDAP[1]	/* MoveDirectAbsPt */
ELSE[ ]	/* Else */
PUSHB[ ]	/* 2 values pushed */
10 33
MIAP[0]	/* MoveIndirectAbsPt */
EIF[ ]	/* EndIf */
PUSHB[ ]	/* 1 value pushed */
0
RCVT[ ]	/* ReadCVT */
IF[ ]	/* If */
PUSHB[ ]	/* 1 value pushed */
4
MDAP[1]	/* MoveDirectAbsPt */
ELSE[ ]	/* Else */
PUSHB[ ]	/* 2 values pushed */
4 15
MIAP[0]	/* MoveIndirectAbsPt */
EIF[ ]	/* EndIf */
PUSHB[ ]	/* 3 values pushed */
1 4 10
SRP1[ ]	/* SetRefPoint1 */
SRP2[ ]	/* SetRefPoint2 */
IP[ ]	/* InterpolatePts */
PUSHB[ ]	/* 1 value pushed */
1
MDAP[1]	/* MoveDirectAbsPt */
PUSHB[ ]	/* 1 value pushed */
0
MDRP[10000]	/* MoveDirectRelPt */
PUSHB[ ]	/* 1 value pushed */
1
SRP0[ ]	/* SetRefPoint0 */
PUSHB[ ]	/* 2 values pushed */
2 2
PUSHB[ ]	/* 1 value pushed */
10
CALL[ ]	/* CallFunction */
IF[ ]	/* If */
POP[ ]	/* PopTopStack */
MDRP[11000]	/* MoveDirectRelPt */
ELSE[ ]	/* Else */
MIRP[10100]	/* MoveIndirectRelPt */
EIF[ ]	/* EndIf */
PUSHB[ ]	/* 1 value pushed */
3
MDRP[10000]	/* MoveDirectRelPt */
PUSHB[ ]	/* 1 value pushed */
6
MDRP[10000]	/* MoveDirectRelPt */
PUSHB[ ]	/* 1 value pushed */
7
MDRP[10000]	/* MoveDirectRelPt */
PUSHB[ ]	/* 1 value pushed */
0
SRP0[ ]	/* SetRefPoint0 */
PUSHB[ ]	/* 1 value pushed */
9
MDRP[10000]	/* MoveDirectRelPt */
PUSHB[ ]	/* 1 value pushed */
8
MDRP[10000]	/* MoveDirectRelPt */
IUP[0]	/* InterpolateUntPts */
IUP[1]	/* InterpolateUntPts */";
};
width = 658;
}
);
note = uni0142;
unicode = 322;
},
{
glyphname = m;
kernLeft = m;
kernRight = h;
lastChange = "2024-03-30 11:28:57 +0000";
layers = (
{
layerId = m01;
shapes = (
{
closed = 1;
nodes = (
(40,0,l),
(365,0,l),
(365,725,l),
(398,782,o),
(445,811,o),
(507,811,cs),
(606,811,o),
(633,767,o),
(633,656,cs),
(633,0,l),
(957,0,l),
(957,712,l),
(957,725,l),
(987,782,o),
(1035,811,o),
(1102,811,cs),
(1194,811,o),
(1225,766,o),
(1225,658,cs),
(1225,0,l),
(1552,0,l),
(1552,678,ls),
(1546,934,o),
(1437,1062,o),
(1225,1062,cs),
(1092,1062,o),
(990,1009,o),
(919,903,c),
(874,1009,o),
(785,1062,o),
(653,1062,cs),
(529,1062,o),
(430,1014,o),
(356,920,c),
(344,1041,l),
(40,1041,l)
);
}
);
userData = {
assembly = "PUSHB[ ]	/* 3 values pushed */
4 30 31
SRP1[ ]	/* SetRefPoint1 */
SRP2[ ]	/* SetRefPoint2 */
IP[ ]	/* InterpolatePts */
SVTCA[0]	/* SetFreedomAndProjectionVectorToAxis */
PUSHB[ ]	/* 1 value pushed */
0
RCVT[ ]	/* ReadCVT */
IF[ ]	/* If */
PUSHB[ ]	/* 1 value pushed */
3
MDAP[1]	/* MoveDirectAbsPt */
ELSE[ ]	/* Else */
PUSHB[ ]	/* 2 values pushed */
3 27
MIAP[0]	/* MoveIndirectAbsPt */
EIF[ ]	/* EndIf */
PUSHB[ ]	/* 1 value pushed */
0
RCVT[ ]	/* ReadCVT */
IF[ ]	/* If */
PUSHB[ ]	/* 1 value pushed */
7
MDAP[1]	/* MoveDirectAbsPt */
ELSE[ ]	/* Else */
PUSHB[ ]	/* 2 values pushed */
7 27
MIAP[0]	/* MoveIndirectAbsPt */
EIF[ ]	/* EndIf */
PUSHB[ ]	/* 1 value pushed */
0
RCVT[ ]	/* ReadCVT */
IF[ ]	/* If */
PUSHB[ ]	/* 1 value pushed */
0
MDAP[1]	/* MoveDirectAbsPt */
ELSE[ ]	/* Else */
PUSHB[ ]	/* 2 values pushed */
0 27
MIAP[0]	/* MoveIndirectAbsPt */
EIF[ ]	/* EndIf */
PUSHB[ ]	/* 1 value pushed */
0
RCVT[ ]	/* ReadCVT */
IF[ ]	/* If */
PUSHB[ ]	/* 1 value pushed */
10
MDAP[1]	/* MoveDirectAbsPt */
ELSE[ ]	/* Else */
PUSHB[ ]	/* 2 values pushed */
10 15
MIAP[0]	/* MoveIndirectAbsPt */
EIF[ ]	/* EndIf */
PUSHB[ ]	/* 1 value pushed */
0
RCVT[ ]	/* ReadCVT */
IF[ ]	/* If */
PUSHB[ ]	/* 1 value pushed */
19
MDAP[1]	/* MoveDirectAbsPt */
ELSE[ ]	/* Else */
PUSHB[ ]	/* 2 values pushed */
19 15
MIAP[0]	/* MoveIndirectAbsPt */
EIF[ ]	/* EndIf */
PUSHB[ ]	/* 1 value pushed */
0
RCVT[ ]	/* ReadCVT */
IF[ ]	/* If */
PUSHB[ ]	/* 1 value pushed */
27
MDAP[1]	/* MoveDirectAbsPt */
ELSE[ ]	/* Else */
PUSHB[ ]	/* 2 values pushed */
27 15
MIAP[0]	/* MoveIndirectAbsPt */
EIF[ ]	/* EndIf */
PUSHB[ ]	/* 3 values pushed */
1 7 10
SRP1[ ]	/* SetRefPoint1 */
SRP2[ ]	/* SetRefPoint2 */
IP[ ]	/* InterpolatePts */
PUSHB[ ]	/* 3 values pushed */
5 7 10
SRP1[ ]	/* SetRefPoint1 */
SRP2[ ]	/* SetRefPoint2 */
IP[ ]	/* InterpolatePts */
PUSHB[ ]	/* 1 value pushed */
7
SRP0[ ]	/* SetRefPoint0 */
PUSHB[ ]	/* 2 values pushed */
15 1
PUSHB[ ]	/* 1 value pushed */
10
CALL[ ]	/* CallFunction */
IF[ ]	/* If */
POP[ ]	/* PopTopStack */
MDRP[11000]	/* MoveDirectRelPt */
ELSE[ ]	/* Else */
MIRP[10100]	/* MoveIndirectRelPt */
EIF[ ]	/* EndIf */
PUSHB[ ]	/* 1 value pushed */
24
MDRP[10000]	/* MoveDirectRelPt */
IUP[0]	/* InterpolateUntPts */
IUP[1]	/* InterpolateUntPts */";
};
width = 1592;
}
);
note = uni006D;
unicode = 109;
},
{
glyphname = n;
kernLeft = m;
kernRight = h;
lastChange = "2024-03-30 11:28:57 +0000";
layers = (
{
layerId = m01;
shapes = (
{
closed = 1;
nodes = (
(40,0,l),
(365,0,l),
(365,737,l),
(397,787,o),
(444,811,o),
(507,811,cs),
(618,811,o),
(653,763,o),
(653,658,cs),
(653,0,l),
(980,0,l),
(980,671,ls),
(973,933,o),
(870,1062,o),
(653,1062,cs),
(525,1062,o),
(426,1014,o),
(356,920,c),
(344,1041,l),
(40,1041,l)
);
}
);
userData = {
assembly = "PUSHB[ ]	/* 3 values pushed */
12 18 19
SRP1[ ]	/* SetRefPoint1 */
SRP2[ ]	/* SetRefPoint2 */
IP[ ]	/* InterpolatePts */
SVTCA[0]	/* SetFreedomAndProjectionVectorToAxis */
PUSHB[ ]	/* 1 value pushed */
0
RCVT[ ]	/* ReadCVT */
IF[ ]	/* If */
PUSHB[ ]	/* 1 value pushed */
3
MDAP[1]	/* MoveDirectAbsPt */
ELSE[ ]	/* Else */
PUSHB[ ]	/* 2 values pushed */
3 27
MIAP[0]	/* MoveIndirectAbsPt */
EIF[ ]	/* EndIf */
PUSHB[ ]	/* 1 value pushed */
0
RCVT[ ]	/* ReadCVT */
IF[ ]	/* If */
PUSHB[ ]	/* 1 value pushed */
0
MDAP[1]	/* MoveDirectAbsPt */
ELSE[ ]	/* Else */
PUSHB[ ]	/* 2 values pushed */
0 27
MIAP[0]	/* MoveIndirectAbsPt */
EIF[ ]	/* EndIf */
PUSHB[ ]	/* 1 value pushed */
0
RCVT[ ]	/* ReadCVT */
IF[ ]	/* If */
PUSHB[ ]	/* 1 value pushed */
7
MDAP[1]	/* MoveDirectAbsPt */
ELSE[ ]	/* Else */
PUSHB[ ]	/* 2 values pushed */
7 15
MIAP[0]	/* MoveIndirectAbsPt */
EIF[ ]	/* EndIf */
PUSHB[ ]	/* 1 value pushed */
0
RCVT[ ]	/* ReadCVT */
IF[ ]	/* If */
PUSHB[ ]	/* 1 value pushed */
15
MDAP[1]	/* MoveDirectAbsPt */
ELSE[ ]	/* Else */
PUSHB[ ]	/* 2 values pushed */
15 15
MIAP[0]	/* MoveIndirectAbsPt */
EIF[ ]	/* EndIf */
PUSHB[ ]	/* 3 values pushed */
1 0 7
SRP1[ ]	/* SetRefPoint1 */
SRP2[ ]	/* SetRefPoint2 */
IP[ ]	/* InterpolatePts */
PUSHB[ ]	/* 1 value pushed */
3
SRP0[ ]	/* SetRefPoint0 */
PUSHB[ ]	/* 2 values pushed */
12 1
PUSHB[ ]	/* 1 value pushed */
10
CALL[ ]	/* CallFunction */
IF[ ]	/* If */
POP[ ]	/* PopTopStack */
MDRP[11000]	/* MoveDirectRelPt */
ELSE[ ]	/* Else */
MIRP[10100]	/* MoveIndirectRelPt */
EIF[ ]	/* EndIf */
IUP[0]	/* InterpolateUntPts */
IUP[1]	/* InterpolateUntPts */";
};
width = 1020;
}
);
note = uni006E;
unicode = 110;
},
{
glyphname = ntilde;
kernLeft = m;
kernRight = h;
lastChange = "2024-03-30 11:28:57 +0000";
layers = (
{
layerId = m01;
shapes = (
{
closed = 1;
nodes = (
(40,0,l),
(365,0,l),
(365,737,l),
(397,787,o),
(444,811,o),
(507,811,cs),
(618,811,o),
(653,763,o),
(653,658,cs),
(653,0,l),
(980,0,l),
(980,671,ls),
(973,933,o),
(870,1062,o),
(653,1062,cs),
(525,1062,o),
(426,1014,o),
(356,920,c),
(344,1041,l),
(40,1041,l)
);
},
{
closed = 1;
nodes = (
(705,1422,o),
(671,1395,o),
(628,1395,cs),
(525,1395,o),
(464,1475,o),
(360,1475,cs),
(237,1475,o),
(137,1353,o),
(137,1212,c),
(318,1203,l),
(318,1261,o),
(353,1288,o),
(391,1288,cs),
(424,1288,o),
(467,1276,o),
(519,1250,cs),
(571,1223,o),
(618,1210,o),
(660,1210,cs),
(786,1210,o),
(883,1324,o),
(883,1471,c),
(705,1483,l)
);
}
);
width = 1020;
}
);
note = uni00F1;
unicode = 241;
},
{
glyphname = o;
kernLeft = o;
kernRight = o;
lastChange = "2024-03-30 11:28:57 +0000";
layers = (
{
layerId = m01;
shapes = (
{
closed = 1;
nodes = (
(56,147,o),
(247,-45,o),
(545,-45,cs),
(851,-45,o),
(1047,160,o),
(1047,484,cs),
(1047,496,ls),
(1047,829,o),
(855,1034,o),
(543,1034,cs),
(222,1034,o),
(40,816,o),
(40,505,cs),
(40,449,l)
);
},
{
closed = 1;
nodes = (
(376,704,o),
(434,784,o),
(543,784,cs),
(663,784,o),
(722,691,o),
(722,505,cs),
(722,473,ls),
(720,295,o),
(661,205,o),
(545,205,cs),
(424,205,o),
(365,293,o),
(365,484,cs),
(367,543,l)
);
}
);
userData = {
assembly = "SVTCA[0]	/* SetFreedomAndProjectionVectorToAxis */
PUSHB[ ]	/* 1 value pushed */
0
RCVT[ ]	/* ReadCVT */
IF[ ]	/* If */
PUSHB[ ]	/* 1 value pushed */
4
MDAP[1]	/* MoveDirectAbsPt */
ELSE[ ]	/* Else */
PUSHB[ ]	/* 2 values pushed */
4 27
MIAP[0]	/* MoveIndirectAbsPt */
EIF[ ]	/* EndIf */
PUSHB[ ]	/* 1 value pushed */
0
RCVT[ ]	/* ReadCVT */
IF[ ]	/* If */
PUSHB[ ]	/* 1 value pushed */
11
MDAP[1]	/* MoveDirectAbsPt */
ELSE[ ]	/* Else */
PUSHB[ ]	/* 2 values pushed */
11 15
MIAP[0]	/* MoveIndirectAbsPt */
EIF[ ]	/* EndIf */
PUSHB[ ]	/* 2 values pushed */
18 1
PUSHB[ ]	/* 1 value pushed */
10
CALL[ ]	/* CallFunction */
IF[ ]	/* If */
POP[ ]	/* PopTopStack */
MDRP[11000]	/* MoveDirectRelPt */
ELSE[ ]	/* Else */
MIRP[10100]	/* MoveIndirectRelPt */
EIF[ ]	/* EndIf */
PUSHB[ ]	/* 1 value pushed */
4
SRP0[ ]	/* SetRefPoint0 */
PUSHB[ ]	/* 2 values pushed */
23 1
PUSHB[ ]	/* 1 value pushed */
10
CALL[ ]	/* CallFunction */
IF[ ]	/* If */
POP[ ]	/* PopTopStack */
MDRP[11000]	/* MoveDirectRelPt */
ELSE[ ]	/* Else */
MIRP[10100]	/* MoveIndirectRelPt */
EIF[ ]	/* EndIf */
IUP[0]	/* InterpolateUntPts */
IUP[1]	/* InterpolateUntPts */";
};
width = 1087;
}
);
note = uni006F;
unicode = 111;
},
{
glyphname = oacute;
kernLeft = o;
kernRight = o;
lastChange = "2024-03-30 11:28:57 +0000";
layers = (
{
layerId = m01;
shapes = (
{
closed = 1;
nodes = (
(56,147,o),
(247,-45,o),
(545,-45,cs),
(851,-45,o),
(1047,160,o),
(1047,484,cs),
(1047,496,ls),
(1047,829,o),
(855,1034,o),
(543,1034,cs),
(222,1034,o),
(40,816,o),
(40,505,cs),
(40,449,l)
);
},
{
closed = 1;
nodes = (
(376,704,o),
(434,784,o),
(543,784,cs),
(663,784,o),
(722,691,o),
(722,505,cs),
(722,473,ls),
(720,295,o),
(661,205,o),
(545,205,cs),
(424,205,o),
(365,293,o),
(365,484,cs),
(367,543,l)
);
},
{
closed = 1;
nodes = (
(662,1152,l),
(928,1453,l),
(588,1453,l),
(397,1152,l)
);
}
);
width = 1087;
}
);
note = uni00F3;
unicode = 243;
},
{
glyphname = ocircumflex;
kernLeft = o;
kernRight = o;
lastChange = "2024-03-30 11:28:57 +0000";
layers = (
{
layerId = m01;
shapes = (
{
closed = 1;
nodes = (
(56,147,o),
(247,-45,o),
(545,-45,cs),
(851,-45,o),
(1047,160,o),
(1047,484,cs),
(1047,496,ls),
(1047,829,o),
(855,1034,o),
(543,1034,cs),
(222,1034,o),
(40,816,o),
(40,505,cs),
(40,449,l)
);
},
{
closed = 1;
nodes = (
(376,704,o),
(434,784,o),
(543,784,cs),
(663,784,o),
(722,691,o),
(722,505,cs),
(722,473,ls),
(720,295,o),
(661,205,o),
(545,205,cs),
(424,205,o),
(365,293,o),
(365,484,cs),
(367,543,l)
);
},
{
closed = 1;
nodes = (
(453,1453,l),
(141,1187,l),
(141,1169,l),
(391,1169,l),
(545,1300,l),
(698,1169,l),
(954,1169,l),
(954,1183,l),
(638,1453,l)
);
}
);
width = 1087;
}
);
note = uni00F4;
unicode = 244;
},
{
glyphname = odieresis;
kernLeft = o;
kernRight = o;
lastChange = "2024-03-30 11:28:57 +0000";
layers = (
{
layerId = m01;
shapes = (
{
closed = 1;
nodes = (
(56,147,o),
(247,-45,o),
(545,-45,cs),
(851,-45,o),
(1047,160,o),
(1047,484,cs),
(1047,496,ls),
(1047,829,o),
(855,1034,o),
(543,1034,cs),
(222,1034,o),
(40,816,o),
(40,505,cs),
(40,449,l)
);
},
{
closed = 1;
nodes = (
(376,704,o),
(434,784,o),
(543,784,cs),
(663,784,o),
(722,691,o),
(722,505,cs),
(722,473,ls),
(720,295,o),
(661,205,o),
(545,205,cs),
(424,205,o),
(365,293,o),
(365,484,cs),
(367,543,l)
);
},
{
closed = 1;
nodes = (
(148,1220,o),
(211,1161,o),
(293,1161,cs),
(376,1161,o),
(438,1219,o),
(438,1289,cs),
(438,1361,o),
(376,1417,o),
(293,1417,cs),
(211,1417,o),
(148,1361,o),
(148,1288,cs)
);
},
{
closed = 1;
nodes = (
(649,1220,o),
(711,1161,o),
(794,1161,cs),
(876,1161,o),
(939,1219,o),
(939,1289,cs),
(939,1361,o),
(876,1417,o),
(794,1417,cs),
(711,1417,o),
(649,1361,o),
(649,1288,cs)
);
}
);
width = 1087;
}
);
note = uni00F6;
unicode = 246;
},
{
glyphname = ograve;
kernLeft = o;
kernRight = o;
lastChange = "2024-03-30 11:28:57 +0000";
layers = (
{
layerId = m01;
shapes = (
{
closed = 1;
nodes = (
(56,147,o),
(247,-45,o),
(545,-45,cs),
(851,-45,o),
(1047,160,o),
(1047,484,cs),
(1047,496,ls),
(1047,829,o),
(855,1034,o),
(543,1034,cs),
(222,1034,o),
(40,816,o),
(40,505,cs),
(40,449,l)
);
},
{
closed = 1;
nodes = (
(376,704,o),
(434,784,o),
(543,784,cs),
(663,784,o),
(722,691,o),
(722,505,cs),
(722,473,ls),
(720,295,o),
(661,205,o),
(545,205,cs),
(424,205,o),
(365,293,o),
(365,484,cs),
(367,543,l)
);
},
{
closed = 1;
nodes = (
(165,1453,l),
(436,1152,l),
(700,1152,l),
(507,1453,l)
);
}
);
width = 1087;
}
);
note = uni00F2;
unicode = 242;
},
{
glyphname = oslash;
lastChange = "2024-03-30 11:28:57 +0000";
layers = (
{
layerId = m01;
shapes = (
{
closed = 1;
nodes = (
(40,297,o),
(107,143,o),
(240,50,c),
(139,-157,l),
(313,-157,l),
(380,-18,l),
(430,-30,o),
(485,-36,o),
(545,-36,cs),
(851,-36,o),
(1047,166,o),
(1047,494,cs),
(1047,704,o),
(982,856,o),
(851,950,c),
(948,1156,l),
(779,1156,l),
(711,1019,l),
(658,1035,o),
(602,1043,o),
(543,1043,cs),
(225,1043,o),
(40,828,o),
(40,512,cs)
);
},
{
closed = 1;
nodes = (
(376,713,o),
(434,793,o),
(543,793,cs),
(564,793,o),
(581,790,o),
(597,784,c),
(382,340,l),
(370,380,o),
(365,430,o),
(365,494,cs),
(367,552,l)
);
},
{
closed = 1;
nodes = (
(720,303,o),
(661,215,o),
(545,215,cs),
(525,215,o),
(508,216,o),
(493,219,c),
(705,656,l),
(717,615,o),
(722,567,o),
(722,512,cs),
(722,480,l)
);
}
);
userData = {
assembly = "SVTCA[0]	/* SetFreedomAndProjectionVectorToAxis */
PUSHB[ ]	/* 1 value pushed */
0
RCVT[ ]	/* ReadCVT */
IF[ ]	/* If */
PUSHB[ ]	/* 1 value pushed */
4
MDAP[1]	/* MoveDirectAbsPt */
ELSE[ ]	/* Else */
PUSHB[ ]	/* 2 values pushed */
4 27
MIAP[0]	/* MoveIndirectAbsPt */
EIF[ ]	/* EndIf */
PUSHB[ ]	/* 1 value pushed */
0
RCVT[ ]	/* ReadCVT */
IF[ ]	/* If */
PUSHB[ ]	/* 1 value pushed */
14
MDAP[1]	/* MoveDirectAbsPt */
ELSE[ ]	/* Else */
PUSHB[ ]	/* 2 values pushed */
14 15
MIAP[0]	/* MoveIndirectAbsPt */
EIF[ ]	/* EndIf */
PUSHB[ ]	/* 2 values pushed */
34 1
PUSHB[ ]	/* 1 value pushed */
10
CALL[ ]	/* CallFunction */
IF[ ]	/* If */
POP[ ]	/* PopTopStack */
MDRP[11000]	/* MoveDirectRelPt */
ELSE[ ]	/* Else */
MIRP[10100]	/* MoveIndirectRelPt */
EIF[ ]	/* EndIf */
PUSHB[ ]	/* 1 value pushed */
32
MDRP[10000]	/* MoveDirectRelPt */
PUSHB[ ]	/* 1 value pushed */
23
MDRP[10000]	/* MoveDirectRelPt */
PUSHB[ ]	/* 1 value pushed */
4
SRP0[ ]	/* SetRefPoint0 */
PUSHB[ ]	/* 2 values pushed */
26 1
PUSHB[ ]	/* 1 value pushed */
10
CALL[ ]	/* CallFunction */
IF[ ]	/* If */
POP[ ]	/* PopTopStack */
MDRP[11000]	/* MoveDirectRelPt */
ELSE[ ]	/* Else */
MIRP[10100]	/* MoveIndirectRelPt */
EIF[ ]	/* EndIf */
PUSHB[ ]	/* 1 value pushed */
24
MDRP[10000]	/* MoveDirectRelPt */
PUSHB[ ]	/* 1 value pushed */
31
MDRP[10000]	/* MoveDirectRelPt */
IUP[0]	/* InterpolateUntPts */
IUP[1]	/* InterpolateUntPts */";
};
width = 1087;
}
);
note = uni00F8;
unicode = 248;
},
{
glyphname = otilde;
kernLeft = o;
kernRight = o;
lastChange = "2024-03-30 11:28:57 +0000";
layers = (
{
layerId = m01;
shapes = (
{
closed = 1;
nodes = (
(56,147,o),
(247,-45,o),
(545,-45,cs),
(851,-45,o),
(1047,160,o),
(1047,484,cs),
(1047,496,ls),
(1047,829,o),
(855,1034,o),
(543,1034,cs),
(222,1034,o),
(40,816,o),
(40,505,cs),
(40,449,l)
);
},
{
closed = 1;
nodes = (
(376,704,o),
(434,784,o),
(543,784,cs),
(663,784,o),
(722,691,o),
(722,505,cs),
(722,473,ls),
(720,295,o),
(661,205,o),
(545,205,cs),
(424,205,o),
(365,293,o),
(365,484,cs),
(367,543,l)
);
},
{
closed = 1;
nodes = (
(739,1397,o),
(704,1370,o),
(662,1370,cs),
(561,1370,o),
(499,1449,o),
(393,1449,cs),
(268,1449,o),
(173,1329,o),
(173,1187,c),
(354,1178,l),
(354,1235,o),
(386,1264,o),
(427,1264,cs),
(457,1264,o),
(499,1251,o),
(552,1223,cs),
(605,1196,o),
(652,1183,o),
(694,1183,cs),
(820,1183,o),
(917,1299,o),
(917,1447,c),
(739,1458,l)
);
}
);
width = 1087;
}
);
note = uni00F5;
unicode = 245;
},
{
glyphname = oe;
kernLeft = c;
lastChange = "2024-03-30 11:28:57 +0000";
layers = (
{
layerId = m01;
shapes = (
{
closed = 1;
nodes = (
(56,145,o),
(247,-45,o),
(545,-45,cs),
(687,-45,o),
(804,-3,o),
(892,79,c),
(985,-3,o),
(1099,-45,o),
(1236,-45,cs),
(1395,-45,o),
(1553,3,o),
(1646,73,c),
(1570,271,l),
(1495,241,ls),
(1435,217,o),
(1363,205,o),
(1281,205,cs),
(1168,205,o),
(1087,272,o),
(1063,392,c),
(1667,392,l),
(1667,559,ls),
(1667,856,o),
(1497,1034,o),
(1214,1034,cs),
(1080,1035,o),
(971,997,o),
(885,917,c),
(796,996,o),
(683,1034,o),
(543,1034,cs),
(229,1034,o),
(40,816,o),
(40,505,cs),
(40,449,l)
);
},
{
closed = 1;
nodes = (
(376,704,o),
(434,784,o),
(543,784,cs),
(663,784,o),
(722,691,o),
(722,505,cs),
(722,471,ls),
(720,294,o),
(661,205,o),
(545,205,cs),
(424,205,o),
(365,298,o),
(365,484,cs),
(367,543,l)
);
},
{
closed = 1;
nodes = (
(1304,784,o),
(1349,730,o),
(1349,622,cs),
(1349,595,l),
(1063,595,l),
(1077,721,o),
(1128,784,o),
(1214,784,cs)
);
}
);
userData = {
assembly = "SVTCA[0]	/* SetFreedomAndProjectionVectorToAxis */
PUSHB[ ]	/* 1 value pushed */
0
RCVT[ ]	/* ReadCVT */
IF[ ]	/* If */
PUSHB[ ]	/* 1 value pushed */
4
MDAP[1]	/* MoveDirectAbsPt */
ELSE[ ]	/* Else */
PUSHB[ ]	/* 2 values pushed */
4 27
MIAP[0]	/* MoveIndirectAbsPt */
EIF[ ]	/* EndIf */
PUSHB[ ]	/* 1 value pushed */
0
RCVT[ ]	/* ReadCVT */
IF[ ]	/* If */
PUSHB[ ]	/* 1 value pushed */
27
MDAP[1]	/* MoveDirectAbsPt */
ELSE[ ]	/* Else */
PUSHB[ ]	/* 2 values pushed */
27 15
MIAP[0]	/* MoveIndirectAbsPt */
EIF[ ]	/* EndIf */
PUSHB[ ]	/* 3 values pushed */
6 4 27
SRP1[ ]	/* SetRefPoint1 */
SRP2[ ]	/* SetRefPoint2 */
IP[ ]	/* InterpolatePts */
PUSHB[ ]	/* 1 value pushed */
4
SRP0[ ]	/* SetRefPoint0 */
PUSHB[ ]	/* 1 value pushed */
8
MDRP[10000]	/* MoveDirectRelPt */
PUSHB[ ]	/* 1 value pushed */
8
MDAP[1]	/* MoveDirectAbsPt */
PUSHB[ ]	/* 1 value pushed */
27
SRP0[ ]	/* SetRefPoint0 */
PUSHB[ ]	/* 1 value pushed */
23
MDRP[10000]	/* MoveDirectRelPt */
PUSHB[ ]	/* 1 value pushed */
23
MDAP[1]	/* MoveDirectAbsPt */
PUSHB[ ]	/* 3 values pushed */
44 23 8
SRP1[ ]	/* SetRefPoint1 */
SRP2[ ]	/* SetRefPoint2 */
IP[ ]	/* InterpolatePts */
PUSHB[ ]	/* 1 value pushed */
44
MDAP[1]	/* MoveDirectAbsPt */
PUSHB[ ]	/* 5 values pushed */
31 44 47 44 2
DELTAP2[ ]	/* DeltaExceptionP2 */
PUSHB[ ]	/* 3 values pushed */
143 44 1
DELTAP1[ ]	/* DeltaExceptionP1 */
PUSHB[ ]	/* 3 values pushed */
191 44 1
DELTAP2[ ]	/* DeltaExceptionP2 */
PUSHB[ ]	/* 3 values pushed */
143 44 1
DELTAP3[ ]	/* DeltaExceptionP3 */
PUSHB[ ]	/* 2 values pushed */
12 8
PUSHB[ ]	/* 1 value pushed */
10
CALL[ ]	/* CallFunction */
IF[ ]	/* If */
POP[ ]	/* PopTopStack */
MDRP[11000]	/* MoveDirectRelPt */
ELSE[ ]	/* Else */
MIRP[10100]	/* MoveIndirectRelPt */
EIF[ ]	/* EndIf */
PUSHB[ ]	/* 1 value pushed */
23
SRP0[ ]	/* SetRefPoint0 */
PUSHB[ ]	/* 2 values pushed */
16 1
PUSHB[ ]	/* 1 value pushed */
10
CALL[ ]	/* CallFunction */
IF[ ]	/* If */
POP[ ]	/* PopTopStack */
MDRP[11000]	/* MoveDirectRelPt */
ELSE[ ]	/* Else */
MIRP[10100]	/* MoveIndirectRelPt */
EIF[ ]	/* EndIf */
PUSHB[ ]	/* 3 values pushed */
19 16 12
SRP1[ ]	/* SetRefPoint1 */
SRP2[ ]	/* SetRefPoint2 */
IP[ ]	/* InterpolatePts */
PUSHB[ ]	/* 3 values pushed */
25 27 4
SRP1[ ]	/* SetRefPoint1 */
SRP2[ ]	/* SetRefPoint2 */
IP[ ]	/* InterpolatePts */
PUSHB[ ]	/* 1 value pushed */
27
SRP0[ ]	/* SetRefPoint0 */
PUSHB[ ]	/* 2 values pushed */
33 1
PUSHB[ ]	/* 1 value pushed */
10
CALL[ ]	/* CallFunction */
IF[ ]	/* If */
POP[ ]	/* PopTopStack */
MDRP[11000]	/* MoveDirectRelPt */
ELSE[ ]	/* Else */
MIRP[10100]	/* MoveIndirectRelPt */
EIF[ ]	/* EndIf */
PUSHB[ ]	/* 1 value pushed */
4
SRP0[ ]	/* SetRefPoint0 */
PUSHB[ ]	/* 2 values pushed */
38 1
PUSHB[ ]	/* 1 value pushed */
10
CALL[ ]	/* CallFunction */
IF[ ]	/* If */
POP[ ]	/* PopTopStack */
MDRP[11000]	/* MoveDirectRelPt */
ELSE[ ]	/* Else */
MIRP[10100]	/* MoveIndirectRelPt */
EIF[ ]	/* EndIf */
PUSHB[ ]	/* 1 value pushed */
8
SRP0[ ]	/* SetRefPoint0 */
PUSHB[ ]	/* 2 values pushed */
41 1
PUSHB[ ]	/* 1 value pushed */
10
CALL[ ]	/* CallFunction */
IF[ ]	/* If */
POP[ ]	/* PopTopStack */
MDRP[11000]	/* MoveDirectRelPt */
ELSE[ ]	/* Else */
MIRP[10100]	/* MoveIndirectRelPt */
EIF[ ]	/* EndIf */
IUP[0]	/* InterpolateUntPts */
IUP[1]	/* InterpolateUntPts */";
};
width = 1707;
}
);
note = uni0153;
unicode = 339;
},
{
glyphname = p;
kernLeft = m;
kernRight = b;
lastChange = "2024-03-30 11:28:57 +0000";
layers = (
{
layerId = m01;
shapes = (
{
closed = 1;
nodes = (
(1004,845,o),
(858,1045,o),
(599,1045,cs),
(498,1045,o),
(414,1007,o),
(354,928,c),
(342,1027,l),
(40,1027,l),
(40,-417,l),
(365,-417,l),
(365,69,l),
(425,0,o),
(504,-36,o),
(601,-36,cs),
(831,-36,o),
(1004,144,o),
(1004,514,cs)
);
},
{
closed = 1;
nodes = (
(678,322,o),
(640,215,o),
(520,215,cs),
(446,215,o),
(393,243,o),
(365,301,c),
(365,712,l),
(389,768,o),
(441,795,o),
(518,795,cs),
(625,795,o),
(680,703,o),
(680,516,cs)
);
}
);
userData = {
assembly = "PUSHB[ ]	/* 3 values pushed */
18 26 27
SRP1[ ]	/* SetRefPoint1 */
SRP2[ ]	/* SetRefPoint2 */
IP[ ]	/* InterpolatePts */
PUSHB[ ]	/* 1 value pushed */
18
SRP0[ ]	/* SetRefPoint0 */
PUSHB[ ]	/* 1 value pushed */
4
MDRP[10000]	/* MoveDirectRelPt */
SVTCA[0]	/* SetFreedomAndProjectionVectorToAxis */
PUSHB[ ]	/* 1 value pushed */
0
RCVT[ ]	/* ReadCVT */
IF[ ]	/* If */
PUSHB[ ]	/* 1 value pushed */
12
MDAP[1]	/* MoveDirectAbsPt */
ELSE[ ]	/* Else */
PUSHB[ ]	/* 2 values pushed */
12 27
MIAP[0]	/* MoveIndirectAbsPt */
EIF[ ]	/* EndIf */
PUSHB[ ]	/* 1 value pushed */
0
RCVT[ ]	/* ReadCVT */
IF[ ]	/* If */
PUSHB[ ]	/* 1 value pushed */
9
MDAP[1]	/* MoveDirectAbsPt */
ELSE[ ]	/* Else */
PUSHB[ ]	/* 2 values pushed */
9 27
MIAP[0]	/* MoveIndirectAbsPt */
EIF[ ]	/* EndIf */
PUSHB[ ]	/* 1 value pushed */
0
RCVT[ ]	/* ReadCVT */
IF[ ]	/* If */
PUSHB[ ]	/* 1 value pushed */
6
MDAP[1]	/* MoveDirectAbsPt */
ELSE[ ]	/* Else */
PUSHB[ ]	/* 2 values pushed */
6 17
MIAP[0]	/* MoveIndirectAbsPt */
EIF[ ]	/* EndIf */
PUSHB[ ]	/* 1 value pushed */
0
RCVT[ ]	/* ReadCVT */
IF[ ]	/* If */
PUSHB[ ]	/* 1 value pushed */
3
MDAP[1]	/* MoveDirectAbsPt */
ELSE[ ]	/* Else */
PUSHB[ ]	/* 2 values pushed */
3 15
MIAP[0]	/* MoveIndirectAbsPt */
EIF[ ]	/* EndIf */
PUSHB[ ]	/* 3 values pushed */
5 12 3
SRP1[ ]	/* SetRefPoint1 */
SRP2[ ]	/* SetRefPoint2 */
IP[ ]	/* InterpolatePts */
PUSHB[ ]	/* 3 values pushed */
10 3 12
SRP1[ ]	/* SetRefPoint1 */
SRP2[ ]	/* SetRefPoint2 */
IP[ ]	/* InterpolatePts */
PUSHB[ ]	/* 1 value pushed */
12
SRP0[ ]	/* SetRefPoint0 */
PUSHB[ ]	/* 2 values pushed */
18 1
PUSHB[ ]	/* 1 value pushed */
10
CALL[ ]	/* CallFunction */
IF[ ]	/* If */
POP[ ]	/* PopTopStack */
MDRP[11000]	/* MoveDirectRelPt */
ELSE[ ]	/* Else */
MIRP[10100]	/* MoveIndirectRelPt */
EIF[ ]	/* EndIf */
PUSHB[ ]	/* 1 value pushed */
3
SRP0[ ]	/* SetRefPoint0 */
PUSHB[ ]	/* 2 values pushed */
23 1
PUSHB[ ]	/* 1 value pushed */
10
CALL[ ]	/* CallFunction */
IF[ ]	/* If */
POP[ ]	/* PopTopStack */
MDRP[11000]	/* MoveDirectRelPt */
ELSE[ ]	/* Else */
MIRP[10100]	/* MoveIndirectRelPt */
EIF[ ]	/* EndIf */
IUP[0]	/* InterpolateUntPts */
IUP[1]	/* InterpolateUntPts */";
};
width = 1044;
}
);
note = uni0070;
unicode = 112;
},
{
glyphname = thorn;
kernRight = b;
lastChange = "2024-03-30 11:28:57 +0000";
layers = (
{
layerId = m01;
shapes = (
{
closed = 1;
nodes = (
(1002,854,o),
(851,1047,o),
(599,1047,cs),
(505,1047,o),
(428,1014,o),
(367,946,c),
(367,1464,l),
(40,1464,l),
(40,-415,l),
(367,-415,l),
(367,69,l),
(428,2,o),
(505,-34,o),
(601,-34,cs),
(831,-34,o),
(1002,144,o),
(1002,516,c)
);
},
{
closed = 1;
nodes = (
(678,322,o),
(640,217,o),
(520,217,cs),
(446,217,o),
(393,245,o),
(367,299,c),
(367,716,l),
(391,770,o),
(444,798,o),
(518,798,cs),
(626,798,o),
(681,705,o),
(681,518,cs)
);
}
);
userData = {
assembly = "PUSHB[ ]	/* 3 values pushed */
18 26 27
SRP1[ ]	/* SetRefPoint1 */
SRP2[ ]	/* SetRefPoint2 */
IP[ ]	/* InterpolatePts */
PUSHB[ ]	/* 1 value pushed */
18
SRP0[ ]	/* SetRefPoint0 */
PUSHB[ ]	/* 1 value pushed */
4
MDRP[10000]	/* MoveDirectRelPt */
SVTCA[0]	/* SetFreedomAndProjectionVectorToAxis */
PUSHB[ ]	/* 1 value pushed */
8
MDAP[1]	/* MoveDirectAbsPt */
PUSHB[ ]	/* 1 value pushed */
0
RCVT[ ]	/* ReadCVT */
IF[ ]	/* If */
PUSHB[ ]	/* 1 value pushed */
12
MDAP[1]	/* MoveDirectAbsPt */
ELSE[ ]	/* Else */
PUSHB[ ]	/* 2 values pushed */
12 27
MIAP[0]	/* MoveIndirectAbsPt */
EIF[ ]	/* EndIf */
PUSHB[ ]	/* 1 value pushed */
0
RCVT[ ]	/* ReadCVT */
IF[ ]	/* If */
PUSHB[ ]	/* 1 value pushed */
6
MDAP[1]	/* MoveDirectAbsPt */
ELSE[ ]	/* Else */
PUSHB[ ]	/* 2 values pushed */
6 17
MIAP[0]	/* MoveIndirectAbsPt */
EIF[ ]	/* EndIf */
PUSHB[ ]	/* 1 value pushed */
0
RCVT[ ]	/* ReadCVT */
IF[ ]	/* If */
PUSHB[ ]	/* 1 value pushed */
3
MDAP[1]	/* MoveDirectAbsPt */
ELSE[ ]	/* Else */
PUSHB[ ]	/* 2 values pushed */
3 15
MIAP[0]	/* MoveIndirectAbsPt */
EIF[ ]	/* EndIf */
PUSHB[ ]	/* 3 values pushed */
5 12 3
SRP1[ ]	/* SetRefPoint1 */
SRP2[ ]	/* SetRefPoint2 */
IP[ ]	/* InterpolatePts */
PUSHB[ ]	/* 3 values pushed */
10 12 3
SRP1[ ]	/* SetRefPoint1 */
SRP2[ ]	/* SetRefPoint2 */
IP[ ]	/* InterpolatePts */
PUSHB[ ]	/* 1 value pushed */
12
SRP0[ ]	/* SetRefPoint0 */
PUSHB[ ]	/* 2 values pushed */
18 1
PUSHB[ ]	/* 1 value pushed */
10
CALL[ ]	/* CallFunction */
IF[ ]	/* If */
POP[ ]	/* PopTopStack */
MDRP[11000]	/* MoveDirectRelPt */
ELSE[ ]	/* Else */
MIRP[10100]	/* MoveIndirectRelPt */
EIF[ ]	/* EndIf */
PUSHB[ ]	/* 1 value pushed */
3
SRP0[ ]	/* SetRefPoint0 */
PUSHB[ ]	/* 2 values pushed */
23 1
PUSHB[ ]	/* 1 value pushed */
10
CALL[ ]	/* CallFunction */
IF[ ]	/* If */
POP[ ]	/* PopTopStack */
MDRP[11000]	/* MoveDirectRelPt */
ELSE[ ]	/* Else */
MIRP[10100]	/* MoveIndirectRelPt */
EIF[ ]	/* EndIf */
IUP[0]	/* InterpolateUntPts */
IUP[1]	/* InterpolateUntPts */";
};
width = 1042;
}
);
note = uni00FE;
unicode = 254;
},
{
glyphname = q;
kernLeft = c;
lastChange = "2024-03-30 11:28:57 +0000";
layers = (
{
layerId = m01;
shapes = (
{
closed = 1;
nodes = (
(40,165,o),
(198,-36,o),
(444,-36,cs),
(541,-36,o),
(619,0,o),
(680,69,c),
(680,-417,l),
(1004,-417,l),
(1004,1027,l),
(726,1027,l),
(702,912,l),
(638,1002,o),
(552,1045,o),
(446,1045,cs),
(191,1045,o),
(40,847,o),
(40,516,cs)
);
},
{
closed = 1;
nodes = (
(374,692,o),
(405,795,o),
(529,795,cs),
(603,795,o),
(653,768,o),
(680,712,c),
(680,299,l),
(651,243,o),
(601,215,o),
(526,215,cs),
(419,215,o),
(365,309,o),
(365,496,cs)
);
}
);
userData = {
assembly = "PUSHB[ ]	/* 3 values pushed */
22 25 26
SRP1[ ]	/* SetRefPoint1 */
SRP2[ ]	/* SetRefPoint2 */
IP[ ]	/* InterpolatePts */
PUSHB[ ]	/* 1 value pushed */
22
SRP0[ ]	/* SetRefPoint0 */
PUSHB[ ]	/* 1 value pushed */
11
MDRP[10000]	/* MoveDirectRelPt */
SVTCA[0]	/* SetFreedomAndProjectionVectorToAxis */
PUSHB[ ]	/* 1 value pushed */
0
RCVT[ ]	/* ReadCVT */
IF[ ]	/* If */
PUSHB[ ]	/* 1 value pushed */
3
MDAP[1]	/* MoveDirectAbsPt */
ELSE[ ]	/* Else */
PUSHB[ ]	/* 2 values pushed */
3 27
MIAP[0]	/* MoveIndirectAbsPt */
EIF[ ]	/* EndIf */
PUSHB[ ]	/* 1 value pushed */
0
RCVT[ ]	/* ReadCVT */
IF[ ]	/* If */
PUSHB[ ]	/* 1 value pushed */
6
MDAP[1]	/* MoveDirectAbsPt */
ELSE[ ]	/* Else */
PUSHB[ ]	/* 2 values pushed */
6 27
MIAP[0]	/* MoveIndirectAbsPt */
EIF[ ]	/* EndIf */
PUSHB[ ]	/* 1 value pushed */
0
RCVT[ ]	/* ReadCVT */
IF[ ]	/* If */
PUSHB[ ]	/* 1 value pushed */
8
MDAP[1]	/* MoveDirectAbsPt */
ELSE[ ]	/* Else */
PUSHB[ ]	/* 2 values pushed */
8 17
MIAP[0]	/* MoveIndirectAbsPt */
EIF[ ]	/* EndIf */
PUSHB[ ]	/* 1 value pushed */
0
RCVT[ ]	/* ReadCVT */
IF[ ]	/* If */
PUSHB[ ]	/* 1 value pushed */
12
MDAP[1]	/* MoveDirectAbsPt */
ELSE[ ]	/* Else */
PUSHB[ ]	/* 2 values pushed */
12 15
MIAP[0]	/* MoveIndirectAbsPt */
EIF[ ]	/* EndIf */
PUSHB[ ]	/* 3 values pushed */
5 6 12
SRP1[ ]	/* SetRefPoint1 */
SRP2[ ]	/* SetRefPoint2 */
IP[ ]	/* InterpolatePts */
PUSHB[ ]	/* 3 values pushed */
10 6 12
SRP1[ ]	/* SetRefPoint1 */
SRP2[ ]	/* SetRefPoint2 */
IP[ ]	/* InterpolatePts */
PUSHB[ ]	/* 2 values pushed */
17 1
PUSHB[ ]	/* 1 value pushed */
10
CALL[ ]	/* CallFunction */
IF[ ]	/* If */
POP[ ]	/* PopTopStack */
MDRP[11000]	/* MoveDirectRelPt */
ELSE[ ]	/* Else */
MIRP[10100]	/* MoveIndirectRelPt */
EIF[ ]	/* EndIf */
PUSHB[ ]	/* 1 value pushed */
3
SRP0[ ]	/* SetRefPoint0 */
PUSHB[ ]	/* 2 values pushed */
22 1
PUSHB[ ]	/* 1 value pushed */
10
CALL[ ]	/* CallFunction */
IF[ ]	/* If */
POP[ ]	/* PopTopStack */
MDRP[11000]	/* MoveDirectRelPt */
ELSE[ ]	/* Else */
MIRP[10100]	/* MoveIndirectRelPt */
EIF[ ]	/* EndIf */
IUP[0]	/* InterpolateUntPts */
IUP[1]	/* InterpolateUntPts */";
};
width = 1044;
}
);
note = uni0071;
unicode = 113;
},
{
glyphname = r;
kernRight = r;
lastChange = "2024-03-30 11:28:57 +0000";
layers = (
{
layerId = m01;
shapes = (
{
closed = 1;
nodes = (
(647,1057,o),
(618,1062,o),
(583,1062,cs),
(486,1062,o),
(410,1010,o),
(356,908,c),
(344,1041,l),
(40,1041,l),
(40,0,l),
(365,0,l),
(365,660,l),
(393,725,o),
(458,757,o),
(561,757,c),
(666,748,l),
(673,1049,l)
);
}
);
userData = {
assembly = "PUSHB[ ]	/* 3 values pushed */
7 13 14
SRP1[ ]	/* SetRefPoint1 */
SRP2[ ]	/* SetRefPoint2 */
IP[ ]	/* InterpolatePts */
SVTCA[0]	/* SetFreedomAndProjectionVectorToAxis */
PUSHB[ ]	/* 1 value pushed */
0
RCVT[ ]	/* ReadCVT */
IF[ ]	/* If */
PUSHB[ ]	/* 1 value pushed */
10
MDAP[1]	/* MoveDirectAbsPt */
ELSE[ ]	/* Else */
PUSHB[ ]	/* 2 values pushed */
10 27
MIAP[0]	/* MoveIndirectAbsPt */
EIF[ ]	/* EndIf */
PUSHB[ ]	/* 1 value pushed */
0
RCVT[ ]	/* ReadCVT */
IF[ ]	/* If */
PUSHB[ ]	/* 1 value pushed */
6
MDAP[1]	/* MoveDirectAbsPt */
ELSE[ ]	/* Else */
PUSHB[ ]	/* 2 values pushed */
6 27
MIAP[0]	/* MoveIndirectAbsPt */
EIF[ ]	/* EndIf */
PUSHB[ ]	/* 1 value pushed */
0
RCVT[ ]	/* ReadCVT */
IF[ ]	/* If */
PUSHB[ ]	/* 1 value pushed */
4
MDAP[1]	/* MoveDirectAbsPt */
ELSE[ ]	/* Else */
PUSHB[ ]	/* 2 values pushed */
4 15
MIAP[0]	/* MoveIndirectAbsPt */
EIF[ ]	/* EndIf */
PUSHB[ ]	/* 1 value pushed */
10
SRP0[ ]	/* SetRefPoint0 */
PUSHB[ ]	/* 1 value pushed */
1
PUSHB[ ]	/* 1 value pushed */
10
CALL[ ]	/* CallFunction */
IF[ ]	/* If */
MDRP[11000]	/* MoveDirectRelPt */
ELSE[ ]	/* Else */
MDRP[11100]	/* MoveDirectRelPt */
EIF[ ]	/* EndIf */
NPUSHB[ ]	/* 9 values pushed */
31 1 47 1 63 1 79 1 4
DELTAP1[ ]	/* DeltaExceptionP1 */
PUSHB[ ]	/* 3 values pushed */
8 6 4
SRP1[ ]	/* SetRefPoint1 */
SRP2[ ]	/* SetRefPoint2 */
IP[ ]	/* InterpolatePts */
IUP[0]	/* InterpolateUntPts */
IUP[1]	/* InterpolateUntPts */";
};
width = 713;
}
);
note = uni0072;
unicode = 114;
},
{
glyphname = s;
kernLeft = s;
lastChange = "2024-03-30 11:28:57 +0000";
layers = (
{
layerId = m01;
shapes = (
{
closed = 1;
nodes = (
(644,211,o),
(598,169,o),
(511,169,cs),
(415,169,o),
(345,212,o),
(342,309,c),
(40,309,l),
(40,124,o),
(220,-45,o),
(502,-45,cs),
(770,-45,o),
(957,88,o),
(957,277,cs),
(957,417,o),
(879,513,o),
(722,565,cs),
(617,602,o),
(484,611,o),
(422,652,cs),
(395,671,o),
(380,694,o),
(380,723,cs),
(380,780,o),
(433,823,o),
(502,823,cs),
(589,823,o),
(633,780,o),
(633,696,c),
(957,696,l),
(957,901,o),
(778,1034,o),
(502,1034,cs),
(247,1034,o),
(74,897,o),
(74,707,cs),
(74,542,o),
(198,438,o),
(434,385,cs),
(516,367,o),
(571,350,o),
(600,333,cs),
(629,317,o),
(644,295,o),
(644,268,cs)
);
}
);
userData = {
assembly = "PUSHB[ ]	/* 3 values pushed */
35 38 39
SRP1[ ]	/* SetRefPoint1 */
SRP2[ ]	/* SetRefPoint2 */
IP[ ]	/* InterpolatePts */
SVTCA[0]	/* SetFreedomAndProjectionVectorToAxis */
PUSHB[ ]	/* 1 value pushed */
0
RCVT[ ]	/* ReadCVT */
IF[ ]	/* If */
PUSHB[ ]	/* 1 value pushed */
9
MDAP[1]	/* MoveDirectAbsPt */
ELSE[ ]	/* Else */
PUSHB[ ]	/* 2 values pushed */
9 27
MIAP[0]	/* MoveIndirectAbsPt */
EIF[ ]	/* EndIf */
PUSHB[ ]	/* 1 value pushed */
0
RCVT[ ]	/* ReadCVT */
IF[ ]	/* If */
PUSHB[ ]	/* 1 value pushed */
27
MDAP[1]	/* MoveDirectAbsPt */
ELSE[ ]	/* Else */
PUSHB[ ]	/* 2 values pushed */
27 15
MIAP[0]	/* MoveIndirectAbsPt */
EIF[ ]	/* EndIf */
PUSHB[ ]	/* 3 values pushed */
2 27 9
SRP1[ ]	/* SetRefPoint1 */
SRP2[ ]	/* SetRefPoint2 */
IP[ ]	/* InterpolatePts */
PUSHB[ ]	/* 3 values pushed */
137 2 1
DELTAP1[ ]	/* DeltaExceptionP1 */
PUSHB[ ]	/* 5 values pushed */
185 2 201 2 2
DELTAP1[ ]	/* DeltaExceptionP1 */
PUSHB[ ]	/* 1 value pushed */
9
SRP0[ ]	/* SetRefPoint0 */
PUSHB[ ]	/* 2 values pushed */
15 9
PUSHB[ ]	/* 1 value pushed */
10
CALL[ ]	/* CallFunction */
IF[ ]	/* If */
POP[ ]	/* PopTopStack */
MDRP[11000]	/* MoveDirectRelPt */
ELSE[ ]	/* Else */
MIRP[10100]	/* MoveIndirectRelPt */
EIF[ ]	/* EndIf */
PUSHB[ ]	/* 1 value pushed */
13
MDRP[10000]	/* MoveDirectRelPt */
PUSHB[ ]	/* 5 values pushed */
12 13 28 13 2
DELTAP1[ ]	/* DeltaExceptionP1 */
PUSHB[ ]	/* 7 values pushed */
92 13 108 13 124 13 3
DELTAP1[ ]	/* DeltaExceptionP1 */
PUSHB[ ]	/* 5 values pushed */
59 13 75 13 2
DELTAP2[ ]	/* DeltaExceptionP2 */
PUSHB[ ]	/* 5 values pushed */
42 13 58 13 2
DELTAP1[ ]	/* DeltaExceptionP1 */
PUSHB[ ]	/* 3 values pushed */
22 9 27
SRP1[ ]	/* SetRefPoint1 */
SRP2[ ]	/* SetRefPoint2 */
IP[ ]	/* InterpolatePts */
PUSHB[ ]	/* 3 values pushed */
137 22 1
DELTAP1[ ]	/* DeltaExceptionP1 */
PUSHB[ ]	/* 1 value pushed */
27
SRP0[ ]	/* SetRefPoint0 */
PUSHB[ ]	/* 2 values pushed */
35 9
PUSHB[ ]	/* 1 value pushed */
10
CALL[ ]	/* CallFunction */
IF[ ]	/* If */
POP[ ]	/* PopTopStack */
MDRP[11000]	/* MoveDirectRelPt */
ELSE[ ]	/* Else */
MIRP[10100]	/* MoveIndirectRelPt */
EIF[ ]	/* EndIf */
PUSHB[ ]	/* 1 value pushed */
32
MDRP[10000]	/* MoveDirectRelPt */
PUSHB[ ]	/* 5 values pushed */
83 32 99 32 2
DELTAP1[ ]	/* DeltaExceptionP1 */
PUSHB[ ]	/* 3 values pushed */
52 32 1
DELTAP2[ ]	/* DeltaExceptionP2 */
PUSHB[ ]	/* 5 values pushed */
213 32 229 32 2
DELTAP1[ ]	/* DeltaExceptionP1 */
PUSHB[ ]	/* 5 values pushed */
37 32 53 32 2
DELTAP1[ ]	/* DeltaExceptionP1 */
PUSHB[ ]	/* 5 values pushed */
3 32 19 32 2
DELTAP1[ ]	/* DeltaExceptionP1 */
PUSHB[ ]	/* 3 values pushed */
67 32 1
DELTAP2[ ]	/* DeltaExceptionP2 */
PUSHB[ ]	/* 3 values pushed */
114 32 1
DELTAP1[ ]	/* DeltaExceptionP1 */
IUP[0]	/* InterpolateUntPts */
IUP[1]	/* InterpolateUntPts */";
};
width = 997;
}
);
note = uni0073;
unicode = 115;
},
{
glyphname = scaron;
kernLeft = s;
lastChange = "2024-03-30 11:28:57 +0000";
layers = (
{
layerId = m01;
shapes = (
{
closed = 1;
nodes = (
(644,211,o),
(598,169,o),
(511,169,cs),
(415,169,o),
(345,212,o),
(342,309,c),
(40,309,l),
(40,124,o),
(220,-45,o),
(502,-45,cs),
(770,-45,o),
(957,88,o),
(957,277,cs),
(957,417,o),
(879,513,o),
(722,565,cs),
(617,602,o),
(484,611,o),
(422,652,cs),
(395,671,o),
(380,694,o),
(380,723,cs),
(380,780,o),
(433,823,o),
(502,823,cs),
(589,823,o),
(633,780,o),
(633,696,c),
(957,696,l),
(957,901,o),
(778,1034,o),
(502,1034,cs),
(247,1034,o),
(74,897,o),
(74,707,cs),
(74,542,o),
(198,438,o),
(434,385,cs),
(516,367,o),
(571,350,o),
(600,333,cs),
(629,317,o),
(644,295,o),
(644,268,cs)
);
},
{
closed = 1;
nodes = (
(77,1455,l),
(77,1447,l),
(389,1172,l),
(599,1172,l),
(915,1444,l),
(915,1455,l),
(638,1455,l),
(496,1327,l),
(356,1455,l)
);
}
);
width = 997;
}
);
note = uni0161;
unicode = 353;
},
{
glyphname = germandbls;
lastChange = "2024-03-30 11:28:57 +0000";
layers = (
{
layerId = m01;
shapes = (
{
closed = 1;
nodes = (
(367,1159,o),
(407,1228,o),
(500,1228,cs),
(578,1228,o),
(635,1173,o),
(635,1097,cs),
(635,1046,o),
(620,993,o),
(590,939,cs),
(559,886,o),
(545,826,o),
(545,761,cs),
(545,666,o),
(581,590,o),
(686,502,cs),
(772,427,o),
(810,385,o),
(810,327,cs),
(810,249,o),
(756,205,o),
(678,205,cs),
(597,205,o),
(529,219,o),
(473,248,c),
(416,4,l),
(474,-29,o),
(579,-45,o),
(675,-45,cs),
(970,-45,o),
(1135,89,o),
(1135,329,cs),
(1135,425,o),
(1090,517,o),
(997,606,cs),
(943,659,o),
(908,695,o),
(893,716,cs),
(877,737,o),
(870,758,o),
(870,780,cs),
(870,834,o),
(884,886,o),
(915,934,cs),
(944,982,o),
(960,1042,o),
(960,1111,cs),
(960,1333,o),
(786,1475,o),
(533,1475,cs),
(218,1475,o),
(40,1317,o),
(40,1034,cs),
(40,-25,l),
(367,-25,l),
(367,1027,l)
);
}
);
userData = {
assembly = "PUSHB[ ]	/* 3 values pushed */
24 43 44
SRP1[ ]	/* SetRefPoint1 */
SRP2[ ]	/* SetRefPoint2 */
IP[ ]	/* InterpolatePts */
SVTCA[0]	/* SetFreedomAndProjectionVectorToAxis */
PUSHB[ ]	/* 1 value pushed */
0
RCVT[ ]	/* ReadCVT */
IF[ ]	/* If */
PUSHB[ ]	/* 1 value pushed */
5
MDAP[1]	/* MoveDirectAbsPt */
ELSE[ ]	/* Else */
PUSHB[ ]	/* 2 values pushed */
5 33
MIAP[0]	/* MoveIndirectAbsPt */
EIF[ ]	/* EndIf */
PUSHB[ ]	/* 1 value pushed */
0
RCVT[ ]	/* ReadCVT */
IF[ ]	/* If */
PUSHB[ ]	/* 1 value pushed */
0
MDAP[1]	/* MoveDirectAbsPt */
ELSE[ ]	/* Else */
PUSHB[ ]	/* 2 values pushed */
0 15
MIAP[0]	/* MoveIndirectAbsPt */
EIF[ ]	/* EndIf */
PUSHB[ ]	/* 1 value pushed */
0
RCVT[ ]	/* ReadCVT */
IF[ ]	/* If */
PUSHB[ ]	/* 1 value pushed */
19
MDAP[1]	/* MoveDirectAbsPt */
ELSE[ ]	/* Else */
PUSHB[ ]	/* 2 values pushed */
19 15
MIAP[0]	/* MoveIndirectAbsPt */
EIF[ ]	/* EndIf */
PUSHB[ ]	/* 3 values pushed */
14 5 19
SRP1[ ]	/* SetRefPoint1 */
SRP2[ ]	/* SetRefPoint2 */
IP[ ]	/* InterpolatePts */
PUSHB[ ]	/* 2 values pushed */
25 1
PUSHB[ ]	/* 1 value pushed */
10
CALL[ ]	/* CallFunction */
IF[ ]	/* If */
POP[ ]	/* PopTopStack */
MDRP[11000]	/* MoveDirectRelPt */
ELSE[ ]	/* Else */
MIRP[10100]	/* MoveIndirectRelPt */
EIF[ ]	/* EndIf */
PUSHB[ ]	/* 3 values pushed */
31 19 5
SRP1[ ]	/* SetRefPoint1 */
SRP2[ ]	/* SetRefPoint2 */
IP[ ]	/* InterpolatePts */
PUSHB[ ]	/* 1 value pushed */
5
SRP0[ ]	/* SetRefPoint0 */
PUSHB[ ]	/* 2 values pushed */
39 1
PUSHB[ ]	/* 1 value pushed */
10
CALL[ ]	/* CallFunction */
IF[ ]	/* If */
POP[ ]	/* PopTopStack */
MDRP[11000]	/* MoveDirectRelPt */
ELSE[ ]	/* Else */
MIRP[10100]	/* MoveIndirectRelPt */
EIF[ ]	/* EndIf */
IUP[0]	/* InterpolateUntPts */
IUP[1]	/* InterpolateUntPts */";
};
width = 1175;
}
);
note = uni00DF;
unicode = 223;
},
{
glyphname = t;
lastChange = "2024-03-30 11:28:57 +0000";
layers = (
{
layerId = m01;
shapes = (
{
closed = 1;
nodes = (
(173,1016,l),
(40,1016,l),
(40,791,l),
(173,791,l),
(173,273,ls),
(173,59,o),
(276,-45,o),
(502,-45,cs),
(563,-45,o),
(623,-36,o),
(682,-18,c),
(682,215,l),
(660,211,o),
(635,209,o),
(603,209,cs),
(518,209,o),
(497,238,o),
(497,316,cs),
(497,791,l),
(668,791,l),
(668,1016,l),
(497,1016,l),
(497,1275,l),
(173,1275,l)
);
}
);
userData = {
assembly = "PUSHB[ ]	/* 3 values pushed */
14 22 23
SRP1[ ]	/* SetRefPoint1 */
SRP2[ ]	/* SetRefPoint2 */
IP[ ]	/* InterpolatePts */
SVTCA[0]	/* SetFreedomAndProjectionVectorToAxis */
PUSHB[ ]	/* 1 value pushed */
0
RCVT[ ]	/* ReadCVT */
IF[ ]	/* If */
PUSHB[ ]	/* 1 value pushed */
1
MDAP[1]	/* MoveDirectAbsPt */
ELSE[ ]	/* Else */
PUSHB[ ]	/* 2 values pushed */
1 27
MIAP[0]	/* MoveIndirectAbsPt */
EIF[ ]	/* EndIf */
PUSHB[ ]	/* 1 value pushed */
0
RCVT[ ]	/* ReadCVT */
IF[ ]	/* If */
PUSHB[ ]	/* 1 value pushed */
19
MDAP[1]	/* MoveDirectAbsPt */
ELSE[ ]	/* Else */
PUSHB[ ]	/* 2 values pushed */
19 27
MIAP[0]	/* MoveIndirectAbsPt */
EIF[ ]	/* EndIf */
PUSHB[ ]	/* 1 value pushed */
0
RCVT[ ]	/* ReadCVT */
IF[ ]	/* If */
PUSHB[ ]	/* 1 value pushed */
13
MDAP[1]	/* MoveDirectAbsPt */
ELSE[ ]	/* Else */
PUSHB[ ]	/* 2 values pushed */
13 15
MIAP[0]	/* MoveIndirectAbsPt */
EIF[ ]	/* EndIf */
PUSHB[ ]	/* 1 value pushed */
1
SRP0[ ]	/* SetRefPoint0 */
PUSHB[ ]	/* 1 value pushed */
0
MDRP[10000]	/* MoveDirectRelPt */
PUSHB[ ]	/* 1 value pushed */
0
MDAP[1]	/* MoveDirectAbsPt */
PUSHB[ ]	/* 1 value pushed */
1
SRP0[ ]	/* SetRefPoint0 */
PUSHB[ ]	/* 2 values pushed */
3 9
PUSHB[ ]	/* 1 value pushed */
10
CALL[ ]	/* CallFunction */
IF[ ]	/* If */
POP[ ]	/* PopTopStack */
MDRP[11000]	/* MoveDirectRelPt */
ELSE[ ]	/* Else */
MIRP[10100]	/* MoveIndirectRelPt */
EIF[ ]	/* EndIf */
PUSHB[ ]	/* 1 value pushed */
13
SRP0[ ]	/* SetRefPoint0 */
PUSHB[ ]	/* 2 values pushed */
8 1
PUSHB[ ]	/* 1 value pushed */
10
CALL[ ]	/* CallFunction */
IF[ ]	/* If */
POP[ ]	/* PopTopStack */
MDRP[11000]	/* MoveDirectRelPt */
ELSE[ ]	/* Else */
MIRP[10100]	/* MoveIndirectRelPt */
EIF[ ]	/* EndIf */
PUSHB[ ]	/* 1 value pushed */
3
SRP0[ ]	/* SetRefPoint0 */
PUSHB[ ]	/* 1 value pushed */
17
MDRP[10000]	/* MoveDirectRelPt */
PUSHB[ ]	/* 1 value pushed */
18
MDRP[10000]	/* MoveDirectRelPt */
IUP[0]	/* InterpolateUntPts */
IUP[1]	/* InterpolateUntPts */";
};
width = 722;
}
);
note = uni0074;
unicode = 116;
},
{
glyphname = u;
kernLeft = u;
lastChange = "2024-03-30 11:28:57 +0000";
layers = (
{
layerId = m01;
shapes = (
{
closed = 1;
nodes = (
(980,-25,l),
(980,1016,l),
(653,1016,l),
(653,286,l),
(621,232,o),
(569,205,o),
(496,205,cs),
(408,205,o),
(365,250,o),
(365,340,cs),
(365,1016,l),
(40,1016,l),
(40,342,ls),
(40,90,o),
(159,-45,o),
(387,-45,cs),
(505,-45,o),
(597,-1,o),
(664,88,c),
(675,-25,l)
);
}
);
userData = {
assembly = "PUSHB[ ]	/* 3 values pushed */
10 17 18
SRP1[ ]	/* SetRefPoint1 */
SRP2[ ]	/* SetRefPoint2 */
IP[ ]	/* InterpolatePts */
SVTCA[0]	/* SetFreedomAndProjectionVectorToAxis */
PUSHB[ ]	/* 1 value pushed */
0
RCVT[ ]	/* ReadCVT */
IF[ ]	/* If */
PUSHB[ ]	/* 1 value pushed */
6
MDAP[1]	/* MoveDirectAbsPt */
ELSE[ ]	/* Else */
PUSHB[ ]	/* 2 values pushed */
6 27
MIAP[0]	/* MoveIndirectAbsPt */
EIF[ ]	/* EndIf */
PUSHB[ ]	/* 1 value pushed */
0
RCVT[ ]	/* ReadCVT */
IF[ ]	/* If */
PUSHB[ ]	/* 1 value pushed */
13
MDAP[1]	/* MoveDirectAbsPt */
ELSE[ ]	/* Else */
PUSHB[ ]	/* 2 values pushed */
13 27
MIAP[0]	/* MoveIndirectAbsPt */
EIF[ ]	/* EndIf */
PUSHB[ ]	/* 1 value pushed */
0
RCVT[ ]	/* ReadCVT */
IF[ ]	/* If */
PUSHB[ ]	/* 1 value pushed */
2
MDAP[1]	/* MoveDirectAbsPt */
ELSE[ ]	/* Else */
PUSHB[ ]	/* 2 values pushed */
2 15
MIAP[0]	/* MoveIndirectAbsPt */
EIF[ ]	/* EndIf */
PUSHB[ ]	/* 1 value pushed */
0
RCVT[ ]	/* ReadCVT */
IF[ ]	/* If */
PUSHB[ ]	/* 1 value pushed */
16
MDAP[1]	/* MoveDirectAbsPt */
ELSE[ ]	/* Else */
PUSHB[ ]	/* 2 values pushed */
16 15
MIAP[0]	/* MoveIndirectAbsPt */
EIF[ ]	/* EndIf */
PUSHB[ ]	/* 3 values pushed */
0 13 2
SRP1[ ]	/* SetRefPoint1 */
SRP2[ ]	/* SetRefPoint2 */
IP[ ]	/* InterpolatePts */
PUSHB[ ]	/* 1 value pushed */
2
SRP0[ ]	/* SetRefPoint0 */
PUSHB[ ]	/* 2 values pushed */
10 1
PUSHB[ ]	/* 1 value pushed */
10
CALL[ ]	/* CallFunction */
IF[ ]	/* If */
POP[ ]	/* PopTopStack */
MDRP[11000]	/* MoveDirectRelPt */
ELSE[ ]	/* Else */
MIRP[10100]	/* MoveIndirectRelPt */
EIF[ ]	/* EndIf */
IUP[0]	/* InterpolateUntPts */
IUP[1]	/* InterpolateUntPts */";
};
width = 1020;
}
);
note = uni0075;
unicode = 117;
},
{
glyphname = uacute;
kernLeft = u;
lastChange = "2024-03-30 11:28:57 +0000";
layers = (
{
layerId = m01;
shapes = (
{
closed = 1;
nodes = (
(980,-25,l),
(980,1016,l),
(653,1016,l),
(653,286,l),
(621,232,o),
(569,205,o),
(496,205,cs),
(408,205,o),
(365,250,o),
(365,340,cs),
(365,1016,l),
(40,1016,l),
(40,342,ls),
(40,90,o),
(159,-45,o),
(387,-45,cs),
(505,-45,o),
(597,-1,o),
(664,88,c),
(675,-25,l)
);
},
{
closed = 1;
nodes = (
(626,1152,l),
(894,1453,l),
(550,1453,l),
(360,1152,l)
);
}
);
width = 1020;
}
);
note = uni00FA;
unicode = 250;
},
{
glyphname = ucircumflex;
kernLeft = u;
lastChange = "2024-03-30 11:28:57 +0000";
layers = (
{
layerId = m01;
shapes = (
{
closed = 1;
nodes = (
(980,-25,l),
(980,1016,l),
(653,1016,l),
(653,286,l),
(621,232,o),
(569,205,o),
(496,205,cs),
(408,205,o),
(365,250,o),
(365,340,cs),
(365,1016,l),
(40,1016,l),
(40,342,ls),
(40,90,o),
(159,-45,o),
(387,-45,cs),
(505,-45,o),
(597,-1,o),
(664,88,c),
(675,-25,l)
);
},
{
closed = 1;
nodes = (
(417,1453,l),
(105,1187,l),
(105,1169,l),
(356,1169,l),
(509,1300,l),
(662,1169,l),
(919,1169,l),
(919,1183,l),
(604,1453,l)
);
}
);
width = 1020;
}
);
note = uni00FB;
unicode = 251;
},
{
glyphname = udieresis;
kernLeft = u;
lastChange = "2024-03-30 11:28:57 +0000";
layers = (
{
layerId = m01;
shapes = (
{
closed = 1;
nodes = (
(980,-25,l),
(980,1016,l),
(653,1016,l),
(653,286,l),
(621,232,o),
(569,205,o),
(496,205,cs),
(408,205,o),
(365,250,o),
(365,340,cs),
(365,1016,l),
(40,1016,l),
(40,342,ls),
(40,90,o),
(159,-45,o),
(387,-45,cs),
(505,-45,o),
(597,-1,o),
(664,88,c),
(675,-25,l)
);
},
{
closed = 1;
nodes = (
(112,1220,o),
(175,1161,o),
(258,1161,cs),
(341,1161,o),
(403,1219,o),
(403,1289,cs),
(403,1361,o),
(341,1417,o),
(258,1417,cs),
(175,1417,o),
(112,1361,o),
(112,1288,cs)
);
},
{
closed = 1;
nodes = (
(612,1220,o),
(675,1161,o),
(758,1161,cs),
(840,1161,o),
(903,1219,o),
(903,1289,cs),
(903,1361,o),
(840,1417,o),
(758,1417,cs),
(675,1417,o),
(612,1361,o),
(612,1288,cs)
);
}
);
width = 1020;
}
);
note = uni00FC;
unicode = 252;
},
{
glyphname = ugrave;
kernLeft = u;
lastChange = "2024-03-30 11:28:57 +0000";
layers = (
{
layerId = m01;
shapes = (
{
closed = 1;
nodes = (
(980,-25,l),
(980,1016,l),
(653,1016,l),
(653,286,l),
(621,232,o),
(569,205,o),
(496,205,cs),
(408,205,o),
(365,250,o),
(365,340,cs),
(365,1016,l),
(40,1016,l),
(40,342,ls),
(40,90,o),
(159,-45,o),
(387,-45,cs),
(505,-45,o),
(597,-1,o),
(664,88,c),
(675,-25,l),
(675,-25,l)
);
},
{
closed = 1;
nodes = (
(128,1453,l),
(401,1152,l),
(664,1152,l),
(473,1453,l)
);
}
);
width = 1020;
}
);
note = uni00F9;
unicode = 249;
},
{
glyphname = v;
kernLeft = v;
kernRight = v;
lastChange = "2024-03-30 11:28:57 +0000";
layers = (
{
layerId = m01;
shapes = (
{
closed = 1;
nodes = (
(40,1041,l),
(380,0,l),
(711,0,l),
(1051,1041,l),
(709,1041,l),
(545,387,l),
(384,1041,l)
);
}
);
userData = {
assembly = "PUSHB[ ]	/* 3 values pushed */
0 7 8
SRP1[ ]	/* SetRefPoint1 */
SRP2[ ]	/* SetRefPoint2 */
IP[ ]	/* InterpolatePts */
SVTCA[0]	/* SetFreedomAndProjectionVectorToAxis */
PUSHB[ ]	/* 1 value pushed */
0
RCVT[ ]	/* ReadCVT */
IF[ ]	/* If */
PUSHB[ ]	/* 1 value pushed */
1
MDAP[1]	/* MoveDirectAbsPt */
ELSE[ ]	/* Else */
PUSHB[ ]	/* 2 values pushed */
1 27
MIAP[0]	/* MoveIndirectAbsPt */
EIF[ ]	/* EndIf */
PUSHB[ ]	/* 1 value pushed */
0
RCVT[ ]	/* ReadCVT */
IF[ ]	/* If */
PUSHB[ ]	/* 1 value pushed */
5
MDAP[1]	/* MoveDirectAbsPt */
ELSE[ ]	/* Else */
PUSHB[ ]	/* 2 values pushed */
5 27
MIAP[0]	/* MoveIndirectAbsPt */
EIF[ ]	/* EndIf */
PUSHB[ ]	/* 1 value pushed */
0
RCVT[ ]	/* ReadCVT */
IF[ ]	/* If */
PUSHB[ ]	/* 1 value pushed */
3
MDAP[1]	/* MoveDirectAbsPt */
ELSE[ ]	/* Else */
PUSHB[ ]	/* 2 values pushed */
3 15
MIAP[0]	/* MoveIndirectAbsPt */
EIF[ ]	/* EndIf */
PUSHB[ ]	/* 3 values pushed */
0 5 3
SRP1[ ]	/* SetRefPoint1 */
SRP2[ ]	/* SetRefPoint2 */
IP[ ]	/* InterpolatePts */
IUP[0]	/* InterpolateUntPts */
IUP[1]	/* InterpolateUntPts */";
};
width = 1091;
}
);
note = uni0076;
unicode = 118;
},
{
glyphname = w;
lastChange = "2024-03-30 11:28:57 +0000";
layers = (
{
layerId = m01;
shapes = (
{
closed = 1;
nodes = (
(619,1041,l),
(455,413,l),
(351,1041,l),
(40,1041,l),
(285,0,l),
(560,0,l),
(734,619,l),
(905,0,l),
(1180,0,l),
(1425,1041,l),
(1115,1041,l),
(1009,428,l),
(846,1041,l)
);
}
);
userData = {
assembly = "PUSHB[ ]	/* 3 values pushed */
5 13 14
SRP1[ ]	/* SetRefPoint1 */
SRP2[ ]	/* SetRefPoint2 */
IP[ ]	/* InterpolatePts */
SVTCA[0]	/* SetFreedomAndProjectionVectorToAxis */
PUSHB[ ]	/* 1 value pushed */
0
RCVT[ ]	/* ReadCVT */
IF[ ]	/* If */
PUSHB[ ]	/* 1 value pushed */
1
MDAP[1]	/* MoveDirectAbsPt */
ELSE[ ]	/* Else */
PUSHB[ ]	/* 2 values pushed */
1 27
MIAP[0]	/* MoveIndirectAbsPt */
EIF[ ]	/* EndIf */
PUSHB[ ]	/* 1 value pushed */
0
RCVT[ ]	/* ReadCVT */
IF[ ]	/* If */
PUSHB[ ]	/* 1 value pushed */
8
MDAP[1]	/* MoveDirectAbsPt */
ELSE[ ]	/* Else */
PUSHB[ ]	/* 2 values pushed */
8 27
MIAP[0]	/* MoveIndirectAbsPt */
EIF[ ]	/* EndIf */
PUSHB[ ]	/* 1 value pushed */
0
RCVT[ ]	/* ReadCVT */
IF[ ]	/* If */
PUSHB[ ]	/* 1 value pushed */
11
MDAP[1]	/* MoveDirectAbsPt */
ELSE[ ]	/* Else */
PUSHB[ ]	/* 2 values pushed */
11 27
MIAP[0]	/* MoveIndirectAbsPt */
EIF[ ]	/* EndIf */
PUSHB[ ]	/* 1 value pushed */
0
RCVT[ ]	/* ReadCVT */
IF[ ]	/* If */
PUSHB[ ]	/* 1 value pushed */
3
MDAP[1]	/* MoveDirectAbsPt */
ELSE[ ]	/* Else */
PUSHB[ ]	/* 2 values pushed */
3 15
MIAP[0]	/* MoveIndirectAbsPt */
EIF[ ]	/* EndIf */
PUSHB[ ]	/* 1 value pushed */
0
RCVT[ ]	/* ReadCVT */
IF[ ]	/* If */
PUSHB[ ]	/* 1 value pushed */
6
MDAP[1]	/* MoveDirectAbsPt */
ELSE[ ]	/* Else */
PUSHB[ ]	/* 2 values pushed */
6 15
MIAP[0]	/* MoveIndirectAbsPt */
EIF[ ]	/* EndIf */
PUSHB[ ]	/* 3 values pushed */
0 11 3
SRP1[ ]	/* SetRefPoint1 */
SRP2[ ]	/* SetRefPoint2 */
IP[ ]	/* InterpolatePts */
PUSHB[ ]	/* 3 values pushed */
5 11 3
SRP1[ ]	/* SetRefPoint1 */
SRP2[ ]	/* SetRefPoint2 */
IP[ ]	/* InterpolatePts */
PUSHB[ ]	/* 3 values pushed */
10 11 3
SRP1[ ]	/* SetRefPoint1 */
SRP2[ ]	/* SetRefPoint2 */
IP[ ]	/* InterpolatePts */
IUP[0]	/* InterpolateUntPts */
IUP[1]	/* InterpolateUntPts */";
};
width = 1465;
}
);
note = uni0077;
unicode = 119;
},
{
glyphname = x;
kernLeft = x;
kernRight = x;
lastChange = "2024-03-30 11:28:57 +0000";
layers = (
{
layerId = m01;
shapes = (
{
closed = 1;
nodes = (
(56,1041,l),
(329,536,l),
(40,0,l),
(382,0,l),
(543,309,l),
(707,0,l),
(1045,0,l),
(756,536,l),
(1031,1041,l),
(694,1041,l),
(543,757,l),
(397,1041,l)
);
}
);
userData = {
assembly = "SVTCA[0]	/* SetFreedomAndProjectionVectorToAxis */
PUSHB[ ]	/* 1 value pushed */
0
RCVT[ ]	/* ReadCVT */
IF[ ]	/* If */
PUSHB[ ]	/* 1 value pushed */
1
MDAP[1]	/* MoveDirectAbsPt */
ELSE[ ]	/* Else */
PUSHB[ ]	/* 2 values pushed */
1 27
MIAP[0]	/* MoveIndirectAbsPt */
EIF[ ]	/* EndIf */
PUSHB[ ]	/* 1 value pushed */
0
RCVT[ ]	/* ReadCVT */
IF[ ]	/* If */
PUSHB[ ]	/* 1 value pushed */
10
MDAP[1]	/* MoveDirectAbsPt */
ELSE[ ]	/* Else */
PUSHB[ ]	/* 2 values pushed */
10 27
MIAP[0]	/* MoveIndirectAbsPt */
EIF[ ]	/* EndIf */
PUSHB[ ]	/* 1 value pushed */
0
RCVT[ ]	/* ReadCVT */
IF[ ]	/* If */
PUSHB[ ]	/* 1 value pushed */
4
MDAP[1]	/* MoveDirectAbsPt */
ELSE[ ]	/* Else */
PUSHB[ ]	/* 2 values pushed */
4 15
MIAP[0]	/* MoveIndirectAbsPt */
EIF[ ]	/* EndIf */
PUSHB[ ]	/* 1 value pushed */
0
RCVT[ ]	/* ReadCVT */
IF[ ]	/* If */
PUSHB[ ]	/* 1 value pushed */
7
MDAP[1]	/* MoveDirectAbsPt */
ELSE[ ]	/* Else */
PUSHB[ ]	/* 2 values pushed */
7 15
MIAP[0]	/* MoveIndirectAbsPt */
EIF[ ]	/* EndIf */
PUSHB[ ]	/* 3 values pushed */
0 10 4
SRP1[ ]	/* SetRefPoint1 */
SRP2[ ]	/* SetRefPoint2 */
IP[ ]	/* InterpolatePts */
PUSHB[ ]	/* 3 values pushed */
6 10 4
SRP1[ ]	/* SetRefPoint1 */
SRP2[ ]	/* SetRefPoint2 */
IP[ ]	/* InterpolatePts */
PUSHB[ ]	/* 3 values pushed */
3 0 6
SRP1[ ]	/* SetRefPoint1 */
SRP2[ ]	/* SetRefPoint2 */
IP[ ]	/* InterpolatePts */
PUSHB[ ]	/* 3 values pushed */
9 6 0
SRP1[ ]	/* SetRefPoint1 */
SRP2[ ]	/* SetRefPoint2 */
IP[ ]	/* InterpolatePts */
IUP[0]	/* InterpolateUntPts */
IUP[1]	/* InterpolateUntPts */";
};
width = 1085;
}
);
note = uni0078;
unicode = 120;
},
{
glyphname = y;
kernLeft = v;
kernRight = v;
lastChange = "2024-03-30 11:28:57 +0000";
layers = (
{
layerId = m01;
shapes = (
{
closed = 1;
nodes = (
(40,1027,l),
(401,-22,l),
(376,-92,ls),
(351,-162,o),
(309,-183,o),
(218,-183,cs),
(178,-183,l),
(178,-415,l),
(225,-428,o),
(268,-434,o),
(311,-434,cs),
(461,-434,o),
(569,-367,o),
(630,-232,cs),
(648,-189,l),
(1072,1027,l),
(725,1027,l),
(552,439,l),
(384,1027,l)
);
}
);
userData = {
assembly = "PUSHB[ ]	/* 3 values pushed */
0 17 18
SRP1[ ]	/* SetRefPoint1 */
SRP2[ ]	/* SetRefPoint2 */
IP[ ]	/* InterpolatePts */
SVTCA[0]	/* SetFreedomAndProjectionVectorToAxis */
PUSHB[ ]	/* 1 value pushed */
0
RCVT[ ]	/* ReadCVT */
IF[ ]	/* If */
PUSHB[ ]	/* 1 value pushed */
1
MDAP[1]	/* MoveDirectAbsPt */
ELSE[ ]	/* Else */
PUSHB[ ]	/* 2 values pushed */
1 27
MIAP[0]	/* MoveIndirectAbsPt */
EIF[ ]	/* EndIf */
PUSHB[ ]	/* 1 value pushed */
0
RCVT[ ]	/* ReadCVT */
IF[ ]	/* If */
PUSHB[ ]	/* 1 value pushed */
15
MDAP[1]	/* MoveDirectAbsPt */
ELSE[ ]	/* Else */
PUSHB[ ]	/* 2 values pushed */
15 27
MIAP[0]	/* MoveIndirectAbsPt */
EIF[ ]	/* EndIf */
PUSHB[ ]	/* 1 value pushed */
0
RCVT[ ]	/* ReadCVT */
IF[ ]	/* If */
PUSHB[ ]	/* 1 value pushed */
6
MDAP[1]	/* MoveDirectAbsPt */
ELSE[ ]	/* Else */
PUSHB[ ]	/* 2 values pushed */
6 17
MIAP[0]	/* MoveIndirectAbsPt */
EIF[ ]	/* EndIf */
PUSHB[ ]	/* 3 values pushed */
0 15 6
SRP1[ ]	/* SetRefPoint1 */
SRP2[ ]	/* SetRefPoint2 */
IP[ ]	/* InterpolatePts */
PUSHB[ ]	/* 2 values pushed */
10 1
PUSHB[ ]	/* 1 value pushed */
10
CALL[ ]	/* CallFunction */
IF[ ]	/* If */
POP[ ]	/* PopTopStack */
MDRP[11000]	/* MoveDirectRelPt */
ELSE[ ]	/* Else */
MIRP[10100]	/* MoveIndirectRelPt */
EIF[ ]	/* EndIf */
IUP[0]	/* InterpolateUntPts */
IUP[1]	/* InterpolateUntPts */";
};
width = 1112;
}
);
note = uni0079;
unicode = 121;
},
{
glyphname = yacute;
kernLeft = v;
kernRight = v;
lastChange = "2024-03-30 11:28:57 +0000";
layers = (
{
layerId = m01;
shapes = (
{
closed = 1;
nodes = (
(40,1016,l),
(401,-34,l),
(376,-103,ls),
(351,-172,o),
(309,-194,o),
(218,-194,cs),
(178,-194,l),
(178,-426,l),
(225,-439,o),
(268,-447,o),
(311,-447,cs),
(461,-447,o),
(569,-378,o),
(630,-243,cs),
(648,-200,l),
(1072,1016,l),
(725,1016,l),
(552,428,l),
(384,1016,l)
);
},
{
closed = 1;
nodes = (
(668,1152,l),
(937,1455,l),
(592,1455,l),
(403,1152,l)
);
}
);
width = 1112;
}
);
note = uni00FD;
unicode = 253;
},
{
glyphname = ydieresis;
kernLeft = v;
kernRight = v;
lastChange = "2024-03-30 11:28:57 +0000";
layers = (
{
layerId = m01;
shapes = (
{
closed = 1;
nodes = (
(40,1007,l),
(401,-43,l),
(376,-112,ls),
(351,-183,o),
(309,-202,o),
(218,-202,cs),
(178,-202,l),
(178,-434,l),
(225,-449,o),
(268,-455,o),
(311,-455,cs),
(461,-455,o),
(569,-387,o),
(630,-252,cs),
(648,-209,l),
(1072,1007,l),
(725,1007,l),
(552,419,l),
(384,1007,l)
);
},
{
closed = 1;
nodes = (
(155,1208,o),
(218,1154,o),
(301,1154,cs),
(382,1154,o),
(446,1208,o),
(446,1279,cs),
(446,1352,o),
(382,1408,o),
(301,1408,cs),
(218,1408,o),
(155,1352,o),
(155,1279,cs)
);
},
{
closed = 1;
nodes = (
(655,1208,o),
(718,1154,o),
(801,1154,cs),
(883,1154,o),
(945,1208,o),
(945,1279,cs),
(945,1352,o),
(883,1408,o),
(801,1408,cs),
(718,1408,o),
(655,1352,o),
(655,1279,cs)
);
}
);
width = 1112;
}
);
note = uni00FF;
unicode = 255;
},
{
glyphname = z;
kernLeft = z;
kernRight = z;
lastChange = "2024-03-30 11:28:57 +0000";
layers = (
{
layerId = m01;
shapes = (
{
closed = 1;
nodes = (
(914,1041,l),
(60,1041,l),
(60,791,l),
(502,791,l),
(40,183,l),
(40,0,l),
(925,0,l),
(925,250,l),
(450,250,l),
(914,867,l)
);
}
);
userData = {
assembly = "SVTCA[0]	/* SetFreedomAndProjectionVectorToAxis */
PUSHB[ ]	/* 1 value pushed */
0
RCVT[ ]	/* ReadCVT */
IF[ ]	/* If */
PUSHB[ ]	/* 1 value pushed */
7
MDAP[1]	/* MoveDirectAbsPt */
ELSE[ ]	/* Else */
PUSHB[ ]	/* 2 values pushed */
7 27
MIAP[0]	/* MoveIndirectAbsPt */
EIF[ ]	/* EndIf */
PUSHB[ ]	/* 1 value pushed */
0
RCVT[ ]	/* ReadCVT */
IF[ ]	/* If */
PUSHB[ ]	/* 1 value pushed */
2
MDAP[1]	/* MoveDirectAbsPt */
ELSE[ ]	/* Else */
PUSHB[ ]	/* 2 values pushed */
2 15
MIAP[0]	/* MoveIndirectAbsPt */
EIF[ ]	/* EndIf */
PUSHB[ ]	/* 2 values pushed */
0 1
PUSHB[ ]	/* 1 value pushed */
10
CALL[ ]	/* CallFunction */
IF[ ]	/* If */
POP[ ]	/* PopTopStack */
MDRP[11000]	/* MoveDirectRelPt */
ELSE[ ]	/* Else */
MIRP[10100]	/* MoveIndirectRelPt */
EIF[ ]	/* EndIf */
PUSHB[ ]	/* 3 values pushed */
4 0 2
SRP1[ ]	/* SetRefPoint1 */
SRP2[ ]	/* SetRefPoint2 */
IP[ ]	/* InterpolatePts */
PUSHB[ ]	/* 1 value pushed */
7
SRP0[ ]	/* SetRefPoint0 */
PUSHB[ ]	/* 2 values pushed */
5 1
PUSHB[ ]	/* 1 value pushed */
10
CALL[ ]	/* CallFunction */
IF[ ]	/* If */
POP[ ]	/* PopTopStack */
MDRP[11000]	/* MoveDirectRelPt */
ELSE[ ]	/* Else */
MIRP[10100]	/* MoveIndirectRelPt */
EIF[ ]	/* EndIf */
PUSHB[ ]	/* 3 values pushed */
9 5 7
SRP1[ ]	/* SetRefPoint1 */
SRP2[ ]	/* SetRefPoint2 */
IP[ ]	/* InterpolatePts */
IUP[0]	/* InterpolateUntPts */
IUP[1]	/* InterpolateUntPts */";
};
width = 965;
}
);
note = uni007A;
unicode = 122;
},
{
glyphname = zcaron;
kernLeft = z;
kernRight = z;
lastChange = "2024-03-30 11:28:57 +0000";
layers = (
{
layerId = m01;
shapes = (
{
closed = 1;
nodes = (
(914,1041,l),
(60,1041,l),
(60,791,l),
(502,791,l),
(40,183,l),
(40,0,l),
(925,0,l),
(925,250,l),
(450,250,l),
(914,867,l)
);
},
{
closed = 1;
nodes = (
(62,1481,l),
(62,1471,l),
(377,1196,l),
(588,1196,l),
(900,1469,l),
(900,1481,l),
(623,1481,l),
(483,1352,l),
(341,1481,l)
);
}
);
width = 965;
}
);
note = uni017E;
unicode = 382;
},
{
glyphname = fi;
lastChange = "2024-03-30 11:28:57 +0000";
layers = (
{
layerId = m01;
shapes = (
{
closed = 1;
nodes = (
(517,815,l),
(722,815,l),
(722,1041,l),
(517,1041,l),
(517,1062,ls),
(517,1174,o),
(579,1230,o),
(702,1230,cs),
(780,1230,o),
(855,1220,o),
(925,1201,cs),
(977,1187,l),
(1022,1444,l),
(891,1482,o),
(778,1500,o),
(682,1500,cs),
(530,1500,o),
(411,1465,o),
(326,1395,cs),
(237,1321,o),
(193,1216,o),
(190,1077,cs),
(190,1041,l),
(40,1041,l),
(40,815,l),
(190,815,l),
(190,0,l),
(517,0,l)
);
},
{
closed = 1;
nodes = (
(844,1041,l),
(844,0,l),
(1170,0,l),
(1170,1041,l)
);
}
);
userData = {
assembly = "PUSHB[ ]	/* 3 values pushed */
9 27 28
SRP1[ ]	/* SetRefPoint1 */
SRP2[ ]	/* SetRefPoint2 */
IP[ ]	/* InterpolatePts */
PUSHB[ ]	/* 1 value pushed */
9
SRP0[ ]	/* SetRefPoint0 */
PUSHB[ ]	/* 1 value pushed */
24
MDRP[10000]	/* MoveDirectRelPt */
SVTCA[0]	/* SetFreedomAndProjectionVectorToAxis */
PUSHB[ ]	/* 1 value pushed */
0
RCVT[ ]	/* ReadCVT */
IF[ ]	/* If */
PUSHB[ ]	/* 1 value pushed */
9
MDAP[1]	/* MoveDirectAbsPt */
ELSE[ ]	/* Else */
PUSHB[ ]	/* 2 values pushed */
9 33
MIAP[0]	/* MoveIndirectAbsPt */
EIF[ ]	/* EndIf */
PUSHB[ ]	/* 1 value pushed */
0
RCVT[ ]	/* ReadCVT */
IF[ ]	/* If */
PUSHB[ ]	/* 1 value pushed */
3
MDAP[1]	/* MoveDirectAbsPt */
ELSE[ ]	/* Else */
PUSHB[ ]	/* 2 values pushed */
3 27
MIAP[0]	/* MoveIndirectAbsPt */
EIF[ ]	/* EndIf */
PUSHB[ ]	/* 1 value pushed */
0
RCVT[ ]	/* ReadCVT */
IF[ ]	/* If */
PUSHB[ ]	/* 1 value pushed */
18
MDAP[1]	/* MoveDirectAbsPt */
ELSE[ ]	/* Else */
PUSHB[ ]	/* 2 values pushed */
18 27
MIAP[0]	/* MoveIndirectAbsPt */
EIF[ ]	/* EndIf */
PUSHB[ ]	/* 1 value pushed */
0
RCVT[ ]	/* ReadCVT */
IF[ ]	/* If */
PUSHB[ ]	/* 1 value pushed */
25
MDAP[1]	/* MoveDirectAbsPt */
ELSE[ ]	/* Else */
PUSHB[ ]	/* 2 values pushed */
25 27
MIAP[0]	/* MoveIndirectAbsPt */
EIF[ ]	/* EndIf */
PUSHB[ ]	/* 1 value pushed */
0
RCVT[ ]	/* ReadCVT */
IF[ ]	/* If */
PUSHB[ ]	/* 1 value pushed */
0
MDAP[1]	/* MoveDirectAbsPt */
ELSE[ ]	/* Else */
PUSHB[ ]	/* 2 values pushed */
0 15
MIAP[0]	/* MoveIndirectAbsPt */
EIF[ ]	/* EndIf */
PUSHB[ ]	/* 1 value pushed */
0
RCVT[ ]	/* ReadCVT */
IF[ ]	/* If */
PUSHB[ ]	/* 1 value pushed */
23
MDAP[1]	/* MoveDirectAbsPt */
ELSE[ ]	/* Else */
PUSHB[ ]	/* 2 values pushed */
23 15
MIAP[0]	/* MoveIndirectAbsPt */
EIF[ ]	/* EndIf */
PUSHB[ ]	/* 1 value pushed */
3
SRP0[ ]	/* SetRefPoint0 */
PUSHB[ ]	/* 2 values pushed */
1 9
PUSHB[ ]	/* 1 value pushed */
10
CALL[ ]	/* CallFunction */
IF[ ]	/* If */
POP[ ]	/* PopTopStack */
MDRP[11000]	/* MoveDirectRelPt */
ELSE[ ]	/* Else */
MIRP[10100]	/* MoveIndirectRelPt */
EIF[ ]	/* EndIf */
PUSHB[ ]	/* 1 value pushed */
9
SRP0[ ]	/* SetRefPoint0 */
PUSHB[ ]	/* 2 values pushed */
15 1
PUSHB[ ]	/* 1 value pushed */
10
CALL[ ]	/* CallFunction */
IF[ ]	/* If */
POP[ ]	/* PopTopStack */
MDRP[11000]	/* MoveDirectRelPt */
ELSE[ ]	/* Else */
MIRP[10100]	/* MoveIndirectRelPt */
EIF[ ]	/* EndIf */
PUSHB[ ]	/* 1 value pushed */
1
SRP0[ ]	/* SetRefPoint0 */
PUSHB[ ]	/* 1 value pushed */
20
MDRP[10000]	/* MoveDirectRelPt */
PUSHB[ ]	/* 1 value pushed */
21
MDRP[10000]	/* MoveDirectRelPt */
IUP[0]	/* InterpolateUntPts */
IUP[1]	/* InterpolateUntPts */";
};
width = 1210;
}
);
note = uniFB01;
unicode = 64257;
},
{
glyphname = fl;
lastChange = "2024-03-30 11:28:57 +0000";
layers = (
{
layerId = m01;
shapes = (
{
closed = 1;
nodes = (
(1170,0,l),
(1170,1477,l),
(932,1493,o),
(760,1500,o),
(655,1500,cs),
(358,1500,o),
(194,1361,o),
(190,1109,cs),
(190,1041,l),
(40,1041,l),
(40,815,l),
(190,815,l),
(190,0,l),
(517,0,l),
(517,815,l),
(719,815,l),
(719,1041,l),
(517,1041,l),
(517,1101,ls),
(517,1199,o),
(580,1249,o),
(706,1249,cs),
(744,1249,o),
(790,1246,o),
(844,1241,c),
(844,0,l)
);
}
);
userData = {
assembly = "SVTCA[0]	/* SetFreedomAndProjectionVectorToAxis */
PUSHB[ ]	/* 1 value pushed */
0
RCVT[ ]	/* ReadCVT */
IF[ ]	/* If */
PUSHB[ ]	/* 1 value pushed */
18
MDAP[1]	/* MoveDirectAbsPt */
ELSE[ ]	/* Else */
PUSHB[ ]	/* 2 values pushed */
18 33
MIAP[0]	/* MoveIndirectAbsPt */
EIF[ ]	/* EndIf */
PUSHB[ ]	/* 1 value pushed */
0
RCVT[ ]	/* ReadCVT */
IF[ ]	/* If */
PUSHB[ ]	/* 1 value pushed */
6
MDAP[1]	/* MoveDirectAbsPt */
ELSE[ ]	/* Else */
PUSHB[ ]	/* 2 values pushed */
6 27
MIAP[0]	/* MoveIndirectAbsPt */
EIF[ ]	/* EndIf */
PUSHB[ ]	/* 1 value pushed */
0
RCVT[ ]	/* ReadCVT */
IF[ ]	/* If */
PUSHB[ ]	/* 1 value pushed */
9
MDAP[1]	/* MoveDirectAbsPt */
ELSE[ ]	/* Else */
PUSHB[ ]	/* 2 values pushed */
9 15
MIAP[0]	/* MoveIndirectAbsPt */
EIF[ ]	/* EndIf */
PUSHB[ ]	/* 1 value pushed */
0
RCVT[ ]	/* ReadCVT */
IF[ ]	/* If */
PUSHB[ ]	/* 1 value pushed */
22
MDAP[1]	/* MoveDirectAbsPt */
ELSE[ ]	/* Else */
PUSHB[ ]	/* 2 values pushed */
22 15
MIAP[0]	/* MoveIndirectAbsPt */
EIF[ ]	/* EndIf */
PUSHB[ ]	/* 1 value pushed */
18
SRP0[ ]	/* SetRefPoint0 */
PUSHB[ ]	/* 2 values pushed */
2 1
PUSHB[ ]	/* 1 value pushed */
10
CALL[ ]	/* CallFunction */
IF[ ]	/* If */
POP[ ]	/* PopTopStack */
MDRP[11000]	/* MoveDirectRelPt */
ELSE[ ]	/* Else */
MIRP[10100]	/* MoveIndirectRelPt */
EIF[ ]	/* EndIf */
PUSHB[ ]	/* 1 value pushed */
6
SRP0[ ]	/* SetRefPoint0 */
PUSHB[ ]	/* 2 values pushed */
7 9
PUSHB[ ]	/* 1 value pushed */
10
CALL[ ]	/* CallFunction */
IF[ ]	/* If */
POP[ ]	/* PopTopStack */
MDRP[11000]	/* MoveDirectRelPt */
ELSE[ ]	/* Else */
MIRP[10100]	/* MoveIndirectRelPt */
EIF[ ]	/* EndIf */
PUSHB[ ]	/* 1 value pushed */
11
MDRP[10000]	/* MoveDirectRelPt */
PUSHB[ ]	/* 1 value pushed */
6
SRP0[ ]	/* SetRefPoint0 */
PUSHB[ ]	/* 1 value pushed */
14
MDRP[10000]	/* MoveDirectRelPt */
IUP[0]	/* InterpolateUntPts */
IUP[1]	/* InterpolateUntPts */";
};
width = 1210;
}
);
note = uniFB02;
unicode = 64258;
},
